<?xml version="1.0" standalone="no"?>
 <!DOCTYPE svg PUBLIC "-//W3C//DTD SVG 1.1//EN" 
 "http://www.w3.org/Graphics/SVG/1.1/DTD/svg11.dtd"> 
<svg
  xmlns:svg="http://www.w3.org/2000/svg"
  xmlns="http://www.w3.org/2000/svg"
  xmlns:xlink="http://www.w3.org/1999/xlink"
  version="1.1"
  width="29.700220cm" height="21.000720cm" viewBox="0 0 297002200 210007200">
<title>SVG Picture created as EuroPowerBoard-F_Silkscreen.svg date 2023/04/21 10:51:52 </title>
  <desc>Picture generated by PCBNEW </desc>
<g style="fill:#000000; fill-opacity:1.000000;stroke:#000000; stroke-opacity:1.000000;
stroke-linecap:round; stroke-linejoin:round;"
 transform="translate(0 0) scale(1 1)">
</g>
<g style="fill:#000000; fill-opacity:0.0; 
stroke:#000000; stroke-width:0.000000; stroke-opacity:1; 
stroke-linecap:round; stroke-linejoin:round;">
</g>
<g style="fill:#000000; fill-opacity:0.0; 
stroke:#000000; stroke-width:150000.000000; stroke-opacity:1; 
stroke-linecap:round; stroke-linejoin:round;">
<text x="133950000.000000" y="60800000.000000"
textLength="2102381.000000" font-size="1333333.000000" lengthAdjust="spacingAndGlyphs"
text-anchor="middle" opacity="0">R2</text>
<g class="stroked-text"><desc>R2</desc>
<path d="M133783333 60752380
L133450000 60276190
" />
<path d="M133211904 60752380
L133211904 59752380
L133592857 59752380
L133688095 59800000
L133735714 59847619
L133783333 59942857
L133783333 60085714
L133735714 60180952
L133688095 60228571
L133592857 60276190
L133211904 60276190
" />
<path d="M134164285 59847619
L134211904 59800000
L134307142 59752380
L134545238 59752380
L134640476 59800000
L134688095 59847619
L134735714 59942857
L134735714 60038095
L134688095 60180952
L134116666 60752380
L134735714 60752380
" />
</g><text x="133950000.000000" y="62400000.000000"
textLength="2147381.000000" font-size="1333333.000000" lengthAdjust="spacingAndGlyphs"
text-anchor="middle" opacity="0">R1</text>
<g class="stroked-text"><desc>R1</desc>
<path d="M133783333 62352380
L133450000 61876190
" />
<path d="M133211904 62352380
L133211904 61352380
L133592857 61352380
L133688095 61400000
L133735714 61447619
L133783333 61542857
L133783333 61685714
L133735714 61780952
L133688095 61828571
L133592857 61876190
L133211904 61876190
" />
<path d="M134735714 62352380
L134164285 62352380
" />
<path d="M134450000 62352380
L134450000 61352380
L134354761 61495238
L134259523 61590476
L134164285 61638095
" />
</g><text x="133100000.000000" y="55550000.000000"
textLength="2147381.000000" font-size="1333333.000000" lengthAdjust="spacingAndGlyphs"
text-anchor="middle" opacity="0">D2</text>
<g class="stroked-text"><desc>D2</desc>
<path d="M132361904 55502380
L132361904 54502380
L132600000 54502380
L132742857 54550000
L132838095 54645238
L132885714 54740476
L132933333 54930952
L132933333 55073809
L132885714 55264285
L132838095 55359523
L132742857 55454761
L132600000 55502380
L132361904 55502380
" />
<path d="M133314285 54597619
L133361904 54550000
L133457142 54502380
L133695238 54502380
L133790476 54550000
L133838095 54597619
L133885714 54692857
L133885714 54788095
L133838095 54930952
L133266666 55502380
L133885714 55502380
" />
</g><text x="130700000.000000" y="55550000.000000"
textLength="2147381.000000" font-size="1333333.000000" lengthAdjust="spacingAndGlyphs"
text-anchor="middle" opacity="0">D1</text>
<g class="stroked-text"><desc>D1</desc>
<path d="M129961904 55502380
L129961904 54502380
L130200000 54502380
L130342857 54550000
L130438095 54645238
L130485714 54740476
L130533333 54930952
L130533333 55073809
L130485714 55264285
L130438095 55359523
L130342857 55454761
L130200000 55502380
L129961904 55502380
" />
<path d="M131485714 55502380
L130914285 55502380
" />
<path d="M131200000 55502380
L131200000 54502380
L131104761 54645238
L131009523 54740476
L130914285 54788095
" />
</g><text x="126505000.000000" y="56600000.000000"
textLength="2147381.000000" font-size="1333333.000000" lengthAdjust="spacingAndGlyphs"
text-anchor="middle" opacity="0">C2</text>
<g class="stroked-text"><desc>C2</desc>
<path d="M126338333 56457142
L126290714 56504761
L126147857 56552380
L126052619 56552380
L125909761 56504761
L125814523 56409523
L125766904 56314285
L125719285 56123809
L125719285 55980952
L125766904 55790476
L125814523 55695238
L125909761 55600000
L126052619 55552380
L126147857 55552380
L126290714 55600000
L126338333 55647619
" />
<path d="M126719285 55647619
L126766904 55600000
L126862142 55552380
L127100238 55552380
L127195476 55600000
L127243095 55647619
L127290714 55742857
L127290714 55838095
L127243095 55980952
L126671666 56552380
L127290714 56552380
" />
</g><text x="120605000.000000" y="56600000.000000"
textLength="2147381.000000" font-size="1333333.000000" lengthAdjust="spacingAndGlyphs"
text-anchor="middle" opacity="0">C1</text>
<g class="stroked-text"><desc>C1</desc>
<path d="M120438333 56457142
L120390714 56504761
L120247857 56552380
L120152619 56552380
L120009761 56504761
L119914523 56409523
L119866904 56314285
L119819285 56123809
L119819285 55980952
L119866904 55790476
L119914523 55695238
L120009761 55600000
L120152619 55552380
L120247857 55552380
L120390714 55600000
L120438333 55647619
" />
<path d="M121390714 56552380
L120819285 56552380
" />
<path d="M121105000 56552380
L121105000 55552380
L121009761 55695238
L120914523 55790476
L120819285 55838095
" />
</g></g>
<g style="fill:#000000; fill-opacity:0.0; 
stroke:#000000; stroke-width:120000.000000; stroke-opacity:1; 
stroke-linecap:round; stroke-linejoin:round;">
<path d="M167942500 54910000
L167942500 75490000
" />
<path d="M167942500 67250000
L166632500 67250000
" />
<path d="M160132500 74190000
L160132500 56210000
" />
<path d="M169332500 70780000
L169332500 69780000
" />
<path d="M160132500 56210000
L166632500 56210000
" />
</g>
<g style="fill:#000000; fill-opacity:1.0; 
stroke:#000000; stroke-width:1.000000; stroke-opacity:1; 
stroke-linecap:round; stroke-linejoin:round;">
<circle cx="166632500.000000" cy="63150000.000000" r="60000.000000" /> 
</g>
<g style="fill:#000000; fill-opacity:1.0; 
stroke:#000000; stroke-width:120000.000000; stroke-opacity:1; 
stroke-linecap:round; stroke-linejoin:round;">
</g>
<g style="fill:#000000; fill-opacity:0.0; 
stroke:#000000; stroke-width:120000.000000; stroke-opacity:1; 
stroke-linecap:round; stroke-linejoin:round;">
<path d="M166632500 74190000
L160132500 74190000
" />
<path d="M166632500 63150000
L167942500 63150000
" />
<path d="M168332500 70280000
L169332500 70780000
" />
<path d="M158822500 54910000
L167942500 54910000
" />
<path d="M166632500 67250000
L166632500 74190000
" />
<path d="M166632500 56210000
L166632500 63150000
" />
<path d="M169332500 69780000
L168332500 70280000
" />
<path d="M158822500 75490000
L158822500 54910000
" />
<path d="M167942500 75490000
L158822500 75490000
" />
<path d="M179442500 54810000
L179442500 75390000
" />
<path d="M179442500 67150000
L178132500 67150000
" />
<path d="M171632500 74090000
L171632500 56110000
" />
<path d="M180832500 70680000
L180832500 69680000
" />
<path d="M171632500 56110000
L178132500 56110000
" />
</g>
<g style="fill:#000000; fill-opacity:1.0; 
stroke:#000000; stroke-width:1.000000; stroke-opacity:1; 
stroke-linecap:round; stroke-linejoin:round;">
<circle cx="178132500.000000" cy="63050000.000000" r="60000.000000" /> 
</g>
<g style="fill:#000000; fill-opacity:1.0; 
stroke:#000000; stroke-width:120000.000000; stroke-opacity:1; 
stroke-linecap:round; stroke-linejoin:round;">
</g>
<g style="fill:#000000; fill-opacity:0.0; 
stroke:#000000; stroke-width:120000.000000; stroke-opacity:1; 
stroke-linecap:round; stroke-linejoin:round;">
<path d="M178132500 74090000
L171632500 74090000
" />
<path d="M178132500 63050000
L179442500 63050000
" />
<path d="M179832500 70180000
L180832500 70680000
" />
<path d="M170322500 54810000
L179442500 54810000
" />
<path d="M178132500 67150000
L178132500 74090000
" />
<path d="M178132500 56110000
L178132500 63050000
" />
<path d="M180832500 69680000
L179832500 70180000
" />
<path d="M170322500 75390000
L170322500 54810000
" />
<path d="M179442500 75390000
L170322500 75390000
" />
<path d="M144642500 75390000
L135522500 75390000
" />
<path d="M135522500 75390000
L135522500 54810000
" />
<path d="M146032500 69680000
L145032500 70180000
" />
<path d="M143332500 56110000
L143332500 63050000
" />
<path d="M143332500 67150000
L143332500 74090000
" />
<path d="M135522500 54810000
L144642500 54810000
" />
<path d="M145032500 70180000
L146032500 70680000
" />
<path d="M143332500 63050000
L144642500 63050000
" />
<path d="M143332500 74090000
L136832500 74090000
" />
</g>
<g style="fill:#000000; fill-opacity:1.0; 
stroke:#000000; stroke-width:1.000000; stroke-opacity:1; 
stroke-linecap:round; stroke-linejoin:round;">
<circle cx="143332500.000000" cy="63050000.000000" r="60000.000000" /> 
</g>
<g style="fill:#000000; fill-opacity:1.0; 
stroke:#000000; stroke-width:120000.000000; stroke-opacity:1; 
stroke-linecap:round; stroke-linejoin:round;">
</g>
<g style="fill:#000000; fill-opacity:0.0; 
stroke:#000000; stroke-width:120000.000000; stroke-opacity:1; 
stroke-linecap:round; stroke-linejoin:round;">
<path d="M136832500 56110000
L143332500 56110000
" />
<path d="M146032500 70680000
L146032500 69680000
" />
<path d="M136832500 74090000
L136832500 56110000
" />
<path d="M144642500 67150000
L143332500 67150000
" />
<path d="M144642500 54810000
L144642500 75390000
" />
<path d="M116142500 54710000
L116142500 75290000
" />
<path d="M116142500 67050000
L114832500 67050000
" />
<path d="M108332500 73990000
L108332500 56010000
" />
<path d="M117532500 70580000
L117532500 69580000
" />
<path d="M108332500 56010000
L114832500 56010000
" />
</g>
<g style="fill:#000000; fill-opacity:1.0; 
stroke:#000000; stroke-width:1.000000; stroke-opacity:1; 
stroke-linecap:round; stroke-linejoin:round;">
<circle cx="114832500.000000" cy="62950000.000000" r="60000.000000" /> 
</g>
<g style="fill:#000000; fill-opacity:1.0; 
stroke:#000000; stroke-width:120000.000000; stroke-opacity:1; 
stroke-linecap:round; stroke-linejoin:round;">
</g>
<g style="fill:#000000; fill-opacity:0.0; 
stroke:#000000; stroke-width:120000.000000; stroke-opacity:1; 
stroke-linecap:round; stroke-linejoin:round;">
<path d="M114832500 73990000
L108332500 73990000
" />
<path d="M114832500 62950000
L116142500 62950000
" />
<path d="M116532500 70080000
L117532500 70580000
" />
<path d="M107022500 54710000
L116142500 54710000
" />
<path d="M114832500 67050000
L114832500 73990000
" />
<path d="M114832500 56010000
L114832500 62950000
" />
<path d="M117532500 69580000
L116532500 70080000
" />
<path d="M107022500 75290000
L107022500 54710000
" />
<path d="M116142500 75290000
L107022500 75290000
" />
<path d="M202495000 75570000
L193375000 75570000
" />
<path d="M193375000 75570000
L193375000 54990000
" />
<path d="M203885000 69860000
L202885000 70360000
" />
<path d="M201185000 56290000
L201185000 63230000
" />
<path d="M201185000 67330000
L201185000 74270000
" />
<path d="M193375000 54990000
L202495000 54990000
" />
<path d="M202885000 70360000
L203885000 70860000
" />
<path d="M201185000 63230000
L202495000 63230000
" />
<path d="M201185000 74270000
L194685000 74270000
" />
</g>
<g style="fill:#000000; fill-opacity:1.0; 
stroke:#000000; stroke-width:1.000000; stroke-opacity:1; 
stroke-linecap:round; stroke-linejoin:round;">
<circle cx="201185000.000000" cy="63230000.000000" r="60000.000000" /> 
</g>
<g style="fill:#000000; fill-opacity:1.0; 
stroke:#000000; stroke-width:120000.000000; stroke-opacity:1; 
stroke-linecap:round; stroke-linejoin:round;">
</g>
<g style="fill:#000000; fill-opacity:0.0; 
stroke:#000000; stroke-width:120000.000000; stroke-opacity:1; 
stroke-linecap:round; stroke-linejoin:round;">
<path d="M194685000 56290000
L201185000 56290000
" />
<path d="M203885000 70860000
L203885000 69860000
" />
<path d="M194685000 74270000
L194685000 56290000
" />
<path d="M202495000 67330000
L201185000 67330000
" />
<path d="M202495000 54990000
L202495000 75570000
" />
<path d="M58742500 54810000
L58742500 75390000
" />
<path d="M58742500 67150000
L57432500 67150000
" />
<path d="M50932500 74090000
L50932500 56110000
" />
<path d="M60132500 70680000
L60132500 69680000
" />
<path d="M50932500 56110000
L57432500 56110000
" />
</g>
<g style="fill:#000000; fill-opacity:1.0; 
stroke:#000000; stroke-width:1.000000; stroke-opacity:1; 
stroke-linecap:round; stroke-linejoin:round;">
<circle cx="57432500.000000" cy="63050000.000000" r="60000.000000" /> 
</g>
<g style="fill:#000000; fill-opacity:1.0; 
stroke:#000000; stroke-width:120000.000000; stroke-opacity:1; 
stroke-linecap:round; stroke-linejoin:round;">
</g>
<g style="fill:#000000; fill-opacity:0.0; 
stroke:#000000; stroke-width:120000.000000; stroke-opacity:1; 
stroke-linecap:round; stroke-linejoin:round;">
<path d="M57432500 74090000
L50932500 74090000
" />
<path d="M57432500 63050000
L58742500 63050000
" />
<path d="M59132500 70180000
L60132500 70680000
" />
<path d="M49622500 54810000
L58742500 54810000
" />
<path d="M57432500 67150000
L57432500 74090000
" />
<path d="M57432500 56110000
L57432500 63050000
" />
<path d="M60132500 69680000
L59132500 70180000
" />
<path d="M49622500 75390000
L49622500 54810000
" />
<path d="M58742500 75390000
L49622500 75390000
" />
<path d="M104542500 54710000
L104542500 75290000
" />
<path d="M104542500 67050000
L103232500 67050000
" />
<path d="M96732500 73990000
L96732500 56010000
" />
<path d="M105932500 70580000
L105932500 69580000
" />
<path d="M96732500 56010000
L103232500 56010000
" />
</g>
<g style="fill:#000000; fill-opacity:1.0; 
stroke:#000000; stroke-width:1.000000; stroke-opacity:1; 
stroke-linecap:round; stroke-linejoin:round;">
<circle cx="103232500.000000" cy="62950000.000000" r="60000.000000" /> 
</g>
<g style="fill:#000000; fill-opacity:1.0; 
stroke:#000000; stroke-width:120000.000000; stroke-opacity:1; 
stroke-linecap:round; stroke-linejoin:round;">
</g>
<g style="fill:#000000; fill-opacity:0.0; 
stroke:#000000; stroke-width:120000.000000; stroke-opacity:1; 
stroke-linecap:round; stroke-linejoin:round;">
<path d="M103232500 73990000
L96732500 73990000
" />
<path d="M103232500 62950000
L104542500 62950000
" />
<path d="M104932500 70080000
L105932500 70580000
" />
<path d="M95422500 54710000
L104542500 54710000
" />
<path d="M103232500 67050000
L103232500 73990000
" />
<path d="M103232500 56010000
L103232500 62950000
" />
<path d="M105932500 69580000
L104932500 70080000
" />
<path d="M95422500 75290000
L95422500 54710000
" />
<path d="M104542500 75290000
L95422500 75290000
" />
<path d="M118050000 65540000
L118550000 65290000
" />
<path d="M118050000 70440000
L118050000 75490000
" />
<path d="M118550000 65290000
L118550000 70690000
" />
<path d="M118550000 63840000
L118050000 63540000
" />
<path d="M133950000 75490000
L133950000 62890000
" />
<path d="M118550000 70690000
L118050000 70440000
" />
<path d="M118050000 75490000
L133950000 75490000
" />
<path d="M133950000 62890000
L118550000 62890000
" />
<path d="M118050000 63540000
L118050000 65540000
" />
<path d="M118550000 62890000
L118550000 63840000
" />
<path d="M190942500 75390000
L181822500 75390000
" />
<path d="M181822500 75390000
L181822500 54810000
" />
<path d="M192332500 69680000
L191332500 70180000
" />
<path d="M189632500 56110000
L189632500 63050000
" />
<path d="M189632500 67150000
L189632500 74090000
" />
<path d="M181822500 54810000
L190942500 54810000
" />
<path d="M191332500 70180000
L192332500 70680000
" />
<path d="M189632500 63050000
L190942500 63050000
" />
<path d="M189632500 74090000
L183132500 74090000
" />
</g>
<g style="fill:#000000; fill-opacity:1.0; 
stroke:#000000; stroke-width:1.000000; stroke-opacity:1; 
stroke-linecap:round; stroke-linejoin:round;">
<circle cx="189632500.000000" cy="63050000.000000" r="60000.000000" /> 
</g>
<g style="fill:#000000; fill-opacity:1.0; 
stroke:#000000; stroke-width:120000.000000; stroke-opacity:1; 
stroke-linecap:round; stroke-linejoin:round;">
</g>
<g style="fill:#000000; fill-opacity:0.0; 
stroke:#000000; stroke-width:120000.000000; stroke-opacity:1; 
stroke-linecap:round; stroke-linejoin:round;">
<path d="M183132500 56110000
L189632500 56110000
" />
<path d="M192332500 70680000
L192332500 69680000
" />
<path d="M183132500 74090000
L183132500 56110000
" />
<path d="M190942500 67150000
L189632500 67150000
" />
<path d="M190942500 54810000
L190942500 75390000
" />
<path d="M131654724 60822500
L131145276 60822500
" />
<path d="M131654724 59777500
L131145276 59777500
" />
<path d="M131654724 62422500
L131145276 62422500
" />
<path d="M131654724 61377500
L131145276 61377500
" />
<path d="M132140000 59460000
L134060000 59460000
" />
<path d="M132140000 56600000
L132140000 59460000
" />
<path d="M134060000 59460000
L134060000 56600000
" />
<path d="M131660000 55740000
L129740000 55740000
" />
<path d="M131660000 58600000
L131660000 55740000
" />
<path d="M129740000 55740000
L129740000 58600000
" />
<path d="M93042500 54710000
L93042500 75290000
" />
<path d="M93042500 67050000
L91732500 67050000
" />
<path d="M85232500 73990000
L85232500 56010000
" />
<path d="M94432500 70580000
L94432500 69580000
" />
<path d="M85232500 56010000
L91732500 56010000
" />
</g>
<g style="fill:#000000; fill-opacity:1.0; 
stroke:#000000; stroke-width:1.000000; stroke-opacity:1; 
stroke-linecap:round; stroke-linejoin:round;">
<circle cx="91732500.000000" cy="62950000.000000" r="60000.000000" /> 
</g>
<g style="fill:#000000; fill-opacity:1.0; 
stroke:#000000; stroke-width:120000.000000; stroke-opacity:1; 
stroke-linecap:round; stroke-linejoin:round;">
</g>
<g style="fill:#000000; fill-opacity:0.0; 
stroke:#000000; stroke-width:120000.000000; stroke-opacity:1; 
stroke-linecap:round; stroke-linejoin:round;">
<path d="M91732500 73990000
L85232500 73990000
" />
<path d="M91732500 62950000
L93042500 62950000
" />
<path d="M93432500 70080000
L94432500 70580000
" />
<path d="M83922500 54710000
L93042500 54710000
" />
<path d="M91732500 67050000
L91732500 73990000
" />
<path d="M91732500 56010000
L91732500 62950000
" />
<path d="M94432500 69580000
L93432500 70080000
" />
<path d="M83922500 75290000
L83922500 54710000
" />
<path d="M93042500 75290000
L83922500 75290000
" />
<path d="M47442500 54810000
L47442500 75390000
" />
<path d="M47442500 67150000
L46132500 67150000
" />
<path d="M39632500 74090000
L39632500 56110000
" />
<path d="M48832500 70680000
L48832500 69680000
" />
<path d="M39632500 56110000
L46132500 56110000
" />
</g>
<g style="fill:#000000; fill-opacity:1.0; 
stroke:#000000; stroke-width:1.000000; stroke-opacity:1; 
stroke-linecap:round; stroke-linejoin:round;">
<circle cx="46132500.000000" cy="63050000.000000" r="60000.000000" /> 
</g>
<g style="fill:#000000; fill-opacity:1.0; 
stroke:#000000; stroke-width:120000.000000; stroke-opacity:1; 
stroke-linecap:round; stroke-linejoin:round;">
</g>
<g style="fill:#000000; fill-opacity:0.0; 
stroke:#000000; stroke-width:120000.000000; stroke-opacity:1; 
stroke-linecap:round; stroke-linejoin:round;">
<path d="M46132500 74090000
L39632500 74090000
" />
<path d="M46132500 63050000
L47442500 63050000
" />
<path d="M47832500 70180000
L48832500 70680000
" />
<path d="M38322500 54810000
L47442500 54810000
" />
<path d="M46132500 67150000
L46132500 74090000
" />
<path d="M46132500 56110000
L46132500 63050000
" />
<path d="M48832500 69680000
L47832500 70180000
" />
<path d="M38322500 75390000
L38322500 54810000
" />
<path d="M47442500 75390000
L38322500 75390000
" />
<path d="M81542500 54710000
L81542500 75290000
" />
<path d="M81542500 67050000
L80232500 67050000
" />
<path d="M73732500 73990000
L73732500 56010000
" />
<path d="M82932500 70580000
L82932500 69580000
" />
<path d="M73732500 56010000
L80232500 56010000
" />
</g>
<g style="fill:#000000; fill-opacity:1.0; 
stroke:#000000; stroke-width:1.000000; stroke-opacity:1; 
stroke-linecap:round; stroke-linejoin:round;">
<circle cx="80232500.000000" cy="62950000.000000" r="60000.000000" /> 
</g>
<g style="fill:#000000; fill-opacity:1.0; 
stroke:#000000; stroke-width:120000.000000; stroke-opacity:1; 
stroke-linecap:round; stroke-linejoin:round;">
</g>
<g style="fill:#000000; fill-opacity:0.0; 
stroke:#000000; stroke-width:120000.000000; stroke-opacity:1; 
stroke-linecap:round; stroke-linejoin:round;">
<path d="M80232500 73990000
L73732500 73990000
" />
<path d="M80232500 62950000
L81542500 62950000
" />
<path d="M81932500 70080000
L82932500 70580000
" />
<path d="M72422500 54710000
L81542500 54710000
" />
<path d="M80232500 67050000
L80232500 73990000
" />
<path d="M80232500 56010000
L80232500 62950000
" />
<path d="M82932500 69580000
L81932500 70080000
" />
<path d="M72422500 75290000
L72422500 54710000
" />
<path d="M81542500 75290000
L72422500 75290000
" />
<path d="M156242500 75390000
L147122500 75390000
" />
<path d="M147122500 75390000
L147122500 54810000
" />
<path d="M157632500 69680000
L156632500 70180000
" />
<path d="M154932500 56110000
L154932500 63050000
" />
<path d="M154932500 67150000
L154932500 74090000
" />
<path d="M147122500 54810000
L156242500 54810000
" />
<path d="M156632500 70180000
L157632500 70680000
" />
<path d="M154932500 63050000
L156242500 63050000
" />
<path d="M154932500 74090000
L148432500 74090000
" />
</g>
<g style="fill:#000000; fill-opacity:1.0; 
stroke:#000000; stroke-width:1.000000; stroke-opacity:1; 
stroke-linecap:round; stroke-linejoin:round;">
<circle cx="154932500.000000" cy="63050000.000000" r="60000.000000" /> 
</g>
<g style="fill:#000000; fill-opacity:1.0; 
stroke:#000000; stroke-width:120000.000000; stroke-opacity:1; 
stroke-linecap:round; stroke-linejoin:round;">
</g>
<g style="fill:#000000; fill-opacity:0.0; 
stroke:#000000; stroke-width:120000.000000; stroke-opacity:1; 
stroke-linecap:round; stroke-linejoin:round;">
<path d="M148432500 56110000
L154932500 56110000
" />
<path d="M157632500 70680000
L157632500 69680000
" />
<path d="M148432500 74090000
L148432500 56110000
" />
<path d="M156242500 67150000
L154932500 67150000
" />
<path d="M156242500 54810000
L156242500 75390000
" />
<path d="M70142500 54810000
L70142500 75390000
" />
<path d="M70142500 67150000
L68832500 67150000
" />
<path d="M62332500 74090000
L62332500 56110000
" />
<path d="M71532500 70680000
L71532500 69680000
" />
<path d="M62332500 56110000
L68832500 56110000
" />
</g>
<g style="fill:#000000; fill-opacity:1.0; 
stroke:#000000; stroke-width:1.000000; stroke-opacity:1; 
stroke-linecap:round; stroke-linejoin:round;">
<circle cx="68832500.000000" cy="63050000.000000" r="60000.000000" /> 
</g>
<g style="fill:#000000; fill-opacity:1.0; 
stroke:#000000; stroke-width:120000.000000; stroke-opacity:1; 
stroke-linecap:round; stroke-linejoin:round;">
</g>
<g style="fill:#000000; fill-opacity:0.0; 
stroke:#000000; stroke-width:120000.000000; stroke-opacity:1; 
stroke-linecap:round; stroke-linejoin:round;">
<path d="M68832500 74090000
L62332500 74090000
" />
<path d="M68832500 63050000
L70142500 63050000
" />
<path d="M70532500 70180000
L71532500 70680000
" />
<path d="M61022500 54810000
L70142500 54810000
" />
<path d="M68832500 67150000
L68832500 74090000
" />
<path d="M68832500 56110000
L68832500 63050000
" />
<path d="M71532500 69680000
L70532500 70180000
" />
<path d="M61022500 75390000
L61022500 54810000
" />
<path d="M70142500 75390000
L61022500 75390000
" />
<path d="M214195000 75470000
L205075000 75470000
" />
<path d="M205075000 75470000
L205075000 54890000
" />
<path d="M215585000 69760000
L214585000 70260000
" />
<path d="M212885000 56190000
L212885000 63130000
" />
<path d="M212885000 67230000
L212885000 74170000
" />
<path d="M205075000 54890000
L214195000 54890000
" />
<path d="M214585000 70260000
L215585000 70760000
" />
<path d="M212885000 63130000
L214195000 63130000
" />
<path d="M212885000 74170000
L206385000 74170000
" />
</g>
<g style="fill:#000000; fill-opacity:1.0; 
stroke:#000000; stroke-width:1.000000; stroke-opacity:1; 
stroke-linecap:round; stroke-linejoin:round;">
<circle cx="212885000.000000" cy="63130000.000000" r="60000.000000" /> 
</g>
<g style="fill:#000000; fill-opacity:1.0; 
stroke:#000000; stroke-width:120000.000000; stroke-opacity:1; 
stroke-linecap:round; stroke-linejoin:round;">
</g>
<g style="fill:#000000; fill-opacity:0.0; 
stroke:#000000; stroke-width:120000.000000; stroke-opacity:1; 
stroke-linecap:round; stroke-linejoin:round;">
<path d="M206385000 56190000
L212885000 56190000
" />
<path d="M215585000 70760000
L215585000 69760000
" />
<path d="M206385000 74170000
L206385000 56190000
" />
<path d="M214195000 67230000
L212885000 67230000
" />
<path d="M214195000 54890000
L214195000 75470000
" />
<path d="M125465000 61485888
L124679000 61485888
" />
<path d="M128331000 61485888
L127545000 61485888
" />
<path d="M125465000 61445888
L124641000 61445888
" />
<path d="M128369000 61445888
L127545000 61445888
" />
<path d="M125465000 61405888
L124604000 61405888
" />
<path d="M128406000 61405888
L127545000 61405888
" />
<path d="M127603000 62005888
L125407000 62005888
" />
<path d="M125465000 61725888
L124951000 61725888
" />
<path d="M128059000 61725888
L127545000 61725888
" />
<path d="M127516000 62045888
L125494000 62045888
" />
<path d="M127824000 61885888
L127545000 61885888
" />
<path d="M127756000 61925888
L127545000 61925888
" />
<path d="M127420000 62085888
L125590000 62085888
" />
<path d="M125465000 61685888
L124900000 61685888
" />
<path d="M128110000 61685888
L127545000 61685888
" />
<path d="M125465000 61085888
L124356000 61085888
" />
<path d="M128654000 61085888
L127545000 61085888
" />
<path d="M125465000 61045888
L124330000 61045888
" />
<path d="M128680000 61045888
L127545000 61045888
" />
<path d="M125465000 61005888
L124305000 61005888
" />
<path d="M128705000 61005888
L127545000 61005888
" />
<path d="M125465000 60965888
L124281000 60965888
" />
<path d="M125465000 61765888
L125005000 61765888
" />
<path d="M128005000 61765888
L127545000 61765888
" />
<path d="M129083000 59764888
L123927000 59764888
" />
<path d="M129084000 59724888
L123926000 59724888
" />
<path d="M129085000 59684888
L123925000 59684888
" />
<path d="M129085000 59644888
L123925000 59644888
" />
<circle cx="126505000.000000" cy="59644888.000000" r="2620000.000000" /> 
<path d="M127683000 61965888
L125327000 61965888
" />
<path d="M127980000 56840113
L127980000 57340113
" />
<path d="M128230000 57090113
L127730000 57090113
" />
<path d="M126789000 62245888
L126221000 62245888
" />
<path d="M125465000 61565888
L124762000 61565888
" />
<path d="M128248000 61565888
L127545000 61565888
" />
<path d="M125465000 61525888
L124720000 61525888
" />
<path d="M128290000 61525888
L127545000 61525888
" />
<path d="M125465000 61925888
L125254000 61925888
" />
<path d="M125465000 60525888
L124077000 60525888
" />
<path d="M128933000 60525888
L127545000 60525888
" />
<path d="M125465000 60485888
L124063000 60485888
" />
<path d="M128947000 60485888
L127545000 60485888
" />
<path d="M125465000 60445888
L124050000 60445888
" />
<path d="M128960000 60445888
L127545000 60445888
" />
<path d="M125465000 60405888
L124037000 60405888
" />
<path d="M127023000 62205888
L125987000 62205888
" />
<path d="M127182000 62165888
L125828000 62165888
" />
<path d="M127310000 62125888
L125700000 62125888
" />
<path d="M128870000 60685888
L127545000 60685888
" />
<path d="M125465000 60645888
L124123000 60645888
" />
<path d="M128887000 60645888
L127545000 60645888
" />
<path d="M125465000 60605888
L124107000 60605888
" />
<path d="M128903000 60605888
L127545000 60605888
" />
<path d="M125465000 60565888
L124091000 60565888
" />
<path d="M128919000 60565888
L127545000 60565888
" />
<path d="M127888000 61845888
L127545000 61845888
" />
<path d="M125465000 60244888
L123994000 60244888
" />
<path d="M129016000 60244888
L127545000 60244888
" />
<path d="M125465000 60204888
L123985000 60204888
" />
<path d="M129025000 60204888
L127545000 60204888
" />
<path d="M125465000 60164888
L123977000 60164888
" />
<path d="M129033000 60164888
L127545000 60164888
" />
<path d="M125465000 60124888
L123969000 60124888
" />
<path d="M128540000 61245888
L127545000 61245888
" />
<path d="M125465000 61205888
L124440000 61205888
" />
<path d="M128570000 61205888
L127545000 61205888
" />
<path d="M125465000 61165888
L124410000 61165888
" />
<path d="M128600000 61165888
L127545000 61165888
" />
<path d="M125465000 61125888
L124383000 61125888
" />
<path d="M128627000 61125888
L127545000 61125888
" />
<path d="M125465000 61365888
L124568000 61365888
" />
<path d="M128442000 61365888
L127545000 61365888
" />
<path d="M125465000 61325888
L124534000 61325888
" />
<path d="M128476000 61325888
L127545000 61325888
" />
<path d="M125465000 61285888
L124501000 61285888
" />
<path d="M128509000 61285888
L127545000 61285888
" />
<path d="M125465000 61245888
L124470000 61245888
" />
<path d="M128973000 60405888
L127545000 60405888
" />
<path d="M125465000 60365888
L124025000 60365888
" />
<path d="M128985000 60365888
L127545000 60365888
" />
<path d="M125465000 60324888
L124014000 60324888
" />
<path d="M128996000 60324888
L127545000 60324888
" />
<path d="M125465000 60284888
L124004000 60284888
" />
<path d="M129006000 60284888
L127545000 60284888
" />
<path d="M129041000 60124888
L127545000 60124888
" />
<path d="M125465000 60084888
L123962000 60084888
" />
<path d="M129048000 60084888
L127545000 60084888
" />
<path d="M125465000 60044888
L123955000 60044888
" />
<path d="M129055000 60044888
L127545000 60044888
" />
<path d="M125465000 60004888
L123949000 60004888
" />
<path d="M129061000 60004888
L127545000 60004888
" />
<path d="M125465000 59964888
L123944000 59964888
" />
<path d="M129066000 59964888
L127545000 59964888
" />
<path d="M125465000 59924888
L123940000 59924888
" />
<path d="M129070000 59924888
L127545000 59924888
" />
<path d="M125465000 59884888
L123936000 59884888
" />
<path d="M129074000 59884888
L127545000 59884888
" />
<path d="M129078000 59844888
L123932000 59844888
" />
<path d="M129081000 59804888
L123929000 59804888
" />
<path d="M128729000 60965888
L127545000 60965888
" />
<path d="M125465000 60925888
L124258000 60925888
" />
<path d="M128752000 60925888
L127545000 60925888
" />
<path d="M125465000 60885888
L124237000 60885888
" />
<path d="M128773000 60885888
L127545000 60885888
" />
<path d="M125465000 60845888
L124215000 60845888
" />
<path d="M128795000 60845888
L127545000 60845888
" />
<path d="M125465000 61645888
L124852000 61645888
" />
<path d="M128158000 61645888
L127545000 61645888
" />
<path d="M125465000 61605888
L124806000 61605888
" />
<path d="M128204000 61605888
L127545000 61605888
" />
<path d="M125465000 60805888
L124195000 60805888
" />
<path d="M128815000 60805888
L127545000 60805888
" />
<path d="M125465000 60765888
L124176000 60765888
" />
<path d="M128834000 60765888
L127545000 60765888
" />
<path d="M125465000 60725888
L124157000 60725888
" />
<path d="M128853000 60725888
L127545000 60725888
" />
<path d="M125465000 60685888
L124140000 60685888
" />
<path d="M127948000 61805888
L127545000 61805888
" />
<path d="M125465000 61885888
L125186000 61885888
" />
<path d="M125465000 61845888
L125122000 61845888
" />
<path d="M125465000 61805888
L125062000 61805888
" />
<path d="M121645000 57779452
L122431000 57779452
" />
<path d="M118779000 57779452
L119565000 57779452
" />
<path d="M121645000 57819452
L122469000 57819452
" />
<path d="M118741000 57819452
L119565000 57819452
" />
<path d="M121645000 57859452
L122506000 57859452
" />
<path d="M118704000 57859452
L119565000 57859452
" />
<path d="M119507000 57259452
L121703000 57259452
" />
<path d="M121645000 57539452
L122159000 57539452
" />
<path d="M119051000 57539452
L119565000 57539452
" />
<path d="M119594000 57219452
L121616000 57219452
" />
<path d="M119286000 57379452
L119565000 57379452
" />
<path d="M119354000 57339452
L119565000 57339452
" />
<path d="M119690000 57179452
L121520000 57179452
" />
<path d="M121645000 57579452
L122210000 57579452
" />
<path d="M119000000 57579452
L119565000 57579452
" />
<path d="M121645000 58179452
L122754000 58179452
" />
<path d="M118456000 58179452
L119565000 58179452
" />
<path d="M121645000 58219452
L122780000 58219452
" />
<path d="M118430000 58219452
L119565000 58219452
" />
<path d="M121645000 58259452
L122805000 58259452
" />
<path d="M118405000 58259452
L119565000 58259452
" />
<path d="M121645000 58299452
L122829000 58299452
" />
<path d="M121645000 57499452
L122105000 57499452
" />
<path d="M119105000 57499452
L119565000 57499452
" />
<path d="M118027000 59500452
L123183000 59500452
" />
<path d="M118026000 59540452
L123184000 59540452
" />
<path d="M118025000 59580452
L123185000 59580452
" />
<path d="M118025000 59620452
L123185000 59620452
" />
<circle cx="120605000.000000" cy="59620452.000000" r="2620000.000000" /> 
<path d="M119427000 57299452
L121783000 57299452
" />
<path d="M119130000 62425227
L119130000 61925227
" />
<path d="M118880000 62175227
L119380000 62175227
" />
<path d="M120321000 57019452
L120889000 57019452
" />
<path d="M121645000 57699452
L122348000 57699452
" />
<path d="M118862000 57699452
L119565000 57699452
" />
<path d="M121645000 57739452
L122390000 57739452
" />
<path d="M118820000 57739452
L119565000 57739452
" />
<path d="M121645000 57339452
L121856000 57339452
" />
<path d="M121645000 58739452
L123033000 58739452
" />
<path d="M118177000 58739452
L119565000 58739452
" />
<path d="M121645000 58779452
L123047000 58779452
" />
<path d="M118163000 58779452
L119565000 58779452
" />
<path d="M121645000 58819452
L123060000 58819452
" />
<path d="M118150000 58819452
L119565000 58819452
" />
<path d="M121645000 58859452
L123073000 58859452
" />
<path d="M120087000 57059452
L121123000 57059452
" />
<path d="M119928000 57099452
L121282000 57099452
" />
<path d="M119800000 57139452
L121410000 57139452
" />
<path d="M118240000 58579452
L119565000 58579452
" />
<path d="M121645000 58619452
L122987000 58619452
" />
<path d="M118223000 58619452
L119565000 58619452
" />
<path d="M121645000 58659452
L123003000 58659452
" />
<path d="M118207000 58659452
L119565000 58659452
" />
<path d="M121645000 58699452
L123019000 58699452
" />
<path d="M118191000 58699452
L119565000 58699452
" />
<path d="M119222000 57419452
L119565000 57419452
" />
<path d="M121645000 59020452
L123116000 59020452
" />
<path d="M118094000 59020452
L119565000 59020452
" />
<path d="M121645000 59060452
L123125000 59060452
" />
<path d="M118085000 59060452
L119565000 59060452
" />
<path d="M121645000 59100452
L123133000 59100452
" />
<path d="M118077000 59100452
L119565000 59100452
" />
<path d="M121645000 59140452
L123141000 59140452
" />
<path d="M118570000 58019452
L119565000 58019452
" />
<path d="M121645000 58059452
L122670000 58059452
" />
<path d="M118540000 58059452
L119565000 58059452
" />
<path d="M121645000 58099452
L122700000 58099452
" />
<path d="M118510000 58099452
L119565000 58099452
" />
<path d="M121645000 58139452
L122727000 58139452
" />
<path d="M118483000 58139452
L119565000 58139452
" />
<path d="M121645000 57899452
L122542000 57899452
" />
<path d="M118668000 57899452
L119565000 57899452
" />
<path d="M121645000 57939452
L122576000 57939452
" />
<path d="M118634000 57939452
L119565000 57939452
" />
<path d="M121645000 57979452
L122609000 57979452
" />
<path d="M118601000 57979452
L119565000 57979452
" />
<path d="M121645000 58019452
L122640000 58019452
" />
<path d="M118137000 58859452
L119565000 58859452
" />
<path d="M121645000 58899452
L123085000 58899452
" />
<path d="M118125000 58899452
L119565000 58899452
" />
<path d="M121645000 58940452
L123096000 58940452
" />
<path d="M118114000 58940452
L119565000 58940452
" />
<path d="M121645000 58980452
L123106000 58980452
" />
<path d="M118104000 58980452
L119565000 58980452
" />
<path d="M118069000 59140452
L119565000 59140452
" />
<path d="M121645000 59180452
L123148000 59180452
" />
<path d="M118062000 59180452
L119565000 59180452
" />
<path d="M121645000 59220452
L123155000 59220452
" />
<path d="M118055000 59220452
L119565000 59220452
" />
<path d="M121645000 59260452
L123161000 59260452
" />
<path d="M118049000 59260452
L119565000 59260452
" />
<path d="M121645000 59300452
L123166000 59300452
" />
<path d="M118044000 59300452
L119565000 59300452
" />
<path d="M121645000 59340452
L123170000 59340452
" />
<path d="M118040000 59340452
L119565000 59340452
" />
<path d="M121645000 59380452
L123174000 59380452
" />
<path d="M118036000 59380452
L119565000 59380452
" />
<path d="M118032000 59420452
L123178000 59420452
" />
<path d="M118029000 59460452
L123181000 59460452
" />
<path d="M118381000 58299452
L119565000 58299452
" />
<path d="M121645000 58339452
L122852000 58339452
" />
<path d="M118358000 58339452
L119565000 58339452
" />
<path d="M121645000 58379452
L122873000 58379452
" />
<path d="M118337000 58379452
L119565000 58379452
" />
<path d="M121645000 58419452
L122895000 58419452
" />
<path d="M118315000 58419452
L119565000 58419452
" />
<path d="M121645000 57619452
L122258000 57619452
" />
<path d="M118952000 57619452
L119565000 57619452
" />
<path d="M121645000 57659452
L122304000 57659452
" />
<path d="M118906000 57659452
L119565000 57659452
" />
<path d="M121645000 58459452
L122915000 58459452
" />
<path d="M118295000 58459452
L119565000 58459452
" />
<path d="M121645000 58499452
L122934000 58499452
" />
<path d="M118276000 58499452
L119565000 58499452
" />
<path d="M121645000 58539452
L122953000 58539452
" />
<path d="M118257000 58539452
L119565000 58539452
" />
<path d="M121645000 58579452
L122970000 58579452
" />
<path d="M119162000 57459452
L119565000 57459452
" />
<path d="M121645000 57379452
L121924000 57379452
" />
<path d="M121645000 57419452
L121988000 57419452
" />
<path d="M121645000 57459452
L122048000 57459452
" />
<g >
</g>
<g >
</g>
<g >
</g>
<g >
</g>
<g >
</g>
<g >
</g>
<g >
</g>
<g >
</g>
<g >
</g>
<g >
</g>
<g >
</g>
<g >
</g>
<g >
</g>
<g >
</g>
<g >
</g>
<g >
</g>
<g >
</g>
<g >
</g>
<g >
</g>
<g >
</g>
<g >
</g>
<g >
</g>
<g >
</g>
<g >
</g>
<g >
</g>
<g >
</g>
<g >
</g>
<g >
</g>
<g >
</g>
<g >
</g>
</g> 
</svg>
