<?xml version="1.0" standalone="no"?>
 <!DOCTYPE svg PUBLIC "-//W3C//DTD SVG 1.1//EN" 
 "http://www.w3.org/Graphics/SVG/1.1/DTD/svg11.dtd"> 
<svg
  xmlns:svg="http://www.w3.org/2000/svg"
  xmlns="http://www.w3.org/2000/svg"
  xmlns:xlink="http://www.w3.org/1999/xlink"
  version="1.1"
  width="29.700220cm" height="21.000720cm" viewBox="0 0 297002200 210007200">
<title>SVG Picture created as EuroPowerBoard-Edge_Cuts.svg date 2023/04/21 10:51:52 </title>
  <desc>Picture generated by PCBNEW </desc>
<g style="fill:#000000; fill-opacity:1.000000;stroke:#000000; stroke-opacity:1.000000;
stroke-linecap:round; stroke-linejoin:round;"
 transform="translate(0 0) scale(1 1)">
</g>
<g style="fill:#000000; fill-opacity:0.0; 
stroke:#000000; stroke-width:0.000000; stroke-opacity:1; 
stroke-linecap:round; stroke-linejoin:round;">
</g>
<g style="fill:#000000; fill-opacity:0.0; 
stroke:#000000; stroke-width:100000.000000; stroke-opacity:1; 
stroke-linecap:round; stroke-linejoin:round;">
<path d="M136500000 46000000
L143000000 46000000
" />
<path d="M48500001 51999999
L133000000 52000000
" />
<path d="M39000000 46000000
L44500001 45999999
" />
<path d="M46500001.000000 49999999.000000 A1999999.000000 1999999.000000 0.0 0 0 48500001.000000 51999999.000000" />
<path d="M46500001 47999999
L46500001 49999999
" />
<path d="M46500001.000000 47999999.000000 A1999999.000000 1999999.000000 0.0 0 0 44500001.000000 45999999.000000" />
<path d="M145000000 48000000
L145000000 50000000
" />
<path d="M145000000.000000 48000000.000000 A1999999.000000 1999999.000000 0.0 0 0 143000000.000000 46000000.000000" />
<path d="M145000000.000000 50000000.000000 A1999999.000000 1999999.000000 0.0 0 0 147000000.000000 52000000.000000" />
<path d="M205000000 52000000
L147000000 52000000
" />
<path d="M205000000.000000 52000000.000000 A1999999.000000 1999999.000000 0.0 0 0 207000000.000000 50000000.000000" />
<path d="M208500000.000000 46000000.000000 A1500000.000000 1500000.000000 0.0 0 0 207000000.000000 47500000.000000" />
<path d="M207000000 47500000
L207000000 50000000
" />
<path d="M133000000.000000 52000000.000000 A1999999.000000 1999999.000000 0.0 0 0 135000000.000000 50000000.000000" />
<path d="M136500000.000000 46000000.000000 A1500000.000000 1500000.000000 0.0 0 0 135000000.000000 47500000.000000" />
<path d="M135000000 47500000
L135000000 50000000
" />
<path d="M215000000 86000000
L209500000 86000000
" />
<path d="M207500000.000000 84000000.000000 A2000000.000000 2000000.000000 0.0 0 0 209500000.000000 86000000.000000" />
<path d="M207500000.000000 82000000.000000 A2000000.000000 2000000.000000 0.0 0 0 205500000.000000 80000000.000000" />
<path d="M114000000.000000 86000000.000000 A2000000.000000 2000000.000000 0.0 0 0 116000000.000000 84000000.000000" />
<path d="M117500000.000000 80000000.000000 A1500000.000000 1500000.000000 0.0 0 0 116000000.000000 81500000.000000" />
<path d="M207500000 84000000
L207500000 82000000
" />
<path d="M116000000 81500000
L116000000 84000000
" />
<path d="M114000000 86000000
L112250000 86000000
" />
<path d="M205500000 80000000
L117500000 80000000
" />
<path d="M217000000.000000 48000000.000000 A2000000.000000 2000000.000000 0.0 0 0 215000000.000000 46000000.000000" />
<path d="M215000000.000000 86000000.000000 A2000000.000000 2000000.000000 0.0 0 0 217000000.000000 84000000.000000" />
<path d="M37000000.000000 84000000.000000 A2000000.000000 2000000.000000 0.0 0 0 39000000.000000 86000000.000000" />
<path d="M39000000.000000 46000000.000000 A2000000.000000 2000000.000000 0.0 0 0 37000000.000000 48000000.000000" />
<path d="M37000000 84000000
L37000000 48000000
" />
<path d="M112250000 86000000
L39000000 86000000
" />
<path d="M217000000 48000000
L217000000 84000000
" />
<path d="M208500000 46000000
L215000000 46000000
" />
<g >
</g>
<g >
</g>
<g >
</g>
<g >
</g>
<g >
</g>
<g >
</g>
<g >
</g>
<g >
</g>
<g >
</g>
<g >
</g>
<g >
</g>
<g >
</g>
<g >
</g>
<g >
</g>
<g >
</g>
<g >
</g>
<g >
</g>
<g >
</g>
<g >
</g>
<g >
</g>
<g >
</g>
<g >
</g>
<g >
</g>
<g >
</g>
<g >
</g>
<g >
</g>
<g >
</g>
<g >
</g>
<g >
</g>
<g >
</g>
</g> 
</svg>
