<?xml version="1.0" standalone="no"?>
 <!DOCTYPE svg PUBLIC "-//W3C//DTD SVG 1.1//EN" 
 "http://www.w3.org/Graphics/SVG/1.1/DTD/svg11.dtd"> 
<svg
  xmlns:svg="http://www.w3.org/2000/svg"
  xmlns="http://www.w3.org/2000/svg"
  xmlns:xlink="http://www.w3.org/1999/xlink"
  version="1.1"
  width="29.700220cm" height="21.000720cm" viewBox="0 0 297002200 210007200">
<title>SVG Picture created as EuroPowerBoard-F_Paste.svg date 2023/04/21 10:51:52 </title>
  <desc>Picture generated by PCBNEW </desc>
<g style="fill:#000000; fill-opacity:1.000000;stroke:#000000; stroke-opacity:1.000000;
stroke-linecap:round; stroke-linejoin:round;"
 transform="translate(0 0) scale(1 1)">
</g>
<g style="fill:#000000; fill-opacity:0.0; 
stroke:#000000; stroke-width:0.000000; stroke-opacity:1; 
stroke-linecap:round; stroke-linejoin:round;">
<g >
</g>
<g >
</g>
<g >
</g>
<g >
</g>
<g >
</g>
<g >
</g>
<g >
</g>
<g >
</g>
<g >
</g>
<g >
</g>
<g >
</g>
<g >
</g>
<g >
</g>
<g >
</g>
<g >
</g>
<g >
</g>
<g style="fill:#000000; fill-opacity:0.0; 
stroke:#000000; stroke-width:0.000000; stroke-opacity:1; 
stroke-linecap:round; stroke-linejoin:round;">
</g>
<g style="fill:#000000; fill-opacity:0.0; 
stroke:#000000; stroke-width:1.000000; stroke-opacity:1; 
stroke-linecap:round; stroke-linejoin:round;">
</g>
<g style="fill:#000000; fill-opacity:1.0; 
stroke:#000000; stroke-width:1.000000; stroke-opacity:1; 
stroke-linecap:round; stroke-linejoin:round;">
<path style="fill:#000000; fill-opacity:1.0; 
stroke:#000000; stroke-width:1.000000; stroke-opacity:1; 
stroke-linecap:round; stroke-linejoin:round;fill-rule:evenodd;"
d="M 132800000.000000,60537500.000000
132781921.000000,60628387.000000
132730438.000000,60705438.000000
132653387.000000,60756921.000000
132562500.000000,60775000.000000
132062500.000000,60775000.000000
131971613.000000,60756921.000000
131894562.000000,60705438.000000
131843079.000000,60628387.000000
131825000.000000,60537500.000000
131825000.000000,60062500.000000
131843079.000000,59971613.000000
131894562.000000,59894562.000000
131971613.000000,59843079.000000
132062500.000000,59825000.000000
132562500.000000,59825000.000000
132653387.000000,59843079.000000
132730438.000000,59894562.000000
132781921.000000,59971613.000000
132800000.000000,60062500.000000
Z" /> 
<path style="fill:#000000; fill-opacity:1.0; 
stroke:#000000; stroke-width:1.000000; stroke-opacity:1; 
stroke-linecap:round; stroke-linejoin:round;fill-rule:evenodd;"
d="M 130975000.000000,60537500.000000
130956921.000000,60628387.000000
130905438.000000,60705438.000000
130828387.000000,60756921.000000
130737500.000000,60775000.000000
130237500.000000,60775000.000000
130146613.000000,60756921.000000
130069562.000000,60705438.000000
130018079.000000,60628387.000000
130000000.000000,60537500.000000
130000000.000000,60062500.000000
130018079.000000,59971613.000000
130069562.000000,59894562.000000
130146613.000000,59843079.000000
130237500.000000,59825000.000000
130737500.000000,59825000.000000
130828387.000000,59843079.000000
130905438.000000,59894562.000000
130956921.000000,59971613.000000
130975000.000000,60062500.000000
Z" /> 
</g>
<g >
</g>
<g style="fill:#000000; fill-opacity:1.0; 
stroke:#000000; stroke-width:1.000000; stroke-opacity:1; 
stroke-linecap:round; stroke-linejoin:round;">
<path style="fill:#000000; fill-opacity:1.0; 
stroke:#000000; stroke-width:1.000000; stroke-opacity:1; 
stroke-linecap:round; stroke-linejoin:round;fill-rule:evenodd;"
d="M 132800000.000000,62137500.000000
132781921.000000,62228387.000000
132730438.000000,62305438.000000
132653387.000000,62356921.000000
132562500.000000,62375000.000000
132062500.000000,62375000.000000
131971613.000000,62356921.000000
131894562.000000,62305438.000000
131843079.000000,62228387.000000
131825000.000000,62137500.000000
131825000.000000,61662500.000000
131843079.000000,61571613.000000
131894562.000000,61494562.000000
131971613.000000,61443079.000000
132062500.000000,61425000.000000
132562500.000000,61425000.000000
132653387.000000,61443079.000000
132730438.000000,61494562.000000
132781921.000000,61571613.000000
132800000.000000,61662500.000000
Z" /> 
<path style="fill:#000000; fill-opacity:1.0; 
stroke:#000000; stroke-width:1.000000; stroke-opacity:1; 
stroke-linecap:round; stroke-linejoin:round;fill-rule:evenodd;"
d="M 130975000.000000,62137500.000000
130956921.000000,62228387.000000
130905438.000000,62305438.000000
130828387.000000,62356921.000000
130737500.000000,62375000.000000
130237500.000000,62375000.000000
130146613.000000,62356921.000000
130069562.000000,62305438.000000
130018079.000000,62228387.000000
130000000.000000,62137500.000000
130000000.000000,61662500.000000
130018079.000000,61571613.000000
130069562.000000,61494562.000000
130146613.000000,61443079.000000
130237500.000000,61425000.000000
130737500.000000,61425000.000000
130828387.000000,61443079.000000
130905438.000000,61494562.000000
130956921.000000,61571613.000000
130975000.000000,61662500.000000
Z" /> 
</g>
<g >
</g>
<g style="fill:#000000; fill-opacity:1.0; 
stroke:#000000; stroke-width:1.000000; stroke-opacity:1; 
stroke-linecap:round; stroke-linejoin:round;">
<path style="fill:#000000; fill-opacity:1.0; 
stroke:#000000; stroke-width:1.000000; stroke-opacity:1; 
stroke-linecap:round; stroke-linejoin:round;fill-rule:evenodd;"
d="M 132650000.000000,57150000.000000
132554329.000000,57130970.000000
132473223.000000,57076777.000000
132419030.000000,56995671.000000
132400000.000000,56900000.000000
132400000.000000,56250000.000000
132419030.000000,56154329.000000
132473223.000000,56073223.000000
132554329.000000,56019030.000000
132650000.000000,56000000.000000
133550000.000000,56000000.000000
133645671.000000,56019030.000000
133726777.000000,56073223.000000
133780970.000000,56154329.000000
133800000.000000,56250000.000000
133800000.000000,56900000.000000
133780970.000000,56995671.000000
133726777.000000,57076777.000000
133645671.000000,57130970.000000
133550000.000000,57150000.000000
Z" /> 
<path style="fill:#000000; fill-opacity:1.0; 
stroke:#000000; stroke-width:1.000000; stroke-opacity:1; 
stroke-linecap:round; stroke-linejoin:round;fill-rule:evenodd;"
d="M 132650000.000000,59200000.000000
132554329.000000,59180970.000000
132473223.000000,59126777.000000
132419030.000000,59045671.000000
132400000.000000,58950000.000000
132400000.000000,58300000.000000
132419030.000000,58204329.000000
132473223.000000,58123223.000000
132554329.000000,58069030.000000
132650000.000000,58050000.000000
133550000.000000,58050000.000000
133645671.000000,58069030.000000
133726777.000000,58123223.000000
133780970.000000,58204329.000000
133800000.000000,58300000.000000
133800000.000000,58950000.000000
133780970.000000,59045671.000000
133726777.000000,59126777.000000
133645671.000000,59180970.000000
133550000.000000,59200000.000000
Z" /> 
</g>
<g >
</g>
<g style="fill:#000000; fill-opacity:1.0; 
stroke:#000000; stroke-width:1.000000; stroke-opacity:1; 
stroke-linecap:round; stroke-linejoin:round;">
<path style="fill:#000000; fill-opacity:1.0; 
stroke:#000000; stroke-width:1.000000; stroke-opacity:1; 
stroke-linecap:round; stroke-linejoin:round;fill-rule:evenodd;"
d="M 131150000.000000,58050000.000000
131245671.000000,58069030.000000
131326777.000000,58123223.000000
131380970.000000,58204329.000000
131400000.000000,58300000.000000
131400000.000000,58950000.000000
131380970.000000,59045671.000000
131326777.000000,59126777.000000
131245671.000000,59180970.000000
131150000.000000,59200000.000000
130250000.000000,59200000.000000
130154329.000000,59180970.000000
130073223.000000,59126777.000000
130019030.000000,59045671.000000
130000000.000000,58950000.000000
130000000.000000,58300000.000000
130019030.000000,58204329.000000
130073223.000000,58123223.000000
130154329.000000,58069030.000000
130250000.000000,58050000.000000
Z" /> 
<path style="fill:#000000; fill-opacity:1.0; 
stroke:#000000; stroke-width:1.000000; stroke-opacity:1; 
stroke-linecap:round; stroke-linejoin:round;fill-rule:evenodd;"
d="M 131150000.000000,56000000.000000
131245671.000000,56019030.000000
131326777.000000,56073223.000000
131380970.000000,56154329.000000
131400000.000000,56250000.000000
131400000.000000,56900000.000000
131380970.000000,56995671.000000
131326777.000000,57076777.000000
131245671.000000,57130970.000000
131150000.000000,57150000.000000
130250000.000000,57150000.000000
130154329.000000,57130970.000000
130073223.000000,57076777.000000
130019030.000000,56995671.000000
130000000.000000,56900000.000000
130000000.000000,56250000.000000
130019030.000000,56154329.000000
130073223.000000,56073223.000000
130154329.000000,56019030.000000
130250000.000000,56000000.000000
Z" /> 
</g>
<g >
</g>
<g >
</g>
<g >
</g>
<g >
</g>
<g >
</g>
<g >
</g>
<g >
</g>
<g >
</g>
<g >
</g>
<g >
</g>
<g >
</g>
</g> 
</svg>
