%TF.GenerationSoftware,KiCad,Pcbnew,6.0.11+dfsg-1~bpo11+1*%
%TF.CreationDate,2023-04-21T11:36:43+08:00*%
%TF.ProjectId,EuroPowerBoard,4575726f-506f-4776-9572-426f6172642e,rev?*%
%TF.SameCoordinates,Original*%
%TF.FileFunction,Legend,Top*%
%TF.FilePolarity,Positive*%
%FSLAX46Y46*%
G04 Gerber Fmt 4.6, Leading zero omitted, Abs format (unit mm)*
G04 Created by KiCad (PCBNEW 6.0.11+dfsg-1~bpo11+1) date 2023-04-21 11:36:43*
%MOMM*%
%LPD*%
G01*
G04 APERTURE LIST*
%ADD10C,0.300000*%
%ADD11C,0.150000*%
%ADD12C,0.010000*%
%ADD13C,0.120000*%
G04 APERTURE END LIST*
D10*
X182857142Y-78142857D02*
X183357142Y-78142857D01*
X183571428Y-78928571D02*
X182857142Y-78928571D01*
X182857142Y-77428571D01*
X183571428Y-77428571D01*
X184857142Y-77928571D02*
X184857142Y-78928571D01*
X184214285Y-77928571D02*
X184214285Y-78714285D01*
X184285714Y-78857142D01*
X184428571Y-78928571D01*
X184642857Y-78928571D01*
X184785714Y-78857142D01*
X184857142Y-78785714D01*
X185571428Y-78928571D02*
X185571428Y-77928571D01*
X185571428Y-78214285D02*
X185642857Y-78071428D01*
X185714285Y-78000000D01*
X185857142Y-77928571D01*
X186000000Y-77928571D01*
X186714285Y-78928571D02*
X186571428Y-78857142D01*
X186500000Y-78785714D01*
X186428571Y-78642857D01*
X186428571Y-78214285D01*
X186500000Y-78071428D01*
X186571428Y-78000000D01*
X186714285Y-77928571D01*
X186928571Y-77928571D01*
X187071428Y-78000000D01*
X187142857Y-78071428D01*
X187214285Y-78214285D01*
X187214285Y-78642857D01*
X187142857Y-78785714D01*
X187071428Y-78857142D01*
X186928571Y-78928571D01*
X186714285Y-78928571D01*
X187857142Y-78928571D02*
X187857142Y-77428571D01*
X188428571Y-77428571D01*
X188571428Y-77500000D01*
X188642857Y-77571428D01*
X188714285Y-77714285D01*
X188714285Y-77928571D01*
X188642857Y-78071428D01*
X188571428Y-78142857D01*
X188428571Y-78214285D01*
X187857142Y-78214285D01*
X189571428Y-78928571D02*
X189428571Y-78857142D01*
X189357142Y-78785714D01*
X189285714Y-78642857D01*
X189285714Y-78214285D01*
X189357142Y-78071428D01*
X189428571Y-78000000D01*
X189571428Y-77928571D01*
X189785714Y-77928571D01*
X189928571Y-78000000D01*
X190000000Y-78071428D01*
X190071428Y-78214285D01*
X190071428Y-78642857D01*
X190000000Y-78785714D01*
X189928571Y-78857142D01*
X189785714Y-78928571D01*
X189571428Y-78928571D01*
X190571428Y-77928571D02*
X190857142Y-78928571D01*
X191142857Y-78214285D01*
X191428571Y-78928571D01*
X191714285Y-77928571D01*
X192857142Y-78857142D02*
X192714285Y-78928571D01*
X192428571Y-78928571D01*
X192285714Y-78857142D01*
X192214285Y-78714285D01*
X192214285Y-78142857D01*
X192285714Y-78000000D01*
X192428571Y-77928571D01*
X192714285Y-77928571D01*
X192857142Y-78000000D01*
X192928571Y-78142857D01*
X192928571Y-78285714D01*
X192214285Y-78428571D01*
X193571428Y-78928571D02*
X193571428Y-77928571D01*
X193571428Y-78214285D02*
X193642857Y-78071428D01*
X193714285Y-78000000D01*
X193857142Y-77928571D01*
X194000000Y-77928571D01*
X195000000Y-78142857D02*
X195214285Y-78214285D01*
X195285714Y-78285714D01*
X195357142Y-78428571D01*
X195357142Y-78642857D01*
X195285714Y-78785714D01*
X195214285Y-78857142D01*
X195071428Y-78928571D01*
X194500000Y-78928571D01*
X194500000Y-77428571D01*
X195000000Y-77428571D01*
X195142857Y-77500000D01*
X195214285Y-77571428D01*
X195285714Y-77714285D01*
X195285714Y-77857142D01*
X195214285Y-78000000D01*
X195142857Y-78071428D01*
X195000000Y-78142857D01*
X194500000Y-78142857D01*
X196214285Y-78928571D02*
X196071428Y-78857142D01*
X196000000Y-78785714D01*
X195928571Y-78642857D01*
X195928571Y-78214285D01*
X196000000Y-78071428D01*
X196071428Y-78000000D01*
X196214285Y-77928571D01*
X196428571Y-77928571D01*
X196571428Y-78000000D01*
X196642857Y-78071428D01*
X196714285Y-78214285D01*
X196714285Y-78642857D01*
X196642857Y-78785714D01*
X196571428Y-78857142D01*
X196428571Y-78928571D01*
X196214285Y-78928571D01*
X198000000Y-78928571D02*
X198000000Y-78142857D01*
X197928571Y-78000000D01*
X197785714Y-77928571D01*
X197500000Y-77928571D01*
X197357142Y-78000000D01*
X198000000Y-78857142D02*
X197857142Y-78928571D01*
X197500000Y-78928571D01*
X197357142Y-78857142D01*
X197285714Y-78714285D01*
X197285714Y-78571428D01*
X197357142Y-78428571D01*
X197500000Y-78357142D01*
X197857142Y-78357142D01*
X198000000Y-78285714D01*
X198714285Y-78928571D02*
X198714285Y-77928571D01*
X198714285Y-78214285D02*
X198785714Y-78071428D01*
X198857142Y-78000000D01*
X199000000Y-77928571D01*
X199142857Y-77928571D01*
X200285714Y-78928571D02*
X200285714Y-77428571D01*
X200285714Y-78857142D02*
X200142857Y-78928571D01*
X199857142Y-78928571D01*
X199714285Y-78857142D01*
X199642857Y-78785714D01*
X199571428Y-78642857D01*
X199571428Y-78214285D01*
X199642857Y-78071428D01*
X199714285Y-78000000D01*
X199857142Y-77928571D01*
X200142857Y-77928571D01*
X200285714Y-78000000D01*
X202000000Y-77928571D02*
X202357142Y-78928571D01*
X202714285Y-77928571D01*
X204071428Y-78928571D02*
X203214285Y-78928571D01*
X203642857Y-78928571D02*
X203642857Y-77428571D01*
X203500000Y-77642857D01*
X203357142Y-77785714D01*
X203214285Y-77857142D01*
X204714285Y-78785714D02*
X204785714Y-78857142D01*
X204714285Y-78928571D01*
X204642857Y-78857142D01*
X204714285Y-78785714D01*
X204714285Y-78928571D01*
X205714285Y-77428571D02*
X205857142Y-77428571D01*
X206000000Y-77500000D01*
X206071428Y-77571428D01*
X206142857Y-77714285D01*
X206214285Y-78000000D01*
X206214285Y-78357142D01*
X206142857Y-78642857D01*
X206071428Y-78785714D01*
X206000000Y-78857142D01*
X205857142Y-78928571D01*
X205714285Y-78928571D01*
X205571428Y-78857142D01*
X205500000Y-78785714D01*
X205428571Y-78642857D01*
X205357142Y-78357142D01*
X205357142Y-78000000D01*
X205428571Y-77714285D01*
X205500000Y-77571428D01*
X205571428Y-77500000D01*
X205714285Y-77428571D01*
D11*
%TO.C,R2*%
X100883333Y-76566666D02*
X100650000Y-76233333D01*
X100483333Y-76566666D02*
X100483333Y-75866666D01*
X100750000Y-75866666D01*
X100816666Y-75900000D01*
X100850000Y-75933333D01*
X100883333Y-76000000D01*
X100883333Y-76100000D01*
X100850000Y-76166666D01*
X100816666Y-76200000D01*
X100750000Y-76233333D01*
X100483333Y-76233333D01*
X101150000Y-75933333D02*
X101183333Y-75900000D01*
X101250000Y-75866666D01*
X101416666Y-75866666D01*
X101483333Y-75900000D01*
X101516666Y-75933333D01*
X101550000Y-76000000D01*
X101550000Y-76066666D01*
X101516666Y-76166666D01*
X101116666Y-76566666D01*
X101550000Y-76566666D01*
%TO.C,R1*%
X105383333Y-76566666D02*
X105150000Y-76233333D01*
X104983333Y-76566666D02*
X104983333Y-75866666D01*
X105250000Y-75866666D01*
X105316666Y-75900000D01*
X105350000Y-75933333D01*
X105383333Y-76000000D01*
X105383333Y-76100000D01*
X105350000Y-76166666D01*
X105316666Y-76200000D01*
X105250000Y-76233333D01*
X104983333Y-76233333D01*
X106050000Y-76566666D02*
X105650000Y-76566666D01*
X105850000Y-76566666D02*
X105850000Y-75866666D01*
X105783333Y-75966666D01*
X105716666Y-76033333D01*
X105650000Y-76066666D01*
%TO.C,C2*%
X126338333Y-56457142D02*
X126290714Y-56504761D01*
X126147857Y-56552380D01*
X126052619Y-56552380D01*
X125909761Y-56504761D01*
X125814523Y-56409523D01*
X125766904Y-56314285D01*
X125719285Y-56123809D01*
X125719285Y-55980952D01*
X125766904Y-55790476D01*
X125814523Y-55695238D01*
X125909761Y-55600000D01*
X126052619Y-55552380D01*
X126147857Y-55552380D01*
X126290714Y-55600000D01*
X126338333Y-55647619D01*
X126719285Y-55647619D02*
X126766904Y-55600000D01*
X126862142Y-55552380D01*
X127100238Y-55552380D01*
X127195476Y-55600000D01*
X127243095Y-55647619D01*
X127290714Y-55742857D01*
X127290714Y-55838095D01*
X127243095Y-55980952D01*
X126671666Y-56552380D01*
X127290714Y-56552380D01*
%TO.C,C1*%
X120438333Y-56457142D02*
X120390714Y-56504761D01*
X120247857Y-56552380D01*
X120152619Y-56552380D01*
X120009761Y-56504761D01*
X119914523Y-56409523D01*
X119866904Y-56314285D01*
X119819285Y-56123809D01*
X119819285Y-55980952D01*
X119866904Y-55790476D01*
X119914523Y-55695238D01*
X120009761Y-55600000D01*
X120152619Y-55552380D01*
X120247857Y-55552380D01*
X120390714Y-55600000D01*
X120438333Y-55647619D01*
X121390714Y-56552380D02*
X120819285Y-56552380D01*
X121105000Y-56552380D02*
X121105000Y-55552380D01*
X121009761Y-55695238D01*
X120914523Y-55790476D01*
X120819285Y-55838095D01*
%TO.C,G\u002A\u002A\u002A*%
G36*
X105778535Y-79023813D02*
G01*
X105867826Y-79061436D01*
X105933150Y-79125619D01*
X105959884Y-79196778D01*
X105967922Y-79288420D01*
X105957316Y-79383072D01*
X105932197Y-79455762D01*
X105900828Y-79502801D01*
X105848244Y-79568074D01*
X105783676Y-79640404D01*
X105754324Y-79671101D01*
X105613242Y-79815292D01*
X105809840Y-79815292D01*
X105901743Y-79815681D01*
X105959332Y-79818287D01*
X105990626Y-79825270D01*
X106003646Y-79838786D01*
X106006409Y-79860996D01*
X106006438Y-79868208D01*
X106006438Y-79921125D01*
X105710104Y-79921125D01*
X105593000Y-79920914D01*
X105511704Y-79919581D01*
X105459687Y-79916077D01*
X105430424Y-79909352D01*
X105417389Y-79898356D01*
X105414054Y-79882041D01*
X105413976Y-79873500D01*
X105431723Y-79830180D01*
X105484988Y-79766311D01*
X105562013Y-79692294D01*
X105687130Y-79570334D01*
X105775022Y-79463463D01*
X105827046Y-79369349D01*
X105844560Y-79285659D01*
X105834446Y-79224099D01*
X105795446Y-79162611D01*
X105739155Y-79133093D01*
X105675439Y-79135038D01*
X105614165Y-79167944D01*
X105565199Y-79231304D01*
X105561938Y-79238042D01*
X105530062Y-79287432D01*
X105488425Y-79305742D01*
X105470297Y-79306833D01*
X105430300Y-79303687D01*
X105417994Y-79284904D01*
X105424750Y-79238500D01*
X105461444Y-79137463D01*
X105524145Y-79068104D01*
X105573487Y-79040940D01*
X105676764Y-79016120D01*
X105778535Y-79023813D01*
G37*
D12*
X105778535Y-79023813D02*
X105867826Y-79061436D01*
X105933150Y-79125619D01*
X105959884Y-79196778D01*
X105967922Y-79288420D01*
X105957316Y-79383072D01*
X105932197Y-79455762D01*
X105900828Y-79502801D01*
X105848244Y-79568074D01*
X105783676Y-79640404D01*
X105754324Y-79671101D01*
X105613242Y-79815292D01*
X105809840Y-79815292D01*
X105901743Y-79815681D01*
X105959332Y-79818287D01*
X105990626Y-79825270D01*
X106003646Y-79838786D01*
X106006409Y-79860996D01*
X106006438Y-79868208D01*
X106006438Y-79921125D01*
X105710104Y-79921125D01*
X105593000Y-79920914D01*
X105511704Y-79919581D01*
X105459687Y-79916077D01*
X105430424Y-79909352D01*
X105417389Y-79898356D01*
X105414054Y-79882041D01*
X105413976Y-79873500D01*
X105431723Y-79830180D01*
X105484988Y-79766311D01*
X105562013Y-79692294D01*
X105687130Y-79570334D01*
X105775022Y-79463463D01*
X105827046Y-79369349D01*
X105844560Y-79285659D01*
X105834446Y-79224099D01*
X105795446Y-79162611D01*
X105739155Y-79133093D01*
X105675439Y-79135038D01*
X105614165Y-79167944D01*
X105565199Y-79231304D01*
X105561938Y-79238042D01*
X105530062Y-79287432D01*
X105488425Y-79305742D01*
X105470297Y-79306833D01*
X105430300Y-79303687D01*
X105417994Y-79284904D01*
X105424750Y-79238500D01*
X105461444Y-79137463D01*
X105524145Y-79068104D01*
X105573487Y-79040940D01*
X105676764Y-79016120D01*
X105778535Y-79023813D01*
G36*
X100249104Y-79603625D02*
G01*
X99741104Y-79603625D01*
X99741104Y-79497792D01*
X100249104Y-79497792D01*
X100249104Y-79603625D01*
G37*
X100249104Y-79603625D02*
X99741104Y-79603625D01*
X99741104Y-79497792D01*
X100249104Y-79497792D01*
X100249104Y-79603625D01*
G36*
X104650327Y-79267980D02*
G01*
X104666108Y-79283952D01*
X104672071Y-79323234D01*
X104672938Y-79381375D01*
X104672938Y-79497792D01*
X104789354Y-79497792D01*
X104856028Y-79499165D01*
X104890745Y-79506425D01*
X104903864Y-79524281D01*
X104905771Y-79550708D01*
X104902749Y-79581015D01*
X104886777Y-79596795D01*
X104847495Y-79602758D01*
X104789354Y-79603625D01*
X104672938Y-79603625D01*
X104672938Y-79720042D01*
X104671564Y-79786716D01*
X104664304Y-79821432D01*
X104646448Y-79834551D01*
X104620021Y-79836458D01*
X104589714Y-79833436D01*
X104573934Y-79817464D01*
X104567971Y-79778182D01*
X104567104Y-79720042D01*
X104567104Y-79603625D01*
X104440104Y-79603625D01*
X104369719Y-79602504D01*
X104331718Y-79596382D01*
X104316161Y-79581115D01*
X104313107Y-79552563D01*
X104313104Y-79550708D01*
X104315793Y-79521381D01*
X104330487Y-79505547D01*
X104367127Y-79499065D01*
X104435653Y-79497793D01*
X104440104Y-79497792D01*
X104567104Y-79497792D01*
X104567104Y-79381375D01*
X104568478Y-79314701D01*
X104575738Y-79279984D01*
X104593593Y-79266865D01*
X104620021Y-79264958D01*
X104650327Y-79267980D01*
G37*
X104650327Y-79267980D02*
X104666108Y-79283952D01*
X104672071Y-79323234D01*
X104672938Y-79381375D01*
X104672938Y-79497792D01*
X104789354Y-79497792D01*
X104856028Y-79499165D01*
X104890745Y-79506425D01*
X104903864Y-79524281D01*
X104905771Y-79550708D01*
X104902749Y-79581015D01*
X104886777Y-79596795D01*
X104847495Y-79602758D01*
X104789354Y-79603625D01*
X104672938Y-79603625D01*
X104672938Y-79720042D01*
X104671564Y-79786716D01*
X104664304Y-79821432D01*
X104646448Y-79834551D01*
X104620021Y-79836458D01*
X104589714Y-79833436D01*
X104573934Y-79817464D01*
X104567971Y-79778182D01*
X104567104Y-79720042D01*
X104567104Y-79603625D01*
X104440104Y-79603625D01*
X104369719Y-79602504D01*
X104331718Y-79596382D01*
X104316161Y-79581115D01*
X104313107Y-79552563D01*
X104313104Y-79550708D01*
X104315793Y-79521381D01*
X104330487Y-79505547D01*
X104367127Y-79499065D01*
X104435653Y-79497793D01*
X104440104Y-79497792D01*
X104567104Y-79497792D01*
X104567104Y-79381375D01*
X104568478Y-79314701D01*
X104575738Y-79279984D01*
X104593593Y-79266865D01*
X104620021Y-79264958D01*
X104650327Y-79267980D01*
G36*
X100566474Y-79049954D02*
G01*
X100578629Y-79088064D01*
X100585044Y-79152132D01*
X100587517Y-79246677D01*
X100587850Y-79376215D01*
X100587771Y-79476625D01*
X100587771Y-79921125D01*
X100460771Y-79921125D01*
X100460771Y-79175000D01*
X100397271Y-79187700D01*
X100352789Y-79192547D01*
X100335934Y-79177165D01*
X100333771Y-79150888D01*
X100343293Y-79114989D01*
X100378186Y-79086993D01*
X100424437Y-79066750D01*
X100477559Y-79046201D01*
X100517739Y-79033540D01*
X100546777Y-79033285D01*
X100566474Y-79049954D01*
G37*
X100566474Y-79049954D02*
X100578629Y-79088064D01*
X100585044Y-79152132D01*
X100587517Y-79246677D01*
X100587850Y-79376215D01*
X100587771Y-79476625D01*
X100587771Y-79921125D01*
X100460771Y-79921125D01*
X100460771Y-79175000D01*
X100397271Y-79187700D01*
X100352789Y-79192547D01*
X100335934Y-79177165D01*
X100333771Y-79150888D01*
X100343293Y-79114989D01*
X100378186Y-79086993D01*
X100424437Y-79066750D01*
X100477559Y-79046201D01*
X100517739Y-79033540D01*
X100546777Y-79033285D01*
X100566474Y-79049954D01*
G36*
X101617421Y-79381249D02*
G01*
X101658228Y-79494397D01*
X101694747Y-79592263D01*
X101724488Y-79668439D01*
X101744958Y-79716515D01*
X101753226Y-79730499D01*
X101763877Y-79711645D01*
X101786088Y-79659256D01*
X101817338Y-79579720D01*
X101855108Y-79479427D01*
X101890809Y-79381649D01*
X102016521Y-79032673D01*
X102087076Y-79032399D01*
X102132400Y-79036910D01*
X102150924Y-79048324D01*
X102150576Y-79050350D01*
X102141394Y-79074786D01*
X102119698Y-79132832D01*
X102087750Y-79218428D01*
X102047814Y-79325511D01*
X102002149Y-79448022D01*
X101984771Y-79494662D01*
X101826021Y-79920749D01*
X101756705Y-79920937D01*
X101703640Y-79913416D01*
X101673877Y-79883156D01*
X101664872Y-79862917D01*
X101649931Y-79823729D01*
X101623195Y-79753063D01*
X101587743Y-79659071D01*
X101546651Y-79549910D01*
X101519104Y-79476625D01*
X101476033Y-79362074D01*
X101436651Y-79257528D01*
X101404037Y-79171140D01*
X101381268Y-79111068D01*
X101373336Y-79090333D01*
X101360974Y-79050987D01*
X101372145Y-79035146D01*
X101415804Y-79032132D01*
X101422153Y-79032125D01*
X101493487Y-79032125D01*
X101617421Y-79381249D01*
G37*
X101617421Y-79381249D02*
X101658228Y-79494397D01*
X101694747Y-79592263D01*
X101724488Y-79668439D01*
X101744958Y-79716515D01*
X101753226Y-79730499D01*
X101763877Y-79711645D01*
X101786088Y-79659256D01*
X101817338Y-79579720D01*
X101855108Y-79479427D01*
X101890809Y-79381649D01*
X102016521Y-79032673D01*
X102087076Y-79032399D01*
X102132400Y-79036910D01*
X102150924Y-79048324D01*
X102150576Y-79050350D01*
X102141394Y-79074786D01*
X102119698Y-79132832D01*
X102087750Y-79218428D01*
X102047814Y-79325511D01*
X102002149Y-79448022D01*
X101984771Y-79494662D01*
X101826021Y-79920749D01*
X101756705Y-79920937D01*
X101703640Y-79913416D01*
X101673877Y-79883156D01*
X101664872Y-79862917D01*
X101649931Y-79823729D01*
X101623195Y-79753063D01*
X101587743Y-79659071D01*
X101546651Y-79549910D01*
X101519104Y-79476625D01*
X101476033Y-79362074D01*
X101436651Y-79257528D01*
X101404037Y-79171140D01*
X101381268Y-79111068D01*
X101373336Y-79090333D01*
X101360974Y-79050987D01*
X101372145Y-79035146D01*
X101415804Y-79032132D01*
X101422153Y-79032125D01*
X101493487Y-79032125D01*
X101617421Y-79381249D01*
G36*
X105265604Y-79921125D02*
G01*
X105138604Y-79921125D01*
X105138604Y-79175580D01*
X105064521Y-79189478D01*
X105015155Y-79195875D01*
X104994551Y-79185814D01*
X104990517Y-79154792D01*
X105001212Y-79118347D01*
X105039105Y-79088401D01*
X105080698Y-79069167D01*
X105146503Y-79046298D01*
X105203712Y-79033273D01*
X105218202Y-79032125D01*
X105265604Y-79032125D01*
X105265604Y-79921125D01*
G37*
X105265604Y-79921125D02*
X105138604Y-79921125D01*
X105138604Y-79175580D01*
X105064521Y-79189478D01*
X105015155Y-79195875D01*
X104994551Y-79185814D01*
X104990517Y-79154792D01*
X105001212Y-79118347D01*
X105039105Y-79088401D01*
X105080698Y-79069167D01*
X105146503Y-79046298D01*
X105203712Y-79033273D01*
X105218202Y-79032125D01*
X105265604Y-79032125D01*
X105265604Y-79921125D01*
G36*
X106732892Y-79031354D02*
G01*
X106749273Y-79032125D01*
X106792998Y-79037536D01*
X106810771Y-79050251D01*
X106803662Y-79075330D01*
X106784031Y-79132819D01*
X106754419Y-79215566D01*
X106717370Y-79316420D01*
X106692261Y-79383626D01*
X106647898Y-79501637D01*
X106605253Y-79615084D01*
X106568145Y-79713803D01*
X106540397Y-79787630D01*
X106531990Y-79810000D01*
X106505825Y-79873802D01*
X106482820Y-79907033D01*
X106453363Y-79919483D01*
X106422958Y-79921077D01*
X106355688Y-79921029D01*
X106198502Y-79503035D01*
X106151148Y-79377011D01*
X106108578Y-79263530D01*
X106073149Y-79168892D01*
X106047220Y-79099397D01*
X106033148Y-79061347D01*
X106031599Y-79057029D01*
X106036945Y-79038316D01*
X106075420Y-79034514D01*
X106093021Y-79035862D01*
X106114807Y-79037328D01*
X106132243Y-79039979D01*
X106147552Y-79048329D01*
X106162958Y-79066891D01*
X106180684Y-79100179D01*
X106202952Y-79152707D01*
X106231988Y-79228987D01*
X106270012Y-79333534D01*
X106319250Y-79470859D01*
X106351193Y-79559985D01*
X106422883Y-79759761D01*
X106489827Y-79575860D01*
X106548496Y-79414418D01*
X106594431Y-79288310D01*
X106629696Y-79193209D01*
X106656358Y-79124785D01*
X106676481Y-79078712D01*
X106692131Y-79050660D01*
X106705373Y-79036302D01*
X106718271Y-79031309D01*
X106732892Y-79031354D01*
G37*
X106732892Y-79031354D02*
X106749273Y-79032125D01*
X106792998Y-79037536D01*
X106810771Y-79050251D01*
X106803662Y-79075330D01*
X106784031Y-79132819D01*
X106754419Y-79215566D01*
X106717370Y-79316420D01*
X106692261Y-79383626D01*
X106647898Y-79501637D01*
X106605253Y-79615084D01*
X106568145Y-79713803D01*
X106540397Y-79787630D01*
X106531990Y-79810000D01*
X106505825Y-79873802D01*
X106482820Y-79907033D01*
X106453363Y-79919483D01*
X106422958Y-79921077D01*
X106355688Y-79921029D01*
X106198502Y-79503035D01*
X106151148Y-79377011D01*
X106108578Y-79263530D01*
X106073149Y-79168892D01*
X106047220Y-79099397D01*
X106033148Y-79061347D01*
X106031599Y-79057029D01*
X106036945Y-79038316D01*
X106075420Y-79034514D01*
X106093021Y-79035862D01*
X106114807Y-79037328D01*
X106132243Y-79039979D01*
X106147552Y-79048329D01*
X106162958Y-79066891D01*
X106180684Y-79100179D01*
X106202952Y-79152707D01*
X106231988Y-79228987D01*
X106270012Y-79333534D01*
X106319250Y-79470859D01*
X106351193Y-79559985D01*
X106422883Y-79759761D01*
X106489827Y-79575860D01*
X106548496Y-79414418D01*
X106594431Y-79288310D01*
X106629696Y-79193209D01*
X106656358Y-79124785D01*
X106676481Y-79078712D01*
X106692131Y-79050660D01*
X106705373Y-79036302D01*
X106718271Y-79031309D01*
X106732892Y-79031354D01*
G36*
X98950915Y-83136706D02*
G01*
X98880344Y-82974800D01*
X98853108Y-82860368D01*
X98849115Y-82814047D01*
X98845517Y-82729384D01*
X98842313Y-82610372D01*
X98839504Y-82461001D01*
X98837090Y-82285263D01*
X98835070Y-82087148D01*
X98833446Y-81870647D01*
X98832216Y-81639751D01*
X98831381Y-81398451D01*
X98830942Y-81150737D01*
X98830897Y-80900602D01*
X98831248Y-80652036D01*
X98831910Y-80436097D01*
X99083017Y-80436097D01*
X99095521Y-82855779D01*
X99159021Y-82979164D01*
X99244787Y-83107489D01*
X99354739Y-83202473D01*
X99491442Y-83267697D01*
X99513469Y-83274623D01*
X99538702Y-83280675D01*
X99569989Y-83285915D01*
X99610176Y-83290400D01*
X99662112Y-83294192D01*
X99728643Y-83297351D01*
X99812618Y-83299935D01*
X99916884Y-83302005D01*
X100044287Y-83303622D01*
X100197677Y-83304843D01*
X100379899Y-83305731D01*
X100593803Y-83306344D01*
X100842234Y-83306742D01*
X101128041Y-83306985D01*
X101365646Y-83307100D01*
X103127771Y-83307792D01*
X103127848Y-82159500D01*
X103128125Y-81931322D01*
X103128890Y-81706643D01*
X103130093Y-81490778D01*
X103131684Y-81289045D01*
X103133610Y-81106760D01*
X103135821Y-80949240D01*
X103138266Y-80821801D01*
X103140895Y-80729761D01*
X103141724Y-80709583D01*
X103155523Y-80407958D01*
X102564855Y-80407975D01*
X102438174Y-80408198D01*
X102274733Y-80408835D01*
X102080103Y-80409847D01*
X101859855Y-80411197D01*
X101619561Y-80412844D01*
X101364791Y-80414752D01*
X101101116Y-80416882D01*
X100834108Y-80419194D01*
X100569337Y-80421651D01*
X100528602Y-80422044D01*
X99083017Y-80436097D01*
X98831910Y-80436097D01*
X98831994Y-80409029D01*
X98833136Y-80175573D01*
X98833239Y-80160851D01*
X103424104Y-80160851D01*
X104328979Y-80146848D01*
X104537490Y-80144003D01*
X104779473Y-80141350D01*
X105046064Y-80138950D01*
X105328404Y-80136862D01*
X105617629Y-80135145D01*
X105904878Y-80133860D01*
X106181289Y-80133065D01*
X106415237Y-80132818D01*
X107596621Y-80132792D01*
X107589987Y-79608917D01*
X107583354Y-79085042D01*
X107525426Y-78986500D01*
X107473544Y-78913635D01*
X107410213Y-78844730D01*
X107384463Y-78822194D01*
X107357268Y-78800338D01*
X107332499Y-78781103D01*
X107307414Y-78764322D01*
X107279274Y-78749828D01*
X107245339Y-78737453D01*
X107202867Y-78727030D01*
X107149120Y-78718393D01*
X107081357Y-78711374D01*
X106996839Y-78705807D01*
X106892823Y-78701523D01*
X106766572Y-78698356D01*
X106615344Y-78696139D01*
X106436399Y-78694705D01*
X106226998Y-78693886D01*
X105984399Y-78693516D01*
X105705864Y-78693428D01*
X105388652Y-78693453D01*
X105273526Y-78693458D01*
X103424104Y-78693458D01*
X103424104Y-80160851D01*
X98833239Y-80160851D01*
X98833287Y-80153958D01*
X99081035Y-80153958D01*
X103148938Y-80153958D01*
X103148938Y-78693458D01*
X101364125Y-78693458D01*
X101037360Y-78693421D01*
X100750146Y-78693444D01*
X100499701Y-78693727D01*
X100283245Y-78694469D01*
X100097994Y-78695870D01*
X99941167Y-78698130D01*
X99809983Y-78701448D01*
X99701659Y-78706026D01*
X99613414Y-78712061D01*
X99542465Y-78719755D01*
X99486032Y-78729306D01*
X99441332Y-78740916D01*
X99405583Y-78754782D01*
X99376005Y-78771106D01*
X99349814Y-78790087D01*
X99324229Y-78811925D01*
X99296468Y-78836820D01*
X99290145Y-78842417D01*
X99216307Y-78923203D01*
X99155884Y-79017451D01*
X99146682Y-79036619D01*
X99130767Y-79074429D01*
X99118495Y-79111717D01*
X99109278Y-79154714D01*
X99102531Y-79209649D01*
X99097668Y-79282751D01*
X99094103Y-79380248D01*
X99091249Y-79508372D01*
X99088864Y-79651250D01*
X99081035Y-80153958D01*
X98833287Y-80153958D01*
X98834673Y-79955659D01*
X98836606Y-79753277D01*
X98838934Y-79572419D01*
X98841659Y-79417075D01*
X98844779Y-79291237D01*
X98848295Y-79198895D01*
X98852207Y-79144040D01*
X98853031Y-79137958D01*
X98902138Y-78956189D01*
X98987276Y-78794942D01*
X99105777Y-78657793D01*
X99254972Y-78548317D01*
X99317771Y-78515374D01*
X99455354Y-78450042D01*
X107244688Y-78450042D01*
X107365720Y-78506769D01*
X107518072Y-78600322D01*
X107650521Y-78725592D01*
X107753578Y-78873262D01*
X107768747Y-78902461D01*
X107837354Y-79041826D01*
X107837354Y-82958542D01*
X107782108Y-83074958D01*
X107684937Y-83232162D01*
X107557378Y-83363331D01*
X107405170Y-83463926D01*
X107234056Y-83529409D01*
X107196021Y-83538324D01*
X107162488Y-83540921D01*
X107089256Y-83543352D01*
X106978956Y-83545619D01*
X106834222Y-83547721D01*
X106657685Y-83549658D01*
X106451980Y-83551429D01*
X106219739Y-83553035D01*
X105963594Y-83554475D01*
X105686179Y-83555750D01*
X105390126Y-83556859D01*
X105078069Y-83557801D01*
X104752639Y-83558578D01*
X104416470Y-83559189D01*
X104072194Y-83559633D01*
X103722445Y-83559911D01*
X103369856Y-83560023D01*
X103017058Y-83559968D01*
X102666685Y-83559745D01*
X102321369Y-83559356D01*
X101983744Y-83558800D01*
X101656443Y-83558077D01*
X101342097Y-83557187D01*
X101043340Y-83556129D01*
X100762805Y-83554903D01*
X100503125Y-83553510D01*
X100266931Y-83551950D01*
X100056858Y-83550221D01*
X99875538Y-83548324D01*
X99725604Y-83546259D01*
X99609688Y-83544026D01*
X99530423Y-83541624D01*
X99490443Y-83539054D01*
X99488160Y-83538686D01*
X99325951Y-83486089D01*
X99178892Y-83397875D01*
X99083338Y-83308679D01*
X103375647Y-83308679D01*
X105267834Y-83302944D01*
X105593821Y-83301942D01*
X105880192Y-83300992D01*
X106129662Y-83300025D01*
X106344947Y-83298971D01*
X106528766Y-83297762D01*
X106683833Y-83296327D01*
X106812865Y-83294598D01*
X106918579Y-83292506D01*
X107003690Y-83289980D01*
X107070916Y-83286952D01*
X107122973Y-83283352D01*
X107162576Y-83279112D01*
X107192443Y-83274161D01*
X107215290Y-83268431D01*
X107233833Y-83261852D01*
X107250788Y-83254355D01*
X107255271Y-83252247D01*
X107385278Y-83168008D01*
X107490232Y-83051948D01*
X107544023Y-82958542D01*
X107593524Y-82852708D01*
X107593938Y-80407958D01*
X103402938Y-80407958D01*
X103402938Y-81727770D01*
X103402720Y-81964429D01*
X103402094Y-82191674D01*
X103401096Y-82405427D01*
X103399767Y-82601610D01*
X103398143Y-82776146D01*
X103396263Y-82924958D01*
X103394167Y-83043968D01*
X103391891Y-83129099D01*
X103389474Y-83176274D01*
X103389292Y-83178130D01*
X103375647Y-83308679D01*
X99083338Y-83308679D01*
X99052156Y-83279572D01*
X98950915Y-83136706D01*
G37*
X98950915Y-83136706D02*
X98880344Y-82974800D01*
X98853108Y-82860368D01*
X98849115Y-82814047D01*
X98845517Y-82729384D01*
X98842313Y-82610372D01*
X98839504Y-82461001D01*
X98837090Y-82285263D01*
X98835070Y-82087148D01*
X98833446Y-81870647D01*
X98832216Y-81639751D01*
X98831381Y-81398451D01*
X98830942Y-81150737D01*
X98830897Y-80900602D01*
X98831248Y-80652036D01*
X98831910Y-80436097D01*
X99083017Y-80436097D01*
X99095521Y-82855779D01*
X99159021Y-82979164D01*
X99244787Y-83107489D01*
X99354739Y-83202473D01*
X99491442Y-83267697D01*
X99513469Y-83274623D01*
X99538702Y-83280675D01*
X99569989Y-83285915D01*
X99610176Y-83290400D01*
X99662112Y-83294192D01*
X99728643Y-83297351D01*
X99812618Y-83299935D01*
X99916884Y-83302005D01*
X100044287Y-83303622D01*
X100197677Y-83304843D01*
X100379899Y-83305731D01*
X100593803Y-83306344D01*
X100842234Y-83306742D01*
X101128041Y-83306985D01*
X101365646Y-83307100D01*
X103127771Y-83307792D01*
X103127848Y-82159500D01*
X103128125Y-81931322D01*
X103128890Y-81706643D01*
X103130093Y-81490778D01*
X103131684Y-81289045D01*
X103133610Y-81106760D01*
X103135821Y-80949240D01*
X103138266Y-80821801D01*
X103140895Y-80729761D01*
X103141724Y-80709583D01*
X103155523Y-80407958D01*
X102564855Y-80407975D01*
X102438174Y-80408198D01*
X102274733Y-80408835D01*
X102080103Y-80409847D01*
X101859855Y-80411197D01*
X101619561Y-80412844D01*
X101364791Y-80414752D01*
X101101116Y-80416882D01*
X100834108Y-80419194D01*
X100569337Y-80421651D01*
X100528602Y-80422044D01*
X99083017Y-80436097D01*
X98831910Y-80436097D01*
X98831994Y-80409029D01*
X98833136Y-80175573D01*
X98833239Y-80160851D01*
X103424104Y-80160851D01*
X104328979Y-80146848D01*
X104537490Y-80144003D01*
X104779473Y-80141350D01*
X105046064Y-80138950D01*
X105328404Y-80136862D01*
X105617629Y-80135145D01*
X105904878Y-80133860D01*
X106181289Y-80133065D01*
X106415237Y-80132818D01*
X107596621Y-80132792D01*
X107589987Y-79608917D01*
X107583354Y-79085042D01*
X107525426Y-78986500D01*
X107473544Y-78913635D01*
X107410213Y-78844730D01*
X107384463Y-78822194D01*
X107357268Y-78800338D01*
X107332499Y-78781103D01*
X107307414Y-78764322D01*
X107279274Y-78749828D01*
X107245339Y-78737453D01*
X107202867Y-78727030D01*
X107149120Y-78718393D01*
X107081357Y-78711374D01*
X106996839Y-78705807D01*
X106892823Y-78701523D01*
X106766572Y-78698356D01*
X106615344Y-78696139D01*
X106436399Y-78694705D01*
X106226998Y-78693886D01*
X105984399Y-78693516D01*
X105705864Y-78693428D01*
X105388652Y-78693453D01*
X105273526Y-78693458D01*
X103424104Y-78693458D01*
X103424104Y-80160851D01*
X98833239Y-80160851D01*
X98833287Y-80153958D01*
X99081035Y-80153958D01*
X103148938Y-80153958D01*
X103148938Y-78693458D01*
X101364125Y-78693458D01*
X101037360Y-78693421D01*
X100750146Y-78693444D01*
X100499701Y-78693727D01*
X100283245Y-78694469D01*
X100097994Y-78695870D01*
X99941167Y-78698130D01*
X99809983Y-78701448D01*
X99701659Y-78706026D01*
X99613414Y-78712061D01*
X99542465Y-78719755D01*
X99486032Y-78729306D01*
X99441332Y-78740916D01*
X99405583Y-78754782D01*
X99376005Y-78771106D01*
X99349814Y-78790087D01*
X99324229Y-78811925D01*
X99296468Y-78836820D01*
X99290145Y-78842417D01*
X99216307Y-78923203D01*
X99155884Y-79017451D01*
X99146682Y-79036619D01*
X99130767Y-79074429D01*
X99118495Y-79111717D01*
X99109278Y-79154714D01*
X99102531Y-79209649D01*
X99097668Y-79282751D01*
X99094103Y-79380248D01*
X99091249Y-79508372D01*
X99088864Y-79651250D01*
X99081035Y-80153958D01*
X98833287Y-80153958D01*
X98834673Y-79955659D01*
X98836606Y-79753277D01*
X98838934Y-79572419D01*
X98841659Y-79417075D01*
X98844779Y-79291237D01*
X98848295Y-79198895D01*
X98852207Y-79144040D01*
X98853031Y-79137958D01*
X98902138Y-78956189D01*
X98987276Y-78794942D01*
X99105777Y-78657793D01*
X99254972Y-78548317D01*
X99317771Y-78515374D01*
X99455354Y-78450042D01*
X107244688Y-78450042D01*
X107365720Y-78506769D01*
X107518072Y-78600322D01*
X107650521Y-78725592D01*
X107753578Y-78873262D01*
X107768747Y-78902461D01*
X107837354Y-79041826D01*
X107837354Y-82958542D01*
X107782108Y-83074958D01*
X107684937Y-83232162D01*
X107557378Y-83363331D01*
X107405170Y-83463926D01*
X107234056Y-83529409D01*
X107196021Y-83538324D01*
X107162488Y-83540921D01*
X107089256Y-83543352D01*
X106978956Y-83545619D01*
X106834222Y-83547721D01*
X106657685Y-83549658D01*
X106451980Y-83551429D01*
X106219739Y-83553035D01*
X105963594Y-83554475D01*
X105686179Y-83555750D01*
X105390126Y-83556859D01*
X105078069Y-83557801D01*
X104752639Y-83558578D01*
X104416470Y-83559189D01*
X104072194Y-83559633D01*
X103722445Y-83559911D01*
X103369856Y-83560023D01*
X103017058Y-83559968D01*
X102666685Y-83559745D01*
X102321369Y-83559356D01*
X101983744Y-83558800D01*
X101656443Y-83558077D01*
X101342097Y-83557187D01*
X101043340Y-83556129D01*
X100762805Y-83554903D01*
X100503125Y-83553510D01*
X100266931Y-83551950D01*
X100056858Y-83550221D01*
X99875538Y-83548324D01*
X99725604Y-83546259D01*
X99609688Y-83544026D01*
X99530423Y-83541624D01*
X99490443Y-83539054D01*
X99488160Y-83538686D01*
X99325951Y-83486089D01*
X99178892Y-83397875D01*
X99083338Y-83308679D01*
X103375647Y-83308679D01*
X105267834Y-83302944D01*
X105593821Y-83301942D01*
X105880192Y-83300992D01*
X106129662Y-83300025D01*
X106344947Y-83298971D01*
X106528766Y-83297762D01*
X106683833Y-83296327D01*
X106812865Y-83294598D01*
X106918579Y-83292506D01*
X107003690Y-83289980D01*
X107070916Y-83286952D01*
X107122973Y-83283352D01*
X107162576Y-83279112D01*
X107192443Y-83274161D01*
X107215290Y-83268431D01*
X107233833Y-83261852D01*
X107250788Y-83254355D01*
X107255271Y-83252247D01*
X107385278Y-83168008D01*
X107490232Y-83051948D01*
X107544023Y-82958542D01*
X107593524Y-82852708D01*
X107593938Y-80407958D01*
X103402938Y-80407958D01*
X103402938Y-81727770D01*
X103402720Y-81964429D01*
X103402094Y-82191674D01*
X103401096Y-82405427D01*
X103399767Y-82601610D01*
X103398143Y-82776146D01*
X103396263Y-82924958D01*
X103394167Y-83043968D01*
X103391891Y-83129099D01*
X103389474Y-83176274D01*
X103389292Y-83178130D01*
X103375647Y-83308679D01*
X99083338Y-83308679D01*
X99052156Y-83279572D01*
X98950915Y-83136706D01*
G36*
X101162701Y-79042903D02*
G01*
X101237271Y-79094660D01*
X101287400Y-79172680D01*
X101287568Y-79173119D01*
X101307250Y-79275682D01*
X101289149Y-79383247D01*
X101232442Y-79497833D01*
X101136307Y-79621460D01*
X101081455Y-79679089D01*
X100945252Y-79815292D01*
X101136928Y-79815292D01*
X101227442Y-79815706D01*
X101283744Y-79818446D01*
X101313955Y-79825752D01*
X101326198Y-79839867D01*
X101328592Y-79863032D01*
X101328604Y-79868208D01*
X101328604Y-79921125D01*
X101032271Y-79921125D01*
X100915167Y-79920917D01*
X100833866Y-79919591D01*
X100781835Y-79916091D01*
X100752544Y-79909364D01*
X100739460Y-79898354D01*
X100736054Y-79882006D01*
X100735938Y-79873274D01*
X100753182Y-79829137D01*
X100806190Y-79771589D01*
X100852476Y-79732431D01*
X100964203Y-79633054D01*
X101057610Y-79529739D01*
X101127849Y-79429192D01*
X101170070Y-79338115D01*
X101180438Y-79278938D01*
X101167184Y-79223891D01*
X101141403Y-79179109D01*
X101086303Y-79140196D01*
X101019625Y-79132247D01*
X100954273Y-79151698D01*
X100903154Y-79194984D01*
X100879995Y-79251294D01*
X100858420Y-79289610D01*
X100815313Y-79303406D01*
X100774226Y-79303110D01*
X100758977Y-79280903D01*
X100757104Y-79246821D01*
X100772494Y-79182741D01*
X100810714Y-79119828D01*
X100887697Y-79055873D01*
X100978380Y-79022444D01*
X101073226Y-79018476D01*
X101162701Y-79042903D01*
G37*
X101162701Y-79042903D02*
X101237271Y-79094660D01*
X101287400Y-79172680D01*
X101287568Y-79173119D01*
X101307250Y-79275682D01*
X101289149Y-79383247D01*
X101232442Y-79497833D01*
X101136307Y-79621460D01*
X101081455Y-79679089D01*
X100945252Y-79815292D01*
X101136928Y-79815292D01*
X101227442Y-79815706D01*
X101283744Y-79818446D01*
X101313955Y-79825752D01*
X101326198Y-79839867D01*
X101328592Y-79863032D01*
X101328604Y-79868208D01*
X101328604Y-79921125D01*
X101032271Y-79921125D01*
X100915167Y-79920917D01*
X100833866Y-79919591D01*
X100781835Y-79916091D01*
X100752544Y-79909364D01*
X100739460Y-79898354D01*
X100736054Y-79882006D01*
X100735938Y-79873274D01*
X100753182Y-79829137D01*
X100806190Y-79771589D01*
X100852476Y-79732431D01*
X100964203Y-79633054D01*
X101057610Y-79529739D01*
X101127849Y-79429192D01*
X101170070Y-79338115D01*
X101180438Y-79278938D01*
X101167184Y-79223891D01*
X101141403Y-79179109D01*
X101086303Y-79140196D01*
X101019625Y-79132247D01*
X100954273Y-79151698D01*
X100903154Y-79194984D01*
X100879995Y-79251294D01*
X100858420Y-79289610D01*
X100815313Y-79303406D01*
X100774226Y-79303110D01*
X100758977Y-79280903D01*
X100757104Y-79246821D01*
X100772494Y-79182741D01*
X100810714Y-79119828D01*
X100887697Y-79055873D01*
X100978380Y-79022444D01*
X101073226Y-79018476D01*
X101162701Y-79042903D01*
D13*
%TO.C,J7*%
X167942500Y-75490000D02*
X158822500Y-75490000D01*
X158822500Y-75490000D02*
X158822500Y-54910000D01*
X169332500Y-69780000D02*
X168332500Y-70280000D01*
X166632500Y-56210000D02*
X166632500Y-63150000D01*
X166632500Y-67250000D02*
X166632500Y-74190000D01*
X158822500Y-54910000D02*
X167942500Y-54910000D01*
X168332500Y-70280000D02*
X169332500Y-70780000D01*
X166632500Y-63150000D02*
X167942500Y-63150000D01*
X166632500Y-74190000D02*
X160132500Y-74190000D01*
X166632500Y-63150000D02*
X166632500Y-63150000D01*
X160132500Y-56210000D02*
X166632500Y-56210000D01*
X169332500Y-70780000D02*
X169332500Y-69780000D01*
X160132500Y-74190000D02*
X160132500Y-56210000D01*
X167942500Y-67250000D02*
X166632500Y-67250000D01*
X167942500Y-54910000D02*
X167942500Y-75490000D01*
%TO.C,J6*%
X179442500Y-75390000D02*
X170322500Y-75390000D01*
X170322500Y-75390000D02*
X170322500Y-54810000D01*
X180832500Y-69680000D02*
X179832500Y-70180000D01*
X178132500Y-56110000D02*
X178132500Y-63050000D01*
X178132500Y-67150000D02*
X178132500Y-74090000D01*
X170322500Y-54810000D02*
X179442500Y-54810000D01*
X179832500Y-70180000D02*
X180832500Y-70680000D01*
X178132500Y-63050000D02*
X179442500Y-63050000D01*
X178132500Y-74090000D02*
X171632500Y-74090000D01*
X178132500Y-63050000D02*
X178132500Y-63050000D01*
X171632500Y-56110000D02*
X178132500Y-56110000D01*
X180832500Y-70680000D02*
X180832500Y-69680000D01*
X171632500Y-74090000D02*
X171632500Y-56110000D01*
X179442500Y-67150000D02*
X178132500Y-67150000D01*
X179442500Y-54810000D02*
X179442500Y-75390000D01*
%TO.C,J4*%
X144642500Y-54810000D02*
X144642500Y-75390000D01*
X144642500Y-67150000D02*
X143332500Y-67150000D01*
X136832500Y-74090000D02*
X136832500Y-56110000D01*
X146032500Y-70680000D02*
X146032500Y-69680000D01*
X136832500Y-56110000D02*
X143332500Y-56110000D01*
X143332500Y-63050000D02*
X143332500Y-63050000D01*
X143332500Y-74090000D02*
X136832500Y-74090000D01*
X143332500Y-63050000D02*
X144642500Y-63050000D01*
X145032500Y-70180000D02*
X146032500Y-70680000D01*
X135522500Y-54810000D02*
X144642500Y-54810000D01*
X143332500Y-67150000D02*
X143332500Y-74090000D01*
X143332500Y-56110000D02*
X143332500Y-63050000D01*
X146032500Y-69680000D02*
X145032500Y-70180000D01*
X135522500Y-75390000D02*
X135522500Y-54810000D01*
X144642500Y-75390000D02*
X135522500Y-75390000D01*
%TO.C,J1*%
X116142500Y-75290000D02*
X107022500Y-75290000D01*
X107022500Y-75290000D02*
X107022500Y-54710000D01*
X117532500Y-69580000D02*
X116532500Y-70080000D01*
X114832500Y-56010000D02*
X114832500Y-62950000D01*
X114832500Y-67050000D02*
X114832500Y-73990000D01*
X107022500Y-54710000D02*
X116142500Y-54710000D01*
X116532500Y-70080000D02*
X117532500Y-70580000D01*
X114832500Y-62950000D02*
X116142500Y-62950000D01*
X114832500Y-73990000D02*
X108332500Y-73990000D01*
X114832500Y-62950000D02*
X114832500Y-62950000D01*
X108332500Y-56010000D02*
X114832500Y-56010000D01*
X117532500Y-70580000D02*
X117532500Y-69580000D01*
X108332500Y-73990000D02*
X108332500Y-56010000D01*
X116142500Y-67050000D02*
X114832500Y-67050000D01*
X116142500Y-54710000D02*
X116142500Y-75290000D01*
%TO.C,J9*%
X202495000Y-54990000D02*
X202495000Y-75570000D01*
X202495000Y-67330000D02*
X201185000Y-67330000D01*
X194685000Y-74270000D02*
X194685000Y-56290000D01*
X203885000Y-70860000D02*
X203885000Y-69860000D01*
X194685000Y-56290000D02*
X201185000Y-56290000D01*
X201185000Y-63230000D02*
X201185000Y-63230000D01*
X201185000Y-74270000D02*
X194685000Y-74270000D01*
X201185000Y-63230000D02*
X202495000Y-63230000D01*
X202885000Y-70360000D02*
X203885000Y-70860000D01*
X193375000Y-54990000D02*
X202495000Y-54990000D01*
X201185000Y-67330000D02*
X201185000Y-74270000D01*
X201185000Y-56290000D02*
X201185000Y-63230000D01*
X203885000Y-69860000D02*
X202885000Y-70360000D01*
X193375000Y-75570000D02*
X193375000Y-54990000D01*
X202495000Y-75570000D02*
X193375000Y-75570000D01*
%TO.C,J8*%
X58742500Y-75390000D02*
X49622500Y-75390000D01*
X49622500Y-75390000D02*
X49622500Y-54810000D01*
X60132500Y-69680000D02*
X59132500Y-70180000D01*
X57432500Y-56110000D02*
X57432500Y-63050000D01*
X57432500Y-67150000D02*
X57432500Y-74090000D01*
X49622500Y-54810000D02*
X58742500Y-54810000D01*
X59132500Y-70180000D02*
X60132500Y-70680000D01*
X57432500Y-63050000D02*
X58742500Y-63050000D01*
X57432500Y-74090000D02*
X50932500Y-74090000D01*
X57432500Y-63050000D02*
X57432500Y-63050000D01*
X50932500Y-56110000D02*
X57432500Y-56110000D01*
X60132500Y-70680000D02*
X60132500Y-69680000D01*
X50932500Y-74090000D02*
X50932500Y-56110000D01*
X58742500Y-67150000D02*
X57432500Y-67150000D01*
X58742500Y-54810000D02*
X58742500Y-75390000D01*
%TO.C,J5*%
X104542500Y-75290000D02*
X95422500Y-75290000D01*
X95422500Y-75290000D02*
X95422500Y-54710000D01*
X105932500Y-69580000D02*
X104932500Y-70080000D01*
X103232500Y-56010000D02*
X103232500Y-62950000D01*
X103232500Y-67050000D02*
X103232500Y-73990000D01*
X95422500Y-54710000D02*
X104542500Y-54710000D01*
X104932500Y-70080000D02*
X105932500Y-70580000D01*
X103232500Y-62950000D02*
X104542500Y-62950000D01*
X103232500Y-73990000D02*
X96732500Y-73990000D01*
X103232500Y-62950000D02*
X103232500Y-62950000D01*
X96732500Y-56010000D02*
X103232500Y-56010000D01*
X105932500Y-70580000D02*
X105932500Y-69580000D01*
X96732500Y-73990000D02*
X96732500Y-56010000D01*
X104542500Y-67050000D02*
X103232500Y-67050000D01*
X104542500Y-54710000D02*
X104542500Y-75290000D01*
%TO.C,J3*%
X118550000Y-62890000D02*
X118550000Y-63840000D01*
X118050000Y-63540000D02*
X118050000Y-65540000D01*
X133950000Y-62890000D02*
X118550000Y-62890000D01*
X118050000Y-75490000D02*
X133950000Y-75490000D01*
X118550000Y-70690000D02*
X118050000Y-70440000D01*
X133950000Y-75490000D02*
X133950000Y-62890000D01*
X118550000Y-63840000D02*
X118050000Y-63540000D01*
X118550000Y-65290000D02*
X118550000Y-70690000D01*
X118050000Y-70440000D02*
X118050000Y-75490000D01*
X118050000Y-65540000D02*
X118550000Y-65290000D01*
%TO.C,J2*%
X190942500Y-54810000D02*
X190942500Y-75390000D01*
X190942500Y-67150000D02*
X189632500Y-67150000D01*
X183132500Y-74090000D02*
X183132500Y-56110000D01*
X192332500Y-70680000D02*
X192332500Y-69680000D01*
X183132500Y-56110000D02*
X189632500Y-56110000D01*
X189632500Y-63050000D02*
X189632500Y-63050000D01*
X189632500Y-74090000D02*
X183132500Y-74090000D01*
X189632500Y-63050000D02*
X190942500Y-63050000D01*
X191332500Y-70180000D02*
X192332500Y-70680000D01*
X181822500Y-54810000D02*
X190942500Y-54810000D01*
X189632500Y-67150000D02*
X189632500Y-74090000D01*
X189632500Y-56110000D02*
X189632500Y-63050000D01*
X192332500Y-69680000D02*
X191332500Y-70180000D01*
X181822500Y-75390000D02*
X181822500Y-54810000D01*
X190942500Y-75390000D02*
X181822500Y-75390000D01*
%TO.C,R2*%
X100745276Y-76977500D02*
X101254724Y-76977500D01*
X100745276Y-78022500D02*
X101254724Y-78022500D01*
%TO.C,R1*%
X105157776Y-78022500D02*
X105667224Y-78022500D01*
X105157776Y-76977500D02*
X105667224Y-76977500D01*
%TO.C,D2*%
X99290000Y-80890000D02*
X99290000Y-82810000D01*
X102150000Y-80890000D02*
X99290000Y-80890000D01*
X99290000Y-82810000D02*
X102150000Y-82810000D01*
%TO.C,D1*%
X107360000Y-82810000D02*
X107360000Y-80890000D01*
X104500000Y-82810000D02*
X107360000Y-82810000D01*
X107360000Y-80890000D02*
X104500000Y-80890000D01*
%TO.C,J15*%
X93042500Y-75290000D02*
X83922500Y-75290000D01*
X83922500Y-75290000D02*
X83922500Y-54710000D01*
X94432500Y-69580000D02*
X93432500Y-70080000D01*
X91732500Y-56010000D02*
X91732500Y-62950000D01*
X91732500Y-67050000D02*
X91732500Y-73990000D01*
X83922500Y-54710000D02*
X93042500Y-54710000D01*
X93432500Y-70080000D02*
X94432500Y-70580000D01*
X91732500Y-62950000D02*
X93042500Y-62950000D01*
X91732500Y-73990000D02*
X85232500Y-73990000D01*
X91732500Y-62950000D02*
X91732500Y-62950000D01*
X85232500Y-56010000D02*
X91732500Y-56010000D01*
X94432500Y-70580000D02*
X94432500Y-69580000D01*
X85232500Y-73990000D02*
X85232500Y-56010000D01*
X93042500Y-67050000D02*
X91732500Y-67050000D01*
X93042500Y-54710000D02*
X93042500Y-75290000D01*
%TO.C,J14*%
X47442500Y-75390000D02*
X38322500Y-75390000D01*
X38322500Y-75390000D02*
X38322500Y-54810000D01*
X48832500Y-69680000D02*
X47832500Y-70180000D01*
X46132500Y-56110000D02*
X46132500Y-63050000D01*
X46132500Y-67150000D02*
X46132500Y-74090000D01*
X38322500Y-54810000D02*
X47442500Y-54810000D01*
X47832500Y-70180000D02*
X48832500Y-70680000D01*
X46132500Y-63050000D02*
X47442500Y-63050000D01*
X46132500Y-74090000D02*
X39632500Y-74090000D01*
X46132500Y-63050000D02*
X46132500Y-63050000D01*
X39632500Y-56110000D02*
X46132500Y-56110000D01*
X48832500Y-70680000D02*
X48832500Y-69680000D01*
X39632500Y-74090000D02*
X39632500Y-56110000D01*
X47442500Y-67150000D02*
X46132500Y-67150000D01*
X47442500Y-54810000D02*
X47442500Y-75390000D01*
%TO.C,J13*%
X81542500Y-75290000D02*
X72422500Y-75290000D01*
X72422500Y-75290000D02*
X72422500Y-54710000D01*
X82932500Y-69580000D02*
X81932500Y-70080000D01*
X80232500Y-56010000D02*
X80232500Y-62950000D01*
X80232500Y-67050000D02*
X80232500Y-73990000D01*
X72422500Y-54710000D02*
X81542500Y-54710000D01*
X81932500Y-70080000D02*
X82932500Y-70580000D01*
X80232500Y-62950000D02*
X81542500Y-62950000D01*
X80232500Y-73990000D02*
X73732500Y-73990000D01*
X80232500Y-62950000D02*
X80232500Y-62950000D01*
X73732500Y-56010000D02*
X80232500Y-56010000D01*
X82932500Y-70580000D02*
X82932500Y-69580000D01*
X73732500Y-73990000D02*
X73732500Y-56010000D01*
X81542500Y-67050000D02*
X80232500Y-67050000D01*
X81542500Y-54710000D02*
X81542500Y-75290000D01*
%TO.C,J12*%
X156242500Y-54810000D02*
X156242500Y-75390000D01*
X156242500Y-67150000D02*
X154932500Y-67150000D01*
X148432500Y-74090000D02*
X148432500Y-56110000D01*
X157632500Y-70680000D02*
X157632500Y-69680000D01*
X148432500Y-56110000D02*
X154932500Y-56110000D01*
X154932500Y-63050000D02*
X154932500Y-63050000D01*
X154932500Y-74090000D02*
X148432500Y-74090000D01*
X154932500Y-63050000D02*
X156242500Y-63050000D01*
X156632500Y-70180000D02*
X157632500Y-70680000D01*
X147122500Y-54810000D02*
X156242500Y-54810000D01*
X154932500Y-67150000D02*
X154932500Y-74090000D01*
X154932500Y-56110000D02*
X154932500Y-63050000D01*
X157632500Y-69680000D02*
X156632500Y-70180000D01*
X147122500Y-75390000D02*
X147122500Y-54810000D01*
X156242500Y-75390000D02*
X147122500Y-75390000D01*
%TO.C,J11*%
X70142500Y-75390000D02*
X61022500Y-75390000D01*
X61022500Y-75390000D02*
X61022500Y-54810000D01*
X71532500Y-69680000D02*
X70532500Y-70180000D01*
X68832500Y-56110000D02*
X68832500Y-63050000D01*
X68832500Y-67150000D02*
X68832500Y-74090000D01*
X61022500Y-54810000D02*
X70142500Y-54810000D01*
X70532500Y-70180000D02*
X71532500Y-70680000D01*
X68832500Y-63050000D02*
X70142500Y-63050000D01*
X68832500Y-74090000D02*
X62332500Y-74090000D01*
X68832500Y-63050000D02*
X68832500Y-63050000D01*
X62332500Y-56110000D02*
X68832500Y-56110000D01*
X71532500Y-70680000D02*
X71532500Y-69680000D01*
X62332500Y-74090000D02*
X62332500Y-56110000D01*
X70142500Y-67150000D02*
X68832500Y-67150000D01*
X70142500Y-54810000D02*
X70142500Y-75390000D01*
%TO.C,J10*%
X214195000Y-54890000D02*
X214195000Y-75470000D01*
X214195000Y-67230000D02*
X212885000Y-67230000D01*
X206385000Y-74170000D02*
X206385000Y-56190000D01*
X215585000Y-70760000D02*
X215585000Y-69760000D01*
X206385000Y-56190000D02*
X212885000Y-56190000D01*
X212885000Y-63130000D02*
X212885000Y-63130000D01*
X212885000Y-74170000D02*
X206385000Y-74170000D01*
X212885000Y-63130000D02*
X214195000Y-63130000D01*
X214585000Y-70260000D02*
X215585000Y-70760000D01*
X205075000Y-54890000D02*
X214195000Y-54890000D01*
X212885000Y-67230000D02*
X212885000Y-74170000D01*
X212885000Y-56190000D02*
X212885000Y-63130000D01*
X215585000Y-69760000D02*
X214585000Y-70260000D01*
X205075000Y-75470000D02*
X205075000Y-54890000D01*
X214195000Y-75470000D02*
X205075000Y-75470000D01*
%TO.C,C2*%
X125465000Y-61805888D02*
X125062000Y-61805888D01*
X125465000Y-61845888D02*
X125122000Y-61845888D01*
X125465000Y-61885888D02*
X125186000Y-61885888D01*
X127948000Y-61805888D02*
X127545000Y-61805888D01*
X125465000Y-60685888D02*
X124140000Y-60685888D01*
X128853000Y-60725888D02*
X127545000Y-60725888D01*
X125465000Y-60725888D02*
X124157000Y-60725888D01*
X128834000Y-60765888D02*
X127545000Y-60765888D01*
X125465000Y-60765888D02*
X124176000Y-60765888D01*
X128815000Y-60805888D02*
X127545000Y-60805888D01*
X125465000Y-60805888D02*
X124195000Y-60805888D01*
X128204000Y-61605888D02*
X127545000Y-61605888D01*
X125465000Y-61605888D02*
X124806000Y-61605888D01*
X128158000Y-61645888D02*
X127545000Y-61645888D01*
X125465000Y-61645888D02*
X124852000Y-61645888D01*
X128795000Y-60845888D02*
X127545000Y-60845888D01*
X125465000Y-60845888D02*
X124215000Y-60845888D01*
X128773000Y-60885888D02*
X127545000Y-60885888D01*
X125465000Y-60885888D02*
X124237000Y-60885888D01*
X128752000Y-60925888D02*
X127545000Y-60925888D01*
X125465000Y-60925888D02*
X124258000Y-60925888D01*
X128729000Y-60965888D02*
X127545000Y-60965888D01*
X129081000Y-59804888D02*
X123929000Y-59804888D01*
X129078000Y-59844888D02*
X123932000Y-59844888D01*
X129074000Y-59884888D02*
X127545000Y-59884888D01*
X125465000Y-59884888D02*
X123936000Y-59884888D01*
X129070000Y-59924888D02*
X127545000Y-59924888D01*
X125465000Y-59924888D02*
X123940000Y-59924888D01*
X129066000Y-59964888D02*
X127545000Y-59964888D01*
X125465000Y-59964888D02*
X123944000Y-59964888D01*
X129061000Y-60004888D02*
X127545000Y-60004888D01*
X125465000Y-60004888D02*
X123949000Y-60004888D01*
X129055000Y-60044888D02*
X127545000Y-60044888D01*
X125465000Y-60044888D02*
X123955000Y-60044888D01*
X129048000Y-60084888D02*
X127545000Y-60084888D01*
X125465000Y-60084888D02*
X123962000Y-60084888D01*
X129041000Y-60124888D02*
X127545000Y-60124888D01*
X129006000Y-60284888D02*
X127545000Y-60284888D01*
X125465000Y-60284888D02*
X124004000Y-60284888D01*
X128996000Y-60324888D02*
X127545000Y-60324888D01*
X125465000Y-60324888D02*
X124014000Y-60324888D01*
X128985000Y-60365888D02*
X127545000Y-60365888D01*
X125465000Y-60365888D02*
X124025000Y-60365888D01*
X128973000Y-60405888D02*
X127545000Y-60405888D01*
X125465000Y-61245888D02*
X124470000Y-61245888D01*
X128509000Y-61285888D02*
X127545000Y-61285888D01*
X125465000Y-61285888D02*
X124501000Y-61285888D01*
X128476000Y-61325888D02*
X127545000Y-61325888D01*
X125465000Y-61325888D02*
X124534000Y-61325888D01*
X128442000Y-61365888D02*
X127545000Y-61365888D01*
X125465000Y-61365888D02*
X124568000Y-61365888D01*
X128627000Y-61125888D02*
X127545000Y-61125888D01*
X125465000Y-61125888D02*
X124383000Y-61125888D01*
X128600000Y-61165888D02*
X127545000Y-61165888D01*
X125465000Y-61165888D02*
X124410000Y-61165888D01*
X128570000Y-61205888D02*
X127545000Y-61205888D01*
X125465000Y-61205888D02*
X124440000Y-61205888D01*
X128540000Y-61245888D02*
X127545000Y-61245888D01*
X125465000Y-60124888D02*
X123969000Y-60124888D01*
X129033000Y-60164888D02*
X127545000Y-60164888D01*
X125465000Y-60164888D02*
X123977000Y-60164888D01*
X129025000Y-60204888D02*
X127545000Y-60204888D01*
X125465000Y-60204888D02*
X123985000Y-60204888D01*
X129016000Y-60244888D02*
X127545000Y-60244888D01*
X125465000Y-60244888D02*
X123994000Y-60244888D01*
X127888000Y-61845888D02*
X127545000Y-61845888D01*
X128919000Y-60565888D02*
X127545000Y-60565888D01*
X125465000Y-60565888D02*
X124091000Y-60565888D01*
X128903000Y-60605888D02*
X127545000Y-60605888D01*
X125465000Y-60605888D02*
X124107000Y-60605888D01*
X128887000Y-60645888D02*
X127545000Y-60645888D01*
X125465000Y-60645888D02*
X124123000Y-60645888D01*
X128870000Y-60685888D02*
X127545000Y-60685888D01*
X127310000Y-62125888D02*
X125700000Y-62125888D01*
X127182000Y-62165888D02*
X125828000Y-62165888D01*
X127023000Y-62205888D02*
X125987000Y-62205888D01*
X125465000Y-60405888D02*
X124037000Y-60405888D01*
X128960000Y-60445888D02*
X127545000Y-60445888D01*
X125465000Y-60445888D02*
X124050000Y-60445888D01*
X128947000Y-60485888D02*
X127545000Y-60485888D01*
X125465000Y-60485888D02*
X124063000Y-60485888D01*
X128933000Y-60525888D02*
X127545000Y-60525888D01*
X125465000Y-60525888D02*
X124077000Y-60525888D01*
X125465000Y-61925888D02*
X125254000Y-61925888D01*
X128290000Y-61525888D02*
X127545000Y-61525888D01*
X125465000Y-61525888D02*
X124720000Y-61525888D01*
X128248000Y-61565888D02*
X127545000Y-61565888D01*
X125465000Y-61565888D02*
X124762000Y-61565888D01*
X126789000Y-62245888D02*
X126221000Y-62245888D01*
X128230000Y-57090113D02*
X127730000Y-57090113D01*
X127980000Y-56840113D02*
X127980000Y-57340113D01*
X127683000Y-61965888D02*
X125327000Y-61965888D01*
X129125000Y-59644888D02*
G75*
G03*
X129125000Y-59644888I-2620000J0D01*
G01*
X129085000Y-59644888D02*
X123925000Y-59644888D01*
X129085000Y-59684888D02*
X123925000Y-59684888D01*
X129084000Y-59724888D02*
X123926000Y-59724888D01*
X129083000Y-59764888D02*
X123927000Y-59764888D01*
X128005000Y-61765888D02*
X127545000Y-61765888D01*
X125465000Y-61765888D02*
X125005000Y-61765888D01*
X125465000Y-60965888D02*
X124281000Y-60965888D01*
X128705000Y-61005888D02*
X127545000Y-61005888D01*
X125465000Y-61005888D02*
X124305000Y-61005888D01*
X128680000Y-61045888D02*
X127545000Y-61045888D01*
X125465000Y-61045888D02*
X124330000Y-61045888D01*
X128654000Y-61085888D02*
X127545000Y-61085888D01*
X125465000Y-61085888D02*
X124356000Y-61085888D01*
X128110000Y-61685888D02*
X127545000Y-61685888D01*
X125465000Y-61685888D02*
X124900000Y-61685888D01*
X127420000Y-62085888D02*
X125590000Y-62085888D01*
X127756000Y-61925888D02*
X127545000Y-61925888D01*
X127824000Y-61885888D02*
X127545000Y-61885888D01*
X127516000Y-62045888D02*
X125494000Y-62045888D01*
X128059000Y-61725888D02*
X127545000Y-61725888D01*
X125465000Y-61725888D02*
X124951000Y-61725888D01*
X127603000Y-62005888D02*
X125407000Y-62005888D01*
X128406000Y-61405888D02*
X127545000Y-61405888D01*
X125465000Y-61405888D02*
X124604000Y-61405888D01*
X128369000Y-61445888D02*
X127545000Y-61445888D01*
X125465000Y-61445888D02*
X124641000Y-61445888D01*
X128331000Y-61485888D02*
X127545000Y-61485888D01*
X125465000Y-61485888D02*
X124679000Y-61485888D01*
%TO.C,C1*%
X121645000Y-57779452D02*
X122431000Y-57779452D01*
X118779000Y-57779452D02*
X119565000Y-57779452D01*
X121645000Y-57819452D02*
X122469000Y-57819452D01*
X118741000Y-57819452D02*
X119565000Y-57819452D01*
X121645000Y-57859452D02*
X122506000Y-57859452D01*
X118704000Y-57859452D02*
X119565000Y-57859452D01*
X119507000Y-57259452D02*
X121703000Y-57259452D01*
X121645000Y-57539452D02*
X122159000Y-57539452D01*
X119051000Y-57539452D02*
X119565000Y-57539452D01*
X119594000Y-57219452D02*
X121616000Y-57219452D01*
X119286000Y-57379452D02*
X119565000Y-57379452D01*
X119354000Y-57339452D02*
X119565000Y-57339452D01*
X119690000Y-57179452D02*
X121520000Y-57179452D01*
X121645000Y-57579452D02*
X122210000Y-57579452D01*
X119000000Y-57579452D02*
X119565000Y-57579452D01*
X121645000Y-58179452D02*
X122754000Y-58179452D01*
X118456000Y-58179452D02*
X119565000Y-58179452D01*
X121645000Y-58219452D02*
X122780000Y-58219452D01*
X118430000Y-58219452D02*
X119565000Y-58219452D01*
X121645000Y-58259452D02*
X122805000Y-58259452D01*
X118405000Y-58259452D02*
X119565000Y-58259452D01*
X121645000Y-58299452D02*
X122829000Y-58299452D01*
X121645000Y-57499452D02*
X122105000Y-57499452D01*
X119105000Y-57499452D02*
X119565000Y-57499452D01*
X118027000Y-59500452D02*
X123183000Y-59500452D01*
X118026000Y-59540452D02*
X123184000Y-59540452D01*
X118025000Y-59580452D02*
X123185000Y-59580452D01*
X118025000Y-59620452D02*
X123185000Y-59620452D01*
X123225000Y-59620452D02*
G75*
G03*
X123225000Y-59620452I-2620000J0D01*
G01*
X119427000Y-57299452D02*
X121783000Y-57299452D01*
X119130000Y-62425227D02*
X119130000Y-61925227D01*
X118880000Y-62175227D02*
X119380000Y-62175227D01*
X120321000Y-57019452D02*
X120889000Y-57019452D01*
X121645000Y-57699452D02*
X122348000Y-57699452D01*
X118862000Y-57699452D02*
X119565000Y-57699452D01*
X121645000Y-57739452D02*
X122390000Y-57739452D01*
X118820000Y-57739452D02*
X119565000Y-57739452D01*
X121645000Y-57339452D02*
X121856000Y-57339452D01*
X121645000Y-58739452D02*
X123033000Y-58739452D01*
X118177000Y-58739452D02*
X119565000Y-58739452D01*
X121645000Y-58779452D02*
X123047000Y-58779452D01*
X118163000Y-58779452D02*
X119565000Y-58779452D01*
X121645000Y-58819452D02*
X123060000Y-58819452D01*
X118150000Y-58819452D02*
X119565000Y-58819452D01*
X121645000Y-58859452D02*
X123073000Y-58859452D01*
X120087000Y-57059452D02*
X121123000Y-57059452D01*
X119928000Y-57099452D02*
X121282000Y-57099452D01*
X119800000Y-57139452D02*
X121410000Y-57139452D01*
X118240000Y-58579452D02*
X119565000Y-58579452D01*
X121645000Y-58619452D02*
X122987000Y-58619452D01*
X118223000Y-58619452D02*
X119565000Y-58619452D01*
X121645000Y-58659452D02*
X123003000Y-58659452D01*
X118207000Y-58659452D02*
X119565000Y-58659452D01*
X121645000Y-58699452D02*
X123019000Y-58699452D01*
X118191000Y-58699452D02*
X119565000Y-58699452D01*
X119222000Y-57419452D02*
X119565000Y-57419452D01*
X121645000Y-59020452D02*
X123116000Y-59020452D01*
X118094000Y-59020452D02*
X119565000Y-59020452D01*
X121645000Y-59060452D02*
X123125000Y-59060452D01*
X118085000Y-59060452D02*
X119565000Y-59060452D01*
X121645000Y-59100452D02*
X123133000Y-59100452D01*
X118077000Y-59100452D02*
X119565000Y-59100452D01*
X121645000Y-59140452D02*
X123141000Y-59140452D01*
X118570000Y-58019452D02*
X119565000Y-58019452D01*
X121645000Y-58059452D02*
X122670000Y-58059452D01*
X118540000Y-58059452D02*
X119565000Y-58059452D01*
X121645000Y-58099452D02*
X122700000Y-58099452D01*
X118510000Y-58099452D02*
X119565000Y-58099452D01*
X121645000Y-58139452D02*
X122727000Y-58139452D01*
X118483000Y-58139452D02*
X119565000Y-58139452D01*
X121645000Y-57899452D02*
X122542000Y-57899452D01*
X118668000Y-57899452D02*
X119565000Y-57899452D01*
X121645000Y-57939452D02*
X122576000Y-57939452D01*
X118634000Y-57939452D02*
X119565000Y-57939452D01*
X121645000Y-57979452D02*
X122609000Y-57979452D01*
X118601000Y-57979452D02*
X119565000Y-57979452D01*
X121645000Y-58019452D02*
X122640000Y-58019452D01*
X118137000Y-58859452D02*
X119565000Y-58859452D01*
X121645000Y-58899452D02*
X123085000Y-58899452D01*
X118125000Y-58899452D02*
X119565000Y-58899452D01*
X121645000Y-58940452D02*
X123096000Y-58940452D01*
X118114000Y-58940452D02*
X119565000Y-58940452D01*
X121645000Y-58980452D02*
X123106000Y-58980452D01*
X118104000Y-58980452D02*
X119565000Y-58980452D01*
X118069000Y-59140452D02*
X119565000Y-59140452D01*
X121645000Y-59180452D02*
X123148000Y-59180452D01*
X118062000Y-59180452D02*
X119565000Y-59180452D01*
X121645000Y-59220452D02*
X123155000Y-59220452D01*
X118055000Y-59220452D02*
X119565000Y-59220452D01*
X121645000Y-59260452D02*
X123161000Y-59260452D01*
X118049000Y-59260452D02*
X119565000Y-59260452D01*
X121645000Y-59300452D02*
X123166000Y-59300452D01*
X118044000Y-59300452D02*
X119565000Y-59300452D01*
X121645000Y-59340452D02*
X123170000Y-59340452D01*
X118040000Y-59340452D02*
X119565000Y-59340452D01*
X121645000Y-59380452D02*
X123174000Y-59380452D01*
X118036000Y-59380452D02*
X119565000Y-59380452D01*
X118032000Y-59420452D02*
X123178000Y-59420452D01*
X118029000Y-59460452D02*
X123181000Y-59460452D01*
X118381000Y-58299452D02*
X119565000Y-58299452D01*
X121645000Y-58339452D02*
X122852000Y-58339452D01*
X118358000Y-58339452D02*
X119565000Y-58339452D01*
X121645000Y-58379452D02*
X122873000Y-58379452D01*
X118337000Y-58379452D02*
X119565000Y-58379452D01*
X121645000Y-58419452D02*
X122895000Y-58419452D01*
X118315000Y-58419452D02*
X119565000Y-58419452D01*
X121645000Y-57619452D02*
X122258000Y-57619452D01*
X118952000Y-57619452D02*
X119565000Y-57619452D01*
X121645000Y-57659452D02*
X122304000Y-57659452D01*
X118906000Y-57659452D02*
X119565000Y-57659452D01*
X121645000Y-58459452D02*
X122915000Y-58459452D01*
X118295000Y-58459452D02*
X119565000Y-58459452D01*
X121645000Y-58499452D02*
X122934000Y-58499452D01*
X118276000Y-58499452D02*
X119565000Y-58499452D01*
X121645000Y-58539452D02*
X122953000Y-58539452D01*
X118257000Y-58539452D02*
X119565000Y-58539452D01*
X121645000Y-58579452D02*
X122970000Y-58579452D01*
X119162000Y-57459452D02*
X119565000Y-57459452D01*
X121645000Y-57379452D02*
X121924000Y-57379452D01*
X121645000Y-57419452D02*
X121988000Y-57419452D01*
X121645000Y-57459452D02*
X122048000Y-57459452D01*
%TD*%
M02*
