%TF.GenerationSoftware,KiCad,Pcbnew,6.0.11+dfsg-1~bpo11+1*%
%TF.CreationDate,2023-04-21T11:36:43+08:00*%
%TF.ProjectId,EuroPowerBoard,4575726f-506f-4776-9572-426f6172642e,rev?*%
%TF.SameCoordinates,Original*%
%TF.FileFunction,Profile,NP*%
%FSLAX46Y46*%
G04 Gerber Fmt 4.6, Leading zero omitted, Abs format (unit mm)*
G04 Created by KiCad (PCBNEW 6.0.11+dfsg-1~bpo11+1) date 2023-04-21 11:36:43*
%MOMM*%
%LPD*%
G01*
G04 APERTURE LIST*
%TA.AperFunction,Profile*%
%ADD10C,0.100000*%
%TD*%
G04 APERTURE END LIST*
D10*
X136500000Y-46000000D02*
X143000000Y-46000000D01*
X48500001Y-51999999D02*
X133000000Y-52000000D01*
X39000000Y-46000000D02*
X44500001Y-45999999D01*
X46500001Y-49999999D02*
G75*
G03*
X48500001Y-51999999I1999999J-1D01*
G01*
X46500001Y-47999999D02*
X46500001Y-49999999D01*
X46500001Y-47999999D02*
G75*
G03*
X44500001Y-45999999I-1999999J1D01*
G01*
X145000000Y-48000000D02*
X145000000Y-50000000D01*
X145000000Y-48000000D02*
G75*
G03*
X143000000Y-46000000I-1999999J1D01*
G01*
X145000000Y-50000000D02*
G75*
G03*
X147000000Y-52000000I1999999J-1D01*
G01*
X205000000Y-52000000D02*
X147000000Y-52000000D01*
X205000000Y-52000000D02*
G75*
G03*
X207000000Y-50000000I1J1999999D01*
G01*
X208500000Y-46000000D02*
G75*
G03*
X207000000Y-47500000I0J-1500000D01*
G01*
X207000000Y-47500000D02*
X207000000Y-50000000D01*
X133000000Y-52000000D02*
G75*
G03*
X135000000Y-50000000I1J1999999D01*
G01*
X136500000Y-46000000D02*
G75*
G03*
X135000000Y-47500000I0J-1500000D01*
G01*
X135000000Y-47500000D02*
X135000000Y-50000000D01*
X215000000Y-86000000D02*
X209500000Y-86000000D01*
X207500000Y-84000000D02*
G75*
G03*
X209500000Y-86000000I2000000J0D01*
G01*
X207500000Y-82000000D02*
G75*
G03*
X205500000Y-80000000I-2000000J0D01*
G01*
X114750000Y-86000000D02*
G75*
G03*
X116750000Y-84000000I0J2000000D01*
G01*
X118250000Y-80000000D02*
G75*
G03*
X116750000Y-81500000I0J-1500000D01*
G01*
X207500000Y-84000000D02*
X207500000Y-82000000D01*
X116750000Y-81500000D02*
X116750000Y-84000000D01*
X114750000Y-86000000D02*
X112250000Y-86000000D01*
X205500000Y-80000000D02*
X118250000Y-80000000D01*
X217000000Y-48000000D02*
G75*
G03*
X215000000Y-46000000I-2000000J0D01*
G01*
X215000000Y-86000000D02*
G75*
G03*
X217000000Y-84000000I0J2000000D01*
G01*
X37000000Y-84000000D02*
G75*
G03*
X39000000Y-86000000I2000000J0D01*
G01*
X39000000Y-46000000D02*
G75*
G03*
X37000000Y-48000000I0J-2000000D01*
G01*
X37000000Y-84000000D02*
X37000000Y-48000000D01*
X112250000Y-86000000D02*
X39000000Y-86000000D01*
X217000000Y-48000000D02*
X217000000Y-84000000D01*
X208500000Y-46000000D02*
X215000000Y-46000000D01*
M02*
