%TF.GenerationSoftware,KiCad,Pcbnew,6.0.11+dfsg-1~bpo11+1*%
%TF.CreationDate,2023-04-21T11:36:43+08:00*%
%TF.ProjectId,EuroPowerBoard,4575726f-506f-4776-9572-426f6172642e,rev?*%
%TF.SameCoordinates,Original*%
%TF.FileFunction,Soldermask,Top*%
%TF.FilePolarity,Negative*%
%FSLAX46Y46*%
G04 Gerber Fmt 4.6, Leading zero omitted, Abs format (unit mm)*
G04 Created by KiCad (PCBNEW 6.0.11+dfsg-1~bpo11+1) date 2023-04-21 11:36:43*
%MOMM*%
%LPD*%
G01*
G04 APERTURE LIST*
G04 Aperture macros list*
%AMRoundRect*
0 Rectangle with rounded corners*
0 $1 Rounding radius*
0 $2 $3 $4 $5 $6 $7 $8 $9 X,Y pos of 4 corners*
0 Add a 4 corners polygon primitive as box body*
4,1,4,$2,$3,$4,$5,$6,$7,$8,$9,$2,$3,0*
0 Add four circle primitives for the rounded corners*
1,1,$1+$1,$2,$3*
1,1,$1+$1,$4,$5*
1,1,$1+$1,$6,$7*
1,1,$1+$1,$8,$9*
0 Add four rect primitives between the rounded corners*
20,1,$1+$1,$2,$3,$4,$5,0*
20,1,$1+$1,$4,$5,$6,$7,0*
20,1,$1+$1,$6,$7,$8,$9,0*
20,1,$1+$1,$8,$9,$2,$3,0*%
G04 Aperture macros list end*
%ADD10C,5.600000*%
%ADD11C,3.600000*%
%ADD12C,1.700000*%
%ADD13RoundRect,0.250000X0.600000X0.600000X-0.600000X0.600000X-0.600000X-0.600000X0.600000X-0.600000X0*%
%ADD14O,1.980000X3.960000*%
%ADD15R,1.980000X3.960000*%
%ADD16RoundRect,0.237500X-0.250000X-0.237500X0.250000X-0.237500X0.250000X0.237500X-0.250000X0.237500X0*%
%ADD17RoundRect,0.250000X-0.325000X-0.450000X0.325000X-0.450000X0.325000X0.450000X-0.325000X0.450000X0*%
%ADD18RoundRect,0.250000X0.325000X0.450000X-0.325000X0.450000X-0.325000X-0.450000X0.325000X-0.450000X0*%
%ADD19R,1.600000X1.600000*%
%ADD20C,1.600000*%
G04 APERTURE END LIST*
D10*
%TO.C,H5*%
X112500000Y-81000000D03*
D11*
X112500000Y-81000000D03*
%TD*%
D12*
%TO.C,J7*%
X162112500Y-60120000D03*
X164652500Y-60120000D03*
X162112500Y-62660000D03*
X164652500Y-62660000D03*
X162112500Y-65200000D03*
X164652500Y-65200000D03*
X162112500Y-67740000D03*
X164652500Y-67740000D03*
X162112500Y-70280000D03*
D13*
X164652500Y-70280000D03*
%TD*%
D12*
%TO.C,J6*%
X173612500Y-60020000D03*
X176152500Y-60020000D03*
X173612500Y-62560000D03*
X176152500Y-62560000D03*
X173612500Y-65100000D03*
X176152500Y-65100000D03*
X173612500Y-67640000D03*
X176152500Y-67640000D03*
X173612500Y-70180000D03*
D13*
X176152500Y-70180000D03*
%TD*%
%TO.C,J4*%
X141352500Y-70180000D03*
D12*
X138812500Y-70180000D03*
X141352500Y-67640000D03*
X138812500Y-67640000D03*
X141352500Y-65100000D03*
X138812500Y-65100000D03*
X141352500Y-62560000D03*
X138812500Y-62560000D03*
X141352500Y-60020000D03*
X138812500Y-60020000D03*
%TD*%
%TO.C,J1*%
X110312500Y-59920000D03*
X112852500Y-59920000D03*
X110312500Y-62460000D03*
X112852500Y-62460000D03*
X110312500Y-65000000D03*
X112852500Y-65000000D03*
X110312500Y-67540000D03*
X112852500Y-67540000D03*
X110312500Y-70080000D03*
D13*
X112852500Y-70080000D03*
%TD*%
%TO.C,J9*%
X199205000Y-70360000D03*
D12*
X196665000Y-70360000D03*
X199205000Y-67820000D03*
X196665000Y-67820000D03*
X199205000Y-65280000D03*
X196665000Y-65280000D03*
X199205000Y-62740000D03*
X196665000Y-62740000D03*
X199205000Y-60200000D03*
X196665000Y-60200000D03*
%TD*%
%TO.C,J8*%
X52912500Y-60020000D03*
X55452500Y-60020000D03*
X52912500Y-62560000D03*
X55452500Y-62560000D03*
X52912500Y-65100000D03*
X55452500Y-65100000D03*
X52912500Y-67640000D03*
X55452500Y-67640000D03*
X52912500Y-70180000D03*
D13*
X55452500Y-70180000D03*
%TD*%
D12*
%TO.C,J5*%
X98712500Y-59920000D03*
X101252500Y-59920000D03*
X98712500Y-62460000D03*
X101252500Y-62460000D03*
X98712500Y-65000000D03*
X101252500Y-65000000D03*
X98712500Y-67540000D03*
X101252500Y-67540000D03*
X98712500Y-70080000D03*
D13*
X101252500Y-70080000D03*
%TD*%
D14*
%TO.C,J3*%
X121300000Y-69190000D03*
X126300000Y-69190000D03*
D15*
X131300000Y-69190000D03*
%TD*%
D13*
%TO.C,J2*%
X187652500Y-70180000D03*
D12*
X185112500Y-70180000D03*
X187652500Y-67640000D03*
X185112500Y-67640000D03*
X187652500Y-65100000D03*
X185112500Y-65100000D03*
X187652500Y-62560000D03*
X185112500Y-62560000D03*
X187652500Y-60020000D03*
X185112500Y-60020000D03*
%TD*%
D11*
%TO.C,H6*%
X140000000Y-50000000D03*
D10*
X140000000Y-50000000D03*
%TD*%
%TO.C,H4*%
X212000000Y-50500000D03*
D11*
X212000000Y-50500000D03*
%TD*%
D10*
%TO.C,H3*%
X212000000Y-82000000D03*
D11*
X212000000Y-82000000D03*
%TD*%
D10*
%TO.C,H2*%
X41750000Y-80800000D03*
D11*
X41750000Y-80800000D03*
%TD*%
D10*
%TO.C,H1*%
X41750000Y-50450000D03*
D11*
X41750000Y-50450000D03*
%TD*%
D16*
%TO.C,R2*%
X100087500Y-77500000D03*
X101912500Y-77500000D03*
%TD*%
%TO.C,R1*%
X106325000Y-77500000D03*
X104500000Y-77500000D03*
%TD*%
D17*
%TO.C,D2*%
X102175000Y-81850000D03*
X100125000Y-81850000D03*
%TD*%
D18*
%TO.C,D1*%
X104475000Y-81850000D03*
X106525000Y-81850000D03*
%TD*%
D12*
%TO.C,J15*%
X87212500Y-59920000D03*
X89752500Y-59920000D03*
X87212500Y-62460000D03*
X89752500Y-62460000D03*
X87212500Y-65000000D03*
X89752500Y-65000000D03*
X87212500Y-67540000D03*
X89752500Y-67540000D03*
X87212500Y-70080000D03*
D13*
X89752500Y-70080000D03*
%TD*%
D12*
%TO.C,J14*%
X41612500Y-60020000D03*
X44152500Y-60020000D03*
X41612500Y-62560000D03*
X44152500Y-62560000D03*
X41612500Y-65100000D03*
X44152500Y-65100000D03*
X41612500Y-67640000D03*
X44152500Y-67640000D03*
X41612500Y-70180000D03*
D13*
X44152500Y-70180000D03*
%TD*%
D12*
%TO.C,J13*%
X75712500Y-59920000D03*
X78252500Y-59920000D03*
X75712500Y-62460000D03*
X78252500Y-62460000D03*
X75712500Y-65000000D03*
X78252500Y-65000000D03*
X75712500Y-67540000D03*
X78252500Y-67540000D03*
X75712500Y-70080000D03*
D13*
X78252500Y-70080000D03*
%TD*%
%TO.C,J12*%
X152952500Y-70180000D03*
D12*
X150412500Y-70180000D03*
X152952500Y-67640000D03*
X150412500Y-67640000D03*
X152952500Y-65100000D03*
X150412500Y-65100000D03*
X152952500Y-62560000D03*
X150412500Y-62560000D03*
X152952500Y-60020000D03*
X150412500Y-60020000D03*
%TD*%
%TO.C,J11*%
X64312500Y-60020000D03*
X66852500Y-60020000D03*
X64312500Y-62560000D03*
X66852500Y-62560000D03*
X64312500Y-65100000D03*
X66852500Y-65100000D03*
X64312500Y-67640000D03*
X66852500Y-67640000D03*
X64312500Y-70180000D03*
D13*
X66852500Y-70180000D03*
%TD*%
%TO.C,J10*%
X210905000Y-70260000D03*
D12*
X208365000Y-70260000D03*
X210905000Y-67720000D03*
X208365000Y-67720000D03*
X210905000Y-65180000D03*
X208365000Y-65180000D03*
X210905000Y-62640000D03*
X208365000Y-62640000D03*
X210905000Y-60100000D03*
X208365000Y-60100000D03*
%TD*%
D19*
%TO.C,C2*%
X126505000Y-58394888D03*
D20*
X126505000Y-60894888D03*
%TD*%
%TO.C,C1*%
X120605000Y-58370452D03*
D19*
X120605000Y-60870452D03*
%TD*%
M02*
