M48
; DRILL file {KiCad 6.0.11+dfsg-1~bpo11+1} date Friday, 21 April, 2023 11:36:44 AM
; FORMAT={-:-/ absolute / inch / decimal}
; #@! TF.CreationDate,2023-04-21T11:36:44+08:00
; #@! TF.GenerationSoftware,Kicad,Pcbnew,6.0.11+dfsg-1~bpo11+1
; #@! TF.FileFunction,Plated,1,2,PTH
FMAT,2
INCH
; #@! TA.AperFunction,Plated,PTH,ComponentDrill
T1C0.0315
; #@! TA.AperFunction,Plated,PTH,ComponentDrill
T2C0.0394
; #@! TA.AperFunction,Plated,PTH,ComponentDrill
T3C0.0520
; #@! TA.AperFunction,Plated,PTH,ComponentDrill
T4C0.1260
%
G90
G05
T1
X4.7482Y-2.298
X4.7482Y-2.3965
X4.9805Y-2.299
X4.9805Y-2.3974
T2
X1.6383Y-2.363
X1.6383Y-2.463
X1.6383Y-2.563
X1.6383Y-2.663
X1.6383Y-2.763
X1.7383Y-2.363
X1.7383Y-2.463
X1.7383Y-2.563
X1.7383Y-2.663
X1.7383Y-2.763
X2.0832Y-2.363
X2.0832Y-2.463
X2.0832Y-2.563
X2.0832Y-2.663
X2.0832Y-2.763
X2.1832Y-2.363
X2.1832Y-2.463
X2.1832Y-2.563
X2.1832Y-2.663
X2.1832Y-2.763
X2.532Y-2.363
X2.532Y-2.463
X2.532Y-2.563
X2.532Y-2.663
X2.532Y-2.763
X2.632Y-2.363
X2.632Y-2.463
X2.632Y-2.563
X2.632Y-2.663
X2.632Y-2.763
X2.9808Y-2.3591
X2.9808Y-2.4591
X2.9808Y-2.5591
X2.9808Y-2.6591
X2.9808Y-2.7591
X3.0808Y-2.3591
X3.0808Y-2.4591
X3.0808Y-2.5591
X3.0808Y-2.6591
X3.0808Y-2.7591
X3.4336Y-2.3591
X3.4336Y-2.4591
X3.4336Y-2.5591
X3.4336Y-2.6591
X3.4336Y-2.7591
X3.5336Y-2.3591
X3.5336Y-2.4591
X3.5336Y-2.5591
X3.5336Y-2.6591
X3.5336Y-2.7591
X3.8863Y-2.3591
X3.8863Y-2.4591
X3.8863Y-2.5591
X3.8863Y-2.6591
X3.8863Y-2.7591
X3.9863Y-2.3591
X3.9863Y-2.4591
X3.9863Y-2.5591
X3.9863Y-2.6591
X3.9863Y-2.7591
X4.343Y-2.3591
X4.343Y-2.4591
X4.343Y-2.5591
X4.343Y-2.6591
X4.343Y-2.7591
X4.443Y-2.3591
X4.443Y-2.4591
X4.443Y-2.5591
X4.443Y-2.6591
X4.443Y-2.7591
X5.4651Y-2.363
X5.4651Y-2.463
X5.4651Y-2.563
X5.4651Y-2.663
X5.4651Y-2.763
X5.5651Y-2.363
X5.5651Y-2.463
X5.5651Y-2.563
X5.5651Y-2.663
X5.5651Y-2.763
X5.9218Y-2.363
X5.9218Y-2.463
X5.9218Y-2.563
X5.9218Y-2.663
X5.9218Y-2.763
X6.0218Y-2.363
X6.0218Y-2.463
X6.0218Y-2.563
X6.0218Y-2.663
X6.0218Y-2.763
X6.3824Y-2.3669
X6.3824Y-2.4669
X6.3824Y-2.5669
X6.3824Y-2.6669
X6.3824Y-2.7669
X6.4824Y-2.3669
X6.4824Y-2.4669
X6.4824Y-2.5669
X6.4824Y-2.6669
X6.4824Y-2.7669
X6.8351Y-2.363
X6.8351Y-2.463
X6.8351Y-2.563
X6.8351Y-2.663
X6.8351Y-2.763
X6.9351Y-2.363
X6.9351Y-2.463
X6.9351Y-2.563
X6.9351Y-2.663
X6.9351Y-2.763
X7.2879Y-2.363
X7.2879Y-2.463
X7.2879Y-2.563
X7.2879Y-2.663
X7.2879Y-2.763
X7.3879Y-2.363
X7.3879Y-2.463
X7.3879Y-2.563
X7.3879Y-2.663
X7.3879Y-2.763
X7.7427Y-2.3701
X7.7427Y-2.4701
X7.7427Y-2.5701
X7.7427Y-2.6701
X7.7427Y-2.7701
X7.8427Y-2.3701
X7.8427Y-2.4701
X7.8427Y-2.5701
X7.8427Y-2.6701
X7.8427Y-2.7701
X8.2033Y-2.3661
X8.2033Y-2.4661
X8.2033Y-2.5661
X8.2033Y-2.6661
X8.2033Y-2.7661
X8.3033Y-2.3661
X8.3033Y-2.4661
X8.3033Y-2.5661
X8.3033Y-2.6661
X8.3033Y-2.7661
T3
X4.7756Y-2.724
X4.9724Y-2.724
X5.1693Y-2.724
T4
X1.6437Y-1.9862
X1.6437Y-3.1811
X4.4291Y-3.189
X5.5118Y-1.9685
X8.3465Y-1.9882
X8.3465Y-3.2283
T0
M30
