%TF.GenerationSoftware,KiCad,Pcbnew,6.0.11+dfsg-1~bpo11+1*%
%TF.CreationDate,2023-04-21T11:36:44+08:00*%
%TF.ProjectId,EuroPowerBoard,4575726f-506f-4776-9572-426f6172642e,rev?*%
%TF.SameCoordinates,Original*%
%TF.FileFunction,Drillmap*%
%TF.FilePolarity,Positive*%
%FSLAX45Y45*%
G04 Gerber Fmt 4.5, Leading zero omitted, Abs format (unit mm)*
G04 Created by KiCad (PCBNEW 6.0.11+dfsg-1~bpo11+1) date 2023-04-21 11:36:44*
%MOMM*%
%LPD*%
G01*
G04 APERTURE LIST*
%ADD10C,0.100000*%
%ADD11C,0.200000*%
G04 APERTURE END LIST*
D10*
X13650000Y-4600000D02*
X14300000Y-4600000D01*
X4850000Y-5200000D02*
X13300000Y-5200000D01*
X3900000Y-4600000D02*
X4450000Y-4600000D01*
X4650000Y-5000000D02*
G75*
G03*
X4850000Y-5200000I200000J0D01*
G01*
X4650000Y-4800000D02*
X4650000Y-5000000D01*
X4650000Y-4800000D02*
G75*
G03*
X4450000Y-4600000I-200000J0D01*
G01*
X14500000Y-4800000D02*
X14500000Y-5000000D01*
X14500000Y-4800000D02*
G75*
G03*
X14300000Y-4600000I-200000J0D01*
G01*
X14500000Y-5000000D02*
G75*
G03*
X14700000Y-5200000I200000J0D01*
G01*
X20500000Y-5200000D02*
X14700000Y-5200000D01*
X20500000Y-5200000D02*
G75*
G03*
X20700000Y-5000000I0J200000D01*
G01*
X20850000Y-4600000D02*
G75*
G03*
X20700000Y-4750000I0J-150000D01*
G01*
X20700000Y-4750000D02*
X20700000Y-5000000D01*
X13300000Y-5200000D02*
G75*
G03*
X13500000Y-5000000I0J200000D01*
G01*
X13650000Y-4600000D02*
G75*
G03*
X13500000Y-4750000I0J-150000D01*
G01*
X13500000Y-4750000D02*
X13500000Y-5000000D01*
X21500000Y-8600000D02*
X20950000Y-8600000D01*
X20750000Y-8400000D02*
G75*
G03*
X20950000Y-8600000I200000J0D01*
G01*
X20750000Y-8200000D02*
G75*
G03*
X20550000Y-8000000I-200000J0D01*
G01*
X11475000Y-8600000D02*
G75*
G03*
X11675000Y-8400000I0J200000D01*
G01*
X11825000Y-8000000D02*
G75*
G03*
X11675000Y-8150000I0J-150000D01*
G01*
X20750000Y-8400000D02*
X20750000Y-8200000D01*
X11675000Y-8150000D02*
X11675000Y-8400000D01*
X11475000Y-8600000D02*
X11225000Y-8600000D01*
X20550000Y-8000000D02*
X11825000Y-8000000D01*
X21700000Y-4800000D02*
G75*
G03*
X21500000Y-4600000I-200000J0D01*
G01*
X21500000Y-8600000D02*
G75*
G03*
X21700000Y-8400000I0J200000D01*
G01*
X3700000Y-8400000D02*
G75*
G03*
X3900000Y-8600000I200000J0D01*
G01*
X3900000Y-4600000D02*
G75*
G03*
X3700000Y-4800000I0J-200000D01*
G01*
X3700000Y-8400000D02*
X3700000Y-4800000D01*
X11225000Y-8600000D02*
X3900000Y-8600000D01*
X21700000Y-4800000D02*
X21700000Y-8400000D01*
X20850000Y-4600000D02*
X21500000Y-4600000D01*
D11*
X3952619Y-8915476D02*
X3952619Y-8715476D01*
X4000238Y-8715476D01*
X4028809Y-8725000D01*
X4047857Y-8744048D01*
X4057381Y-8763095D01*
X4066905Y-8801190D01*
X4066905Y-8829762D01*
X4057381Y-8867857D01*
X4047857Y-8886905D01*
X4028809Y-8905952D01*
X4000238Y-8915476D01*
X3952619Y-8915476D01*
X4152619Y-8915476D02*
X4152619Y-8782143D01*
X4152619Y-8820238D02*
X4162143Y-8801190D01*
X4171667Y-8791667D01*
X4190714Y-8782143D01*
X4209762Y-8782143D01*
X4276429Y-8915476D02*
X4276429Y-8782143D01*
X4276429Y-8715476D02*
X4266905Y-8725000D01*
X4276429Y-8734524D01*
X4285952Y-8725000D01*
X4276429Y-8715476D01*
X4276429Y-8734524D01*
X4400238Y-8915476D02*
X4381190Y-8905952D01*
X4371667Y-8886905D01*
X4371667Y-8715476D01*
X4505000Y-8915476D02*
X4485952Y-8905952D01*
X4476429Y-8886905D01*
X4476429Y-8715476D01*
X4733571Y-8915476D02*
X4733571Y-8715476D01*
X4800238Y-8858333D01*
X4866905Y-8715476D01*
X4866905Y-8915476D01*
X5047857Y-8915476D02*
X5047857Y-8810714D01*
X5038333Y-8791667D01*
X5019286Y-8782143D01*
X4981190Y-8782143D01*
X4962143Y-8791667D01*
X5047857Y-8905952D02*
X5028810Y-8915476D01*
X4981190Y-8915476D01*
X4962143Y-8905952D01*
X4952619Y-8886905D01*
X4952619Y-8867857D01*
X4962143Y-8848810D01*
X4981190Y-8839286D01*
X5028810Y-8839286D01*
X5047857Y-8829762D01*
X5143095Y-8782143D02*
X5143095Y-8982143D01*
X5143095Y-8791667D02*
X5162143Y-8782143D01*
X5200238Y-8782143D01*
X5219286Y-8791667D01*
X5228810Y-8801190D01*
X5238333Y-8820238D01*
X5238333Y-8877381D01*
X5228810Y-8896429D01*
X5219286Y-8905952D01*
X5200238Y-8915476D01*
X5162143Y-8915476D01*
X5143095Y-8905952D01*
X5324048Y-8896429D02*
X5333571Y-8905952D01*
X5324048Y-8915476D01*
X5314524Y-8905952D01*
X5324048Y-8896429D01*
X5324048Y-8915476D01*
X5324048Y-8791667D02*
X5333571Y-8801190D01*
X5324048Y-8810714D01*
X5314524Y-8801190D01*
X5324048Y-8791667D01*
X5324048Y-8810714D01*
M02*
