%TF.GenerationSoftware,KiCad,Pcbnew,6.0.11+dfsg-1~bpo11+1*%
%TF.CreationDate,2023-04-21T11:36:44+08:00*%
%TF.ProjectId,EuroPowerBoard,4575726f-506f-4776-9572-426f6172642e,rev?*%
%TF.SameCoordinates,Original*%
%TF.FileFunction,Drillmap*%
%TF.FilePolarity,Positive*%
%FSLAX45Y45*%
G04 Gerber Fmt 4.5, Leading zero omitted, Abs format (unit mm)*
G04 Created by KiCad (PCBNEW 6.0.11+dfsg-1~bpo11+1) date 2023-04-21 11:36:44*
%MOMM*%
%LPD*%
G01*
G04 APERTURE LIST*
%ADD10C,0.100000*%
%ADD11C,0.200000*%
%ADD12C,0.080000*%
%ADD13C,0.132000*%
%ADD14C,0.320000*%
G04 APERTURE END LIST*
D10*
X13650000Y-4600000D02*
X14300000Y-4600000D01*
X4850000Y-5200000D02*
X13300000Y-5200000D01*
X3900000Y-4600000D02*
X4450000Y-4600000D01*
X4650000Y-5000000D02*
G75*
G03*
X4850000Y-5200000I200000J0D01*
G01*
X4650000Y-4800000D02*
X4650000Y-5000000D01*
X4650000Y-4800000D02*
G75*
G03*
X4450000Y-4600000I-200000J0D01*
G01*
X14500000Y-4800000D02*
X14500000Y-5000000D01*
X14500000Y-4800000D02*
G75*
G03*
X14300000Y-4600000I-200000J0D01*
G01*
X14500000Y-5000000D02*
G75*
G03*
X14700000Y-5200000I200000J0D01*
G01*
X20500000Y-5200000D02*
X14700000Y-5200000D01*
X20500000Y-5200000D02*
G75*
G03*
X20700000Y-5000000I0J200000D01*
G01*
X20850000Y-4600000D02*
G75*
G03*
X20700000Y-4750000I0J-150000D01*
G01*
X20700000Y-4750000D02*
X20700000Y-5000000D01*
X13300000Y-5200000D02*
G75*
G03*
X13500000Y-5000000I0J200000D01*
G01*
X13650000Y-4600000D02*
G75*
G03*
X13500000Y-4750000I0J-150000D01*
G01*
X13500000Y-4750000D02*
X13500000Y-5000000D01*
X21500000Y-8600000D02*
X20950000Y-8600000D01*
X20750000Y-8400000D02*
G75*
G03*
X20950000Y-8600000I200000J0D01*
G01*
X20750000Y-8200000D02*
G75*
G03*
X20550000Y-8000000I-200000J0D01*
G01*
X11475000Y-8600000D02*
G75*
G03*
X11675000Y-8400000I0J200000D01*
G01*
X11825000Y-8000000D02*
G75*
G03*
X11675000Y-8150000I0J-150000D01*
G01*
X20750000Y-8400000D02*
X20750000Y-8200000D01*
X11675000Y-8150000D02*
X11675000Y-8400000D01*
X11475000Y-8600000D02*
X11225000Y-8600000D01*
X20550000Y-8000000D02*
X11825000Y-8000000D01*
X21700000Y-4800000D02*
G75*
G03*
X21500000Y-4600000I-200000J0D01*
G01*
X21500000Y-8600000D02*
G75*
G03*
X21700000Y-8400000I0J200000D01*
G01*
X3700000Y-8400000D02*
G75*
G03*
X3900000Y-8600000I200000J0D01*
G01*
X3900000Y-4600000D02*
G75*
G03*
X3700000Y-4800000I0J-200000D01*
G01*
X3700000Y-8400000D02*
X3700000Y-4800000D01*
X11225000Y-8600000D02*
X3900000Y-8600000D01*
X21700000Y-4800000D02*
X21700000Y-8400000D01*
X20850000Y-4600000D02*
X21500000Y-4600000D01*
D11*
D12*
X12020500Y-5797045D02*
X12100500Y-5877045D01*
X12100500Y-5797045D02*
X12020500Y-5877045D01*
X12020500Y-6047045D02*
X12100500Y-6127045D01*
X12100500Y-6047045D02*
X12020500Y-6127045D01*
X12610500Y-5799489D02*
X12690500Y-5879489D01*
X12690500Y-5799489D02*
X12610500Y-5879489D01*
X12610500Y-6049489D02*
X12690500Y-6129489D01*
X12690500Y-6049489D02*
X12610500Y-6129489D01*
D10*
X4211250Y-6002000D02*
G75*
G03*
X4211250Y-6002000I-50000J0D01*
G01*
X4211250Y-6256000D02*
G75*
G03*
X4211250Y-6256000I-50000J0D01*
G01*
X4211250Y-6510000D02*
G75*
G03*
X4211250Y-6510000I-50000J0D01*
G01*
X4211250Y-6764000D02*
G75*
G03*
X4211250Y-6764000I-50000J0D01*
G01*
X4211250Y-7018000D02*
G75*
G03*
X4211250Y-7018000I-50000J0D01*
G01*
X4465250Y-6002000D02*
G75*
G03*
X4465250Y-6002000I-50000J0D01*
G01*
X4465250Y-6256000D02*
G75*
G03*
X4465250Y-6256000I-50000J0D01*
G01*
X4465250Y-6510000D02*
G75*
G03*
X4465250Y-6510000I-50000J0D01*
G01*
X4465250Y-6764000D02*
G75*
G03*
X4465250Y-6764000I-50000J0D01*
G01*
X4465250Y-7018000D02*
G75*
G03*
X4465250Y-7018000I-50000J0D01*
G01*
X5341250Y-6002000D02*
G75*
G03*
X5341250Y-6002000I-50000J0D01*
G01*
X5341250Y-6256000D02*
G75*
G03*
X5341250Y-6256000I-50000J0D01*
G01*
X5341250Y-6510000D02*
G75*
G03*
X5341250Y-6510000I-50000J0D01*
G01*
X5341250Y-6764000D02*
G75*
G03*
X5341250Y-6764000I-50000J0D01*
G01*
X5341250Y-7018000D02*
G75*
G03*
X5341250Y-7018000I-50000J0D01*
G01*
X5595250Y-6002000D02*
G75*
G03*
X5595250Y-6002000I-50000J0D01*
G01*
X5595250Y-6256000D02*
G75*
G03*
X5595250Y-6256000I-50000J0D01*
G01*
X5595250Y-6510000D02*
G75*
G03*
X5595250Y-6510000I-50000J0D01*
G01*
X5595250Y-6764000D02*
G75*
G03*
X5595250Y-6764000I-50000J0D01*
G01*
X5595250Y-7018000D02*
G75*
G03*
X5595250Y-7018000I-50000J0D01*
G01*
X6481250Y-6002000D02*
G75*
G03*
X6481250Y-6002000I-50000J0D01*
G01*
X6481250Y-6256000D02*
G75*
G03*
X6481250Y-6256000I-50000J0D01*
G01*
X6481250Y-6510000D02*
G75*
G03*
X6481250Y-6510000I-50000J0D01*
G01*
X6481250Y-6764000D02*
G75*
G03*
X6481250Y-6764000I-50000J0D01*
G01*
X6481250Y-7018000D02*
G75*
G03*
X6481250Y-7018000I-50000J0D01*
G01*
X6735250Y-6002000D02*
G75*
G03*
X6735250Y-6002000I-50000J0D01*
G01*
X6735250Y-6256000D02*
G75*
G03*
X6735250Y-6256000I-50000J0D01*
G01*
X6735250Y-6510000D02*
G75*
G03*
X6735250Y-6510000I-50000J0D01*
G01*
X6735250Y-6764000D02*
G75*
G03*
X6735250Y-6764000I-50000J0D01*
G01*
X6735250Y-7018000D02*
G75*
G03*
X6735250Y-7018000I-50000J0D01*
G01*
X7621250Y-5992000D02*
G75*
G03*
X7621250Y-5992000I-50000J0D01*
G01*
X7621250Y-6246000D02*
G75*
G03*
X7621250Y-6246000I-50000J0D01*
G01*
X7621250Y-6500000D02*
G75*
G03*
X7621250Y-6500000I-50000J0D01*
G01*
X7621250Y-6754000D02*
G75*
G03*
X7621250Y-6754000I-50000J0D01*
G01*
X7621250Y-7008000D02*
G75*
G03*
X7621250Y-7008000I-50000J0D01*
G01*
X7875250Y-5992000D02*
G75*
G03*
X7875250Y-5992000I-50000J0D01*
G01*
X7875250Y-6246000D02*
G75*
G03*
X7875250Y-6246000I-50000J0D01*
G01*
X7875250Y-6500000D02*
G75*
G03*
X7875250Y-6500000I-50000J0D01*
G01*
X7875250Y-6754000D02*
G75*
G03*
X7875250Y-6754000I-50000J0D01*
G01*
X7875250Y-7008000D02*
G75*
G03*
X7875250Y-7008000I-50000J0D01*
G01*
X8771250Y-5992000D02*
G75*
G03*
X8771250Y-5992000I-50000J0D01*
G01*
X8771250Y-6246000D02*
G75*
G03*
X8771250Y-6246000I-50000J0D01*
G01*
X8771250Y-6500000D02*
G75*
G03*
X8771250Y-6500000I-50000J0D01*
G01*
X8771250Y-6754000D02*
G75*
G03*
X8771250Y-6754000I-50000J0D01*
G01*
X8771250Y-7008000D02*
G75*
G03*
X8771250Y-7008000I-50000J0D01*
G01*
X9025250Y-5992000D02*
G75*
G03*
X9025250Y-5992000I-50000J0D01*
G01*
X9025250Y-6246000D02*
G75*
G03*
X9025250Y-6246000I-50000J0D01*
G01*
X9025250Y-6500000D02*
G75*
G03*
X9025250Y-6500000I-50000J0D01*
G01*
X9025250Y-6754000D02*
G75*
G03*
X9025250Y-6754000I-50000J0D01*
G01*
X9025250Y-7008000D02*
G75*
G03*
X9025250Y-7008000I-50000J0D01*
G01*
X9921250Y-5992000D02*
G75*
G03*
X9921250Y-5992000I-50000J0D01*
G01*
X9921250Y-6246000D02*
G75*
G03*
X9921250Y-6246000I-50000J0D01*
G01*
X9921250Y-6500000D02*
G75*
G03*
X9921250Y-6500000I-50000J0D01*
G01*
X9921250Y-6754000D02*
G75*
G03*
X9921250Y-6754000I-50000J0D01*
G01*
X9921250Y-7008000D02*
G75*
G03*
X9921250Y-7008000I-50000J0D01*
G01*
X10175250Y-5992000D02*
G75*
G03*
X10175250Y-5992000I-50000J0D01*
G01*
X10175250Y-6246000D02*
G75*
G03*
X10175250Y-6246000I-50000J0D01*
G01*
X10175250Y-6500000D02*
G75*
G03*
X10175250Y-6500000I-50000J0D01*
G01*
X10175250Y-6754000D02*
G75*
G03*
X10175250Y-6754000I-50000J0D01*
G01*
X10175250Y-7008000D02*
G75*
G03*
X10175250Y-7008000I-50000J0D01*
G01*
X11081250Y-5992000D02*
G75*
G03*
X11081250Y-5992000I-50000J0D01*
G01*
X11081250Y-6246000D02*
G75*
G03*
X11081250Y-6246000I-50000J0D01*
G01*
X11081250Y-6500000D02*
G75*
G03*
X11081250Y-6500000I-50000J0D01*
G01*
X11081250Y-6754000D02*
G75*
G03*
X11081250Y-6754000I-50000J0D01*
G01*
X11081250Y-7008000D02*
G75*
G03*
X11081250Y-7008000I-50000J0D01*
G01*
X11335250Y-5992000D02*
G75*
G03*
X11335250Y-5992000I-50000J0D01*
G01*
X11335250Y-6246000D02*
G75*
G03*
X11335250Y-6246000I-50000J0D01*
G01*
X11335250Y-6500000D02*
G75*
G03*
X11335250Y-6500000I-50000J0D01*
G01*
X11335250Y-6754000D02*
G75*
G03*
X11335250Y-6754000I-50000J0D01*
G01*
X11335250Y-7008000D02*
G75*
G03*
X11335250Y-7008000I-50000J0D01*
G01*
X13931250Y-6002000D02*
G75*
G03*
X13931250Y-6002000I-50000J0D01*
G01*
X13931250Y-6256000D02*
G75*
G03*
X13931250Y-6256000I-50000J0D01*
G01*
X13931250Y-6510000D02*
G75*
G03*
X13931250Y-6510000I-50000J0D01*
G01*
X13931250Y-6764000D02*
G75*
G03*
X13931250Y-6764000I-50000J0D01*
G01*
X13931250Y-7018000D02*
G75*
G03*
X13931250Y-7018000I-50000J0D01*
G01*
X14185250Y-6002000D02*
G75*
G03*
X14185250Y-6002000I-50000J0D01*
G01*
X14185250Y-6256000D02*
G75*
G03*
X14185250Y-6256000I-50000J0D01*
G01*
X14185250Y-6510000D02*
G75*
G03*
X14185250Y-6510000I-50000J0D01*
G01*
X14185250Y-6764000D02*
G75*
G03*
X14185250Y-6764000I-50000J0D01*
G01*
X14185250Y-7018000D02*
G75*
G03*
X14185250Y-7018000I-50000J0D01*
G01*
X15091250Y-6002000D02*
G75*
G03*
X15091250Y-6002000I-50000J0D01*
G01*
X15091250Y-6256000D02*
G75*
G03*
X15091250Y-6256000I-50000J0D01*
G01*
X15091250Y-6510000D02*
G75*
G03*
X15091250Y-6510000I-50000J0D01*
G01*
X15091250Y-6764000D02*
G75*
G03*
X15091250Y-6764000I-50000J0D01*
G01*
X15091250Y-7018000D02*
G75*
G03*
X15091250Y-7018000I-50000J0D01*
G01*
X15345250Y-6002000D02*
G75*
G03*
X15345250Y-6002000I-50000J0D01*
G01*
X15345250Y-6256000D02*
G75*
G03*
X15345250Y-6256000I-50000J0D01*
G01*
X15345250Y-6510000D02*
G75*
G03*
X15345250Y-6510000I-50000J0D01*
G01*
X15345250Y-6764000D02*
G75*
G03*
X15345250Y-6764000I-50000J0D01*
G01*
X15345250Y-7018000D02*
G75*
G03*
X15345250Y-7018000I-50000J0D01*
G01*
X16261250Y-6012000D02*
G75*
G03*
X16261250Y-6012000I-50000J0D01*
G01*
X16261250Y-6266000D02*
G75*
G03*
X16261250Y-6266000I-50000J0D01*
G01*
X16261250Y-6520000D02*
G75*
G03*
X16261250Y-6520000I-50000J0D01*
G01*
X16261250Y-6774000D02*
G75*
G03*
X16261250Y-6774000I-50000J0D01*
G01*
X16261250Y-7028000D02*
G75*
G03*
X16261250Y-7028000I-50000J0D01*
G01*
X16515250Y-6012000D02*
G75*
G03*
X16515250Y-6012000I-50000J0D01*
G01*
X16515250Y-6266000D02*
G75*
G03*
X16515250Y-6266000I-50000J0D01*
G01*
X16515250Y-6520000D02*
G75*
G03*
X16515250Y-6520000I-50000J0D01*
G01*
X16515250Y-6774000D02*
G75*
G03*
X16515250Y-6774000I-50000J0D01*
G01*
X16515250Y-7028000D02*
G75*
G03*
X16515250Y-7028000I-50000J0D01*
G01*
X17411250Y-6002000D02*
G75*
G03*
X17411250Y-6002000I-50000J0D01*
G01*
X17411250Y-6256000D02*
G75*
G03*
X17411250Y-6256000I-50000J0D01*
G01*
X17411250Y-6510000D02*
G75*
G03*
X17411250Y-6510000I-50000J0D01*
G01*
X17411250Y-6764000D02*
G75*
G03*
X17411250Y-6764000I-50000J0D01*
G01*
X17411250Y-7018000D02*
G75*
G03*
X17411250Y-7018000I-50000J0D01*
G01*
X17665250Y-6002000D02*
G75*
G03*
X17665250Y-6002000I-50000J0D01*
G01*
X17665250Y-6256000D02*
G75*
G03*
X17665250Y-6256000I-50000J0D01*
G01*
X17665250Y-6510000D02*
G75*
G03*
X17665250Y-6510000I-50000J0D01*
G01*
X17665250Y-6764000D02*
G75*
G03*
X17665250Y-6764000I-50000J0D01*
G01*
X17665250Y-7018000D02*
G75*
G03*
X17665250Y-7018000I-50000J0D01*
G01*
X18561250Y-6002000D02*
G75*
G03*
X18561250Y-6002000I-50000J0D01*
G01*
X18561250Y-6256000D02*
G75*
G03*
X18561250Y-6256000I-50000J0D01*
G01*
X18561250Y-6510000D02*
G75*
G03*
X18561250Y-6510000I-50000J0D01*
G01*
X18561250Y-6764000D02*
G75*
G03*
X18561250Y-6764000I-50000J0D01*
G01*
X18561250Y-7018000D02*
G75*
G03*
X18561250Y-7018000I-50000J0D01*
G01*
X18815250Y-6002000D02*
G75*
G03*
X18815250Y-6002000I-50000J0D01*
G01*
X18815250Y-6256000D02*
G75*
G03*
X18815250Y-6256000I-50000J0D01*
G01*
X18815250Y-6510000D02*
G75*
G03*
X18815250Y-6510000I-50000J0D01*
G01*
X18815250Y-6764000D02*
G75*
G03*
X18815250Y-6764000I-50000J0D01*
G01*
X18815250Y-7018000D02*
G75*
G03*
X18815250Y-7018000I-50000J0D01*
G01*
X19716500Y-6020000D02*
G75*
G03*
X19716500Y-6020000I-50000J0D01*
G01*
X19716500Y-6274000D02*
G75*
G03*
X19716500Y-6274000I-50000J0D01*
G01*
X19716500Y-6528000D02*
G75*
G03*
X19716500Y-6528000I-50000J0D01*
G01*
X19716500Y-6782000D02*
G75*
G03*
X19716500Y-6782000I-50000J0D01*
G01*
X19716500Y-7036000D02*
G75*
G03*
X19716500Y-7036000I-50000J0D01*
G01*
X19970500Y-6020000D02*
G75*
G03*
X19970500Y-6020000I-50000J0D01*
G01*
X19970500Y-6274000D02*
G75*
G03*
X19970500Y-6274000I-50000J0D01*
G01*
X19970500Y-6528000D02*
G75*
G03*
X19970500Y-6528000I-50000J0D01*
G01*
X19970500Y-6782000D02*
G75*
G03*
X19970500Y-6782000I-50000J0D01*
G01*
X19970500Y-7036000D02*
G75*
G03*
X19970500Y-7036000I-50000J0D01*
G01*
X20886500Y-6010000D02*
G75*
G03*
X20886500Y-6010000I-50000J0D01*
G01*
X20886500Y-6264000D02*
G75*
G03*
X20886500Y-6264000I-50000J0D01*
G01*
X20886500Y-6518000D02*
G75*
G03*
X20886500Y-6518000I-50000J0D01*
G01*
X20886500Y-6772000D02*
G75*
G03*
X20886500Y-6772000I-50000J0D01*
G01*
X20886500Y-7026000D02*
G75*
G03*
X20886500Y-7026000I-50000J0D01*
G01*
X21140500Y-6010000D02*
G75*
G03*
X21140500Y-6010000I-50000J0D01*
G01*
X21140500Y-6264000D02*
G75*
G03*
X21140500Y-6264000I-50000J0D01*
G01*
X21140500Y-6518000D02*
G75*
G03*
X21140500Y-6518000I-50000J0D01*
G01*
X21140500Y-6772000D02*
G75*
G03*
X21140500Y-6772000I-50000J0D01*
G01*
X21140500Y-7026000D02*
G75*
G03*
X21140500Y-7026000I-50000J0D01*
G01*
D13*
X12130000Y-6853000D02*
X12130000Y-6985000D01*
X12064000Y-6919000D02*
X12196000Y-6919000D01*
X12630000Y-6853000D02*
X12630000Y-6985000D01*
X12564000Y-6919000D02*
X12696000Y-6919000D01*
X13130000Y-6853000D02*
X13130000Y-6985000D01*
X13064000Y-6919000D02*
X13196000Y-6919000D01*
D14*
X4288138Y-5158138D02*
X4288138Y-4931862D01*
X4061862Y-4931862D01*
X4061862Y-5158138D01*
X4288138Y-5158138D01*
X4288138Y-8193138D02*
X4288138Y-7966862D01*
X4061862Y-7966862D01*
X4061862Y-8193138D01*
X4288138Y-8193138D01*
X11363138Y-8213138D02*
X11363138Y-7986862D01*
X11136862Y-7986862D01*
X11136862Y-8213138D01*
X11363138Y-8213138D01*
X14113138Y-5113138D02*
X14113138Y-4886862D01*
X13886862Y-4886862D01*
X13886862Y-5113138D01*
X14113138Y-5113138D01*
X21313138Y-5163138D02*
X21313138Y-4936862D01*
X21086862Y-4936862D01*
X21086862Y-5163138D01*
X21313138Y-5163138D01*
X21313138Y-8313138D02*
X21313138Y-8086862D01*
X21086862Y-8086862D01*
X21086862Y-8313138D01*
X21313138Y-8313138D01*
D11*
X3952619Y-8915476D02*
X3952619Y-8715476D01*
X4000238Y-8715476D01*
X4028809Y-8725000D01*
X4047857Y-8744048D01*
X4057381Y-8763095D01*
X4066905Y-8801190D01*
X4066905Y-8829762D01*
X4057381Y-8867857D01*
X4047857Y-8886905D01*
X4028809Y-8905952D01*
X4000238Y-8915476D01*
X3952619Y-8915476D01*
X4152619Y-8915476D02*
X4152619Y-8782143D01*
X4152619Y-8820238D02*
X4162143Y-8801190D01*
X4171667Y-8791667D01*
X4190714Y-8782143D01*
X4209762Y-8782143D01*
X4276429Y-8915476D02*
X4276429Y-8782143D01*
X4276429Y-8715476D02*
X4266905Y-8725000D01*
X4276429Y-8734524D01*
X4285952Y-8725000D01*
X4276429Y-8715476D01*
X4276429Y-8734524D01*
X4400238Y-8915476D02*
X4381190Y-8905952D01*
X4371667Y-8886905D01*
X4371667Y-8715476D01*
X4505000Y-8915476D02*
X4485952Y-8905952D01*
X4476429Y-8886905D01*
X4476429Y-8715476D01*
X4733571Y-8915476D02*
X4733571Y-8715476D01*
X4800238Y-8858333D01*
X4866905Y-8715476D01*
X4866905Y-8915476D01*
X5047857Y-8915476D02*
X5047857Y-8810714D01*
X5038333Y-8791667D01*
X5019286Y-8782143D01*
X4981190Y-8782143D01*
X4962143Y-8791667D01*
X5047857Y-8905952D02*
X5028810Y-8915476D01*
X4981190Y-8915476D01*
X4962143Y-8905952D01*
X4952619Y-8886905D01*
X4952619Y-8867857D01*
X4962143Y-8848810D01*
X4981190Y-8839286D01*
X5028810Y-8839286D01*
X5047857Y-8829762D01*
X5143095Y-8782143D02*
X5143095Y-8982143D01*
X5143095Y-8791667D02*
X5162143Y-8782143D01*
X5200238Y-8782143D01*
X5219286Y-8791667D01*
X5228810Y-8801190D01*
X5238333Y-8820238D01*
X5238333Y-8877381D01*
X5228810Y-8896429D01*
X5219286Y-8905952D01*
X5200238Y-8915476D01*
X5162143Y-8915476D01*
X5143095Y-8905952D01*
X5324048Y-8896429D02*
X5333571Y-8905952D01*
X5324048Y-8915476D01*
X5314524Y-8905952D01*
X5324048Y-8896429D01*
X5324048Y-8915476D01*
X5324048Y-8791667D02*
X5333571Y-8801190D01*
X5324048Y-8810714D01*
X5314524Y-8801190D01*
X5324048Y-8791667D01*
X5324048Y-8810714D01*
D12*
X3615000Y-9205000D02*
X3695000Y-9285000D01*
X3695000Y-9205000D02*
X3615000Y-9285000D01*
D11*
X3990714Y-9135476D02*
X4009762Y-9135476D01*
X4028809Y-9145000D01*
X4038333Y-9154524D01*
X4047857Y-9173571D01*
X4057381Y-9211667D01*
X4057381Y-9259286D01*
X4047857Y-9297381D01*
X4038333Y-9316429D01*
X4028809Y-9325952D01*
X4009762Y-9335476D01*
X3990714Y-9335476D01*
X3971667Y-9325952D01*
X3962143Y-9316429D01*
X3952619Y-9297381D01*
X3943095Y-9259286D01*
X3943095Y-9211667D01*
X3952619Y-9173571D01*
X3962143Y-9154524D01*
X3971667Y-9145000D01*
X3990714Y-9135476D01*
X4143095Y-9316429D02*
X4152619Y-9325952D01*
X4143095Y-9335476D01*
X4133571Y-9325952D01*
X4143095Y-9316429D01*
X4143095Y-9335476D01*
X4266905Y-9221190D02*
X4247857Y-9211667D01*
X4238333Y-9202143D01*
X4228810Y-9183095D01*
X4228810Y-9173571D01*
X4238333Y-9154524D01*
X4247857Y-9145000D01*
X4266905Y-9135476D01*
X4305000Y-9135476D01*
X4324048Y-9145000D01*
X4333571Y-9154524D01*
X4343095Y-9173571D01*
X4343095Y-9183095D01*
X4333571Y-9202143D01*
X4324048Y-9211667D01*
X4305000Y-9221190D01*
X4266905Y-9221190D01*
X4247857Y-9230714D01*
X4238333Y-9240238D01*
X4228810Y-9259286D01*
X4228810Y-9297381D01*
X4238333Y-9316429D01*
X4247857Y-9325952D01*
X4266905Y-9335476D01*
X4305000Y-9335476D01*
X4324048Y-9325952D01*
X4333571Y-9316429D01*
X4343095Y-9297381D01*
X4343095Y-9259286D01*
X4333571Y-9240238D01*
X4324048Y-9230714D01*
X4305000Y-9221190D01*
X4466905Y-9135476D02*
X4485952Y-9135476D01*
X4505000Y-9145000D01*
X4514524Y-9154524D01*
X4524048Y-9173571D01*
X4533571Y-9211667D01*
X4533571Y-9259286D01*
X4524048Y-9297381D01*
X4514524Y-9316429D01*
X4505000Y-9325952D01*
X4485952Y-9335476D01*
X4466905Y-9335476D01*
X4447857Y-9325952D01*
X4438333Y-9316429D01*
X4428810Y-9297381D01*
X4419286Y-9259286D01*
X4419286Y-9211667D01*
X4428810Y-9173571D01*
X4438333Y-9154524D01*
X4447857Y-9145000D01*
X4466905Y-9135476D01*
X4657381Y-9135476D02*
X4676429Y-9135476D01*
X4695476Y-9145000D01*
X4705000Y-9154524D01*
X4714524Y-9173571D01*
X4724048Y-9211667D01*
X4724048Y-9259286D01*
X4714524Y-9297381D01*
X4705000Y-9316429D01*
X4695476Y-9325952D01*
X4676429Y-9335476D01*
X4657381Y-9335476D01*
X4638333Y-9325952D01*
X4628810Y-9316429D01*
X4619286Y-9297381D01*
X4609762Y-9259286D01*
X4609762Y-9211667D01*
X4619286Y-9173571D01*
X4628810Y-9154524D01*
X4638333Y-9145000D01*
X4657381Y-9135476D01*
X4809762Y-9335476D02*
X4809762Y-9202143D01*
X4809762Y-9221190D02*
X4819286Y-9211667D01*
X4838333Y-9202143D01*
X4866905Y-9202143D01*
X4885952Y-9211667D01*
X4895476Y-9230714D01*
X4895476Y-9335476D01*
X4895476Y-9230714D02*
X4905000Y-9211667D01*
X4924048Y-9202143D01*
X4952619Y-9202143D01*
X4971667Y-9211667D01*
X4981190Y-9230714D01*
X4981190Y-9335476D01*
X5076429Y-9335476D02*
X5076429Y-9202143D01*
X5076429Y-9221190D02*
X5085952Y-9211667D01*
X5105000Y-9202143D01*
X5133571Y-9202143D01*
X5152619Y-9211667D01*
X5162143Y-9230714D01*
X5162143Y-9335476D01*
X5162143Y-9230714D02*
X5171667Y-9211667D01*
X5190714Y-9202143D01*
X5219286Y-9202143D01*
X5238333Y-9211667D01*
X5247857Y-9230714D01*
X5247857Y-9335476D01*
X5638333Y-9125952D02*
X5466905Y-9383095D01*
X5895476Y-9135476D02*
X5914524Y-9135476D01*
X5933571Y-9145000D01*
X5943095Y-9154524D01*
X5952619Y-9173571D01*
X5962143Y-9211667D01*
X5962143Y-9259286D01*
X5952619Y-9297381D01*
X5943095Y-9316429D01*
X5933571Y-9325952D01*
X5914524Y-9335476D01*
X5895476Y-9335476D01*
X5876428Y-9325952D01*
X5866905Y-9316429D01*
X5857381Y-9297381D01*
X5847857Y-9259286D01*
X5847857Y-9211667D01*
X5857381Y-9173571D01*
X5866905Y-9154524D01*
X5876428Y-9145000D01*
X5895476Y-9135476D01*
X6047857Y-9316429D02*
X6057381Y-9325952D01*
X6047857Y-9335476D01*
X6038333Y-9325952D01*
X6047857Y-9316429D01*
X6047857Y-9335476D01*
X6181190Y-9135476D02*
X6200238Y-9135476D01*
X6219286Y-9145000D01*
X6228809Y-9154524D01*
X6238333Y-9173571D01*
X6247857Y-9211667D01*
X6247857Y-9259286D01*
X6238333Y-9297381D01*
X6228809Y-9316429D01*
X6219286Y-9325952D01*
X6200238Y-9335476D01*
X6181190Y-9335476D01*
X6162143Y-9325952D01*
X6152619Y-9316429D01*
X6143095Y-9297381D01*
X6133571Y-9259286D01*
X6133571Y-9211667D01*
X6143095Y-9173571D01*
X6152619Y-9154524D01*
X6162143Y-9145000D01*
X6181190Y-9135476D01*
X6314524Y-9135476D02*
X6438333Y-9135476D01*
X6371667Y-9211667D01*
X6400238Y-9211667D01*
X6419286Y-9221190D01*
X6428809Y-9230714D01*
X6438333Y-9249762D01*
X6438333Y-9297381D01*
X6428809Y-9316429D01*
X6419286Y-9325952D01*
X6400238Y-9335476D01*
X6343095Y-9335476D01*
X6324048Y-9325952D01*
X6314524Y-9316429D01*
X6628809Y-9335476D02*
X6514524Y-9335476D01*
X6571667Y-9335476D02*
X6571667Y-9135476D01*
X6552619Y-9164048D01*
X6533571Y-9183095D01*
X6514524Y-9192619D01*
X6809762Y-9135476D02*
X6714524Y-9135476D01*
X6705000Y-9230714D01*
X6714524Y-9221190D01*
X6733571Y-9211667D01*
X6781190Y-9211667D01*
X6800238Y-9221190D01*
X6809762Y-9230714D01*
X6819286Y-9249762D01*
X6819286Y-9297381D01*
X6809762Y-9316429D01*
X6800238Y-9325952D01*
X6781190Y-9335476D01*
X6733571Y-9335476D01*
X6714524Y-9325952D01*
X6705000Y-9316429D01*
X6895476Y-9135476D02*
X6895476Y-9173571D01*
X6971667Y-9135476D02*
X6971667Y-9173571D01*
X7266905Y-9411667D02*
X7257381Y-9402143D01*
X7238333Y-9373571D01*
X7228809Y-9354524D01*
X7219286Y-9325952D01*
X7209762Y-9278333D01*
X7209762Y-9240238D01*
X7219286Y-9192619D01*
X7228809Y-9164048D01*
X7238333Y-9145000D01*
X7257381Y-9116429D01*
X7266905Y-9106905D01*
X7428809Y-9202143D02*
X7428809Y-9335476D01*
X7381190Y-9125952D02*
X7333571Y-9268810D01*
X7457381Y-9268810D01*
X7685952Y-9335476D02*
X7685952Y-9135476D01*
X7771667Y-9335476D02*
X7771667Y-9230714D01*
X7762143Y-9211667D01*
X7743095Y-9202143D01*
X7714524Y-9202143D01*
X7695476Y-9211667D01*
X7685952Y-9221190D01*
X7895476Y-9335476D02*
X7876428Y-9325952D01*
X7866905Y-9316429D01*
X7857381Y-9297381D01*
X7857381Y-9240238D01*
X7866905Y-9221190D01*
X7876428Y-9211667D01*
X7895476Y-9202143D01*
X7924048Y-9202143D01*
X7943095Y-9211667D01*
X7952619Y-9221190D01*
X7962143Y-9240238D01*
X7962143Y-9297381D01*
X7952619Y-9316429D01*
X7943095Y-9325952D01*
X7924048Y-9335476D01*
X7895476Y-9335476D01*
X8076428Y-9335476D02*
X8057381Y-9325952D01*
X8047857Y-9306905D01*
X8047857Y-9135476D01*
X8228809Y-9325952D02*
X8209762Y-9335476D01*
X8171667Y-9335476D01*
X8152619Y-9325952D01*
X8143095Y-9306905D01*
X8143095Y-9230714D01*
X8152619Y-9211667D01*
X8171667Y-9202143D01*
X8209762Y-9202143D01*
X8228809Y-9211667D01*
X8238333Y-9230714D01*
X8238333Y-9249762D01*
X8143095Y-9268810D01*
X8314524Y-9325952D02*
X8333571Y-9335476D01*
X8371667Y-9335476D01*
X8390714Y-9325952D01*
X8400238Y-9306905D01*
X8400238Y-9297381D01*
X8390714Y-9278333D01*
X8371667Y-9268810D01*
X8343095Y-9268810D01*
X8324048Y-9259286D01*
X8314524Y-9240238D01*
X8314524Y-9230714D01*
X8324048Y-9211667D01*
X8343095Y-9202143D01*
X8371667Y-9202143D01*
X8390714Y-9211667D01*
X8466905Y-9411667D02*
X8476429Y-9402143D01*
X8495476Y-9373571D01*
X8505000Y-9354524D01*
X8514524Y-9325952D01*
X8524048Y-9278333D01*
X8524048Y-9240238D01*
X8514524Y-9192619D01*
X8505000Y-9164048D01*
X8495476Y-9145000D01*
X8476429Y-9116429D01*
X8466905Y-9106905D01*
D10*
X3695000Y-9509000D02*
G75*
G03*
X3695000Y-9509000I-50000J0D01*
G01*
D11*
X4057381Y-9599476D02*
X3943095Y-9599476D01*
X4000238Y-9599476D02*
X4000238Y-9399476D01*
X3981190Y-9428048D01*
X3962143Y-9447095D01*
X3943095Y-9456619D01*
X4143095Y-9580429D02*
X4152619Y-9589952D01*
X4143095Y-9599476D01*
X4133571Y-9589952D01*
X4143095Y-9580429D01*
X4143095Y-9599476D01*
X4276429Y-9399476D02*
X4295476Y-9399476D01*
X4314524Y-9409000D01*
X4324048Y-9418524D01*
X4333571Y-9437571D01*
X4343095Y-9475667D01*
X4343095Y-9523286D01*
X4333571Y-9561381D01*
X4324048Y-9580429D01*
X4314524Y-9589952D01*
X4295476Y-9599476D01*
X4276429Y-9599476D01*
X4257381Y-9589952D01*
X4247857Y-9580429D01*
X4238333Y-9561381D01*
X4228810Y-9523286D01*
X4228810Y-9475667D01*
X4238333Y-9437571D01*
X4247857Y-9418524D01*
X4257381Y-9409000D01*
X4276429Y-9399476D01*
X4466905Y-9399476D02*
X4485952Y-9399476D01*
X4505000Y-9409000D01*
X4514524Y-9418524D01*
X4524048Y-9437571D01*
X4533571Y-9475667D01*
X4533571Y-9523286D01*
X4524048Y-9561381D01*
X4514524Y-9580429D01*
X4505000Y-9589952D01*
X4485952Y-9599476D01*
X4466905Y-9599476D01*
X4447857Y-9589952D01*
X4438333Y-9580429D01*
X4428810Y-9561381D01*
X4419286Y-9523286D01*
X4419286Y-9475667D01*
X4428810Y-9437571D01*
X4438333Y-9418524D01*
X4447857Y-9409000D01*
X4466905Y-9399476D01*
X4657381Y-9399476D02*
X4676429Y-9399476D01*
X4695476Y-9409000D01*
X4705000Y-9418524D01*
X4714524Y-9437571D01*
X4724048Y-9475667D01*
X4724048Y-9523286D01*
X4714524Y-9561381D01*
X4705000Y-9580429D01*
X4695476Y-9589952D01*
X4676429Y-9599476D01*
X4657381Y-9599476D01*
X4638333Y-9589952D01*
X4628810Y-9580429D01*
X4619286Y-9561381D01*
X4609762Y-9523286D01*
X4609762Y-9475667D01*
X4619286Y-9437571D01*
X4628810Y-9418524D01*
X4638333Y-9409000D01*
X4657381Y-9399476D01*
X4809762Y-9599476D02*
X4809762Y-9466143D01*
X4809762Y-9485190D02*
X4819286Y-9475667D01*
X4838333Y-9466143D01*
X4866905Y-9466143D01*
X4885952Y-9475667D01*
X4895476Y-9494714D01*
X4895476Y-9599476D01*
X4895476Y-9494714D02*
X4905000Y-9475667D01*
X4924048Y-9466143D01*
X4952619Y-9466143D01*
X4971667Y-9475667D01*
X4981190Y-9494714D01*
X4981190Y-9599476D01*
X5076429Y-9599476D02*
X5076429Y-9466143D01*
X5076429Y-9485190D02*
X5085952Y-9475667D01*
X5105000Y-9466143D01*
X5133571Y-9466143D01*
X5152619Y-9475667D01*
X5162143Y-9494714D01*
X5162143Y-9599476D01*
X5162143Y-9494714D02*
X5171667Y-9475667D01*
X5190714Y-9466143D01*
X5219286Y-9466143D01*
X5238333Y-9475667D01*
X5247857Y-9494714D01*
X5247857Y-9599476D01*
X5638333Y-9389952D02*
X5466905Y-9647095D01*
X5895476Y-9399476D02*
X5914524Y-9399476D01*
X5933571Y-9409000D01*
X5943095Y-9418524D01*
X5952619Y-9437571D01*
X5962143Y-9475667D01*
X5962143Y-9523286D01*
X5952619Y-9561381D01*
X5943095Y-9580429D01*
X5933571Y-9589952D01*
X5914524Y-9599476D01*
X5895476Y-9599476D01*
X5876428Y-9589952D01*
X5866905Y-9580429D01*
X5857381Y-9561381D01*
X5847857Y-9523286D01*
X5847857Y-9475667D01*
X5857381Y-9437571D01*
X5866905Y-9418524D01*
X5876428Y-9409000D01*
X5895476Y-9399476D01*
X6047857Y-9580429D02*
X6057381Y-9589952D01*
X6047857Y-9599476D01*
X6038333Y-9589952D01*
X6047857Y-9580429D01*
X6047857Y-9599476D01*
X6181190Y-9399476D02*
X6200238Y-9399476D01*
X6219286Y-9409000D01*
X6228809Y-9418524D01*
X6238333Y-9437571D01*
X6247857Y-9475667D01*
X6247857Y-9523286D01*
X6238333Y-9561381D01*
X6228809Y-9580429D01*
X6219286Y-9589952D01*
X6200238Y-9599476D01*
X6181190Y-9599476D01*
X6162143Y-9589952D01*
X6152619Y-9580429D01*
X6143095Y-9561381D01*
X6133571Y-9523286D01*
X6133571Y-9475667D01*
X6143095Y-9437571D01*
X6152619Y-9418524D01*
X6162143Y-9409000D01*
X6181190Y-9399476D01*
X6314524Y-9399476D02*
X6438333Y-9399476D01*
X6371667Y-9475667D01*
X6400238Y-9475667D01*
X6419286Y-9485190D01*
X6428809Y-9494714D01*
X6438333Y-9513762D01*
X6438333Y-9561381D01*
X6428809Y-9580429D01*
X6419286Y-9589952D01*
X6400238Y-9599476D01*
X6343095Y-9599476D01*
X6324048Y-9589952D01*
X6314524Y-9580429D01*
X6533571Y-9599476D02*
X6571667Y-9599476D01*
X6590714Y-9589952D01*
X6600238Y-9580429D01*
X6619286Y-9551857D01*
X6628809Y-9513762D01*
X6628809Y-9437571D01*
X6619286Y-9418524D01*
X6609762Y-9409000D01*
X6590714Y-9399476D01*
X6552619Y-9399476D01*
X6533571Y-9409000D01*
X6524048Y-9418524D01*
X6514524Y-9437571D01*
X6514524Y-9485190D01*
X6524048Y-9504238D01*
X6533571Y-9513762D01*
X6552619Y-9523286D01*
X6590714Y-9523286D01*
X6609762Y-9513762D01*
X6619286Y-9504238D01*
X6628809Y-9485190D01*
X6800238Y-9466143D02*
X6800238Y-9599476D01*
X6752619Y-9389952D02*
X6705000Y-9532810D01*
X6828809Y-9532810D01*
X6895476Y-9399476D02*
X6895476Y-9437571D01*
X6971667Y-9399476D02*
X6971667Y-9437571D01*
X7266905Y-9675667D02*
X7257381Y-9666143D01*
X7238333Y-9637571D01*
X7228809Y-9618524D01*
X7219286Y-9589952D01*
X7209762Y-9542333D01*
X7209762Y-9504238D01*
X7219286Y-9456619D01*
X7228809Y-9428048D01*
X7238333Y-9409000D01*
X7257381Y-9380429D01*
X7266905Y-9370905D01*
X7447857Y-9599476D02*
X7333571Y-9599476D01*
X7390714Y-9599476D02*
X7390714Y-9399476D01*
X7371667Y-9428048D01*
X7352619Y-9447095D01*
X7333571Y-9456619D01*
X7619286Y-9466143D02*
X7619286Y-9599476D01*
X7571667Y-9389952D02*
X7524048Y-9532810D01*
X7647857Y-9532810D01*
X7762143Y-9399476D02*
X7781190Y-9399476D01*
X7800238Y-9409000D01*
X7809762Y-9418524D01*
X7819286Y-9437571D01*
X7828809Y-9475667D01*
X7828809Y-9523286D01*
X7819286Y-9561381D01*
X7809762Y-9580429D01*
X7800238Y-9589952D01*
X7781190Y-9599476D01*
X7762143Y-9599476D01*
X7743095Y-9589952D01*
X7733571Y-9580429D01*
X7724048Y-9561381D01*
X7714524Y-9523286D01*
X7714524Y-9475667D01*
X7724048Y-9437571D01*
X7733571Y-9418524D01*
X7743095Y-9409000D01*
X7762143Y-9399476D01*
X8066905Y-9599476D02*
X8066905Y-9399476D01*
X8152619Y-9599476D02*
X8152619Y-9494714D01*
X8143095Y-9475667D01*
X8124048Y-9466143D01*
X8095476Y-9466143D01*
X8076428Y-9475667D01*
X8066905Y-9485190D01*
X8276428Y-9599476D02*
X8257381Y-9589952D01*
X8247857Y-9580429D01*
X8238333Y-9561381D01*
X8238333Y-9504238D01*
X8247857Y-9485190D01*
X8257381Y-9475667D01*
X8276428Y-9466143D01*
X8305000Y-9466143D01*
X8324048Y-9475667D01*
X8333571Y-9485190D01*
X8343095Y-9504238D01*
X8343095Y-9561381D01*
X8333571Y-9580429D01*
X8324048Y-9589952D01*
X8305000Y-9599476D01*
X8276428Y-9599476D01*
X8457381Y-9599476D02*
X8438333Y-9589952D01*
X8428810Y-9570905D01*
X8428810Y-9399476D01*
X8609762Y-9589952D02*
X8590714Y-9599476D01*
X8552619Y-9599476D01*
X8533571Y-9589952D01*
X8524048Y-9570905D01*
X8524048Y-9494714D01*
X8533571Y-9475667D01*
X8552619Y-9466143D01*
X8590714Y-9466143D01*
X8609762Y-9475667D01*
X8619286Y-9494714D01*
X8619286Y-9513762D01*
X8524048Y-9532810D01*
X8695476Y-9589952D02*
X8714524Y-9599476D01*
X8752619Y-9599476D01*
X8771667Y-9589952D01*
X8781190Y-9570905D01*
X8781190Y-9561381D01*
X8771667Y-9542333D01*
X8752619Y-9532810D01*
X8724048Y-9532810D01*
X8705000Y-9523286D01*
X8695476Y-9504238D01*
X8695476Y-9494714D01*
X8705000Y-9475667D01*
X8724048Y-9466143D01*
X8752619Y-9466143D01*
X8771667Y-9475667D01*
X8847857Y-9675667D02*
X8857381Y-9666143D01*
X8876429Y-9637571D01*
X8885952Y-9618524D01*
X8895476Y-9589952D01*
X8905000Y-9542333D01*
X8905000Y-9504238D01*
X8895476Y-9456619D01*
X8885952Y-9428048D01*
X8876429Y-9409000D01*
X8857381Y-9380429D01*
X8847857Y-9370905D01*
D13*
X3629000Y-9707000D02*
X3629000Y-9839000D01*
X3563000Y-9773000D02*
X3695000Y-9773000D01*
D11*
X4057381Y-9863476D02*
X3943095Y-9863476D01*
X4000238Y-9863476D02*
X4000238Y-9663476D01*
X3981190Y-9692048D01*
X3962143Y-9711095D01*
X3943095Y-9720619D01*
X4143095Y-9844429D02*
X4152619Y-9853952D01*
X4143095Y-9863476D01*
X4133571Y-9853952D01*
X4143095Y-9844429D01*
X4143095Y-9863476D01*
X4219286Y-9663476D02*
X4343095Y-9663476D01*
X4276429Y-9739667D01*
X4305000Y-9739667D01*
X4324048Y-9749190D01*
X4333571Y-9758714D01*
X4343095Y-9777762D01*
X4343095Y-9825381D01*
X4333571Y-9844429D01*
X4324048Y-9853952D01*
X4305000Y-9863476D01*
X4247857Y-9863476D01*
X4228810Y-9853952D01*
X4219286Y-9844429D01*
X4419286Y-9682524D02*
X4428810Y-9673000D01*
X4447857Y-9663476D01*
X4495476Y-9663476D01*
X4514524Y-9673000D01*
X4524048Y-9682524D01*
X4533571Y-9701571D01*
X4533571Y-9720619D01*
X4524048Y-9749190D01*
X4409762Y-9863476D01*
X4533571Y-9863476D01*
X4657381Y-9663476D02*
X4676429Y-9663476D01*
X4695476Y-9673000D01*
X4705000Y-9682524D01*
X4714524Y-9701571D01*
X4724048Y-9739667D01*
X4724048Y-9787286D01*
X4714524Y-9825381D01*
X4705000Y-9844429D01*
X4695476Y-9853952D01*
X4676429Y-9863476D01*
X4657381Y-9863476D01*
X4638333Y-9853952D01*
X4628810Y-9844429D01*
X4619286Y-9825381D01*
X4609762Y-9787286D01*
X4609762Y-9739667D01*
X4619286Y-9701571D01*
X4628810Y-9682524D01*
X4638333Y-9673000D01*
X4657381Y-9663476D01*
X4809762Y-9863476D02*
X4809762Y-9730143D01*
X4809762Y-9749190D02*
X4819286Y-9739667D01*
X4838333Y-9730143D01*
X4866905Y-9730143D01*
X4885952Y-9739667D01*
X4895476Y-9758714D01*
X4895476Y-9863476D01*
X4895476Y-9758714D02*
X4905000Y-9739667D01*
X4924048Y-9730143D01*
X4952619Y-9730143D01*
X4971667Y-9739667D01*
X4981190Y-9758714D01*
X4981190Y-9863476D01*
X5076429Y-9863476D02*
X5076429Y-9730143D01*
X5076429Y-9749190D02*
X5085952Y-9739667D01*
X5105000Y-9730143D01*
X5133571Y-9730143D01*
X5152619Y-9739667D01*
X5162143Y-9758714D01*
X5162143Y-9863476D01*
X5162143Y-9758714D02*
X5171667Y-9739667D01*
X5190714Y-9730143D01*
X5219286Y-9730143D01*
X5238333Y-9739667D01*
X5247857Y-9758714D01*
X5247857Y-9863476D01*
X5638333Y-9653952D02*
X5466905Y-9911095D01*
X5895476Y-9663476D02*
X5914524Y-9663476D01*
X5933571Y-9673000D01*
X5943095Y-9682524D01*
X5952619Y-9701571D01*
X5962143Y-9739667D01*
X5962143Y-9787286D01*
X5952619Y-9825381D01*
X5943095Y-9844429D01*
X5933571Y-9853952D01*
X5914524Y-9863476D01*
X5895476Y-9863476D01*
X5876428Y-9853952D01*
X5866905Y-9844429D01*
X5857381Y-9825381D01*
X5847857Y-9787286D01*
X5847857Y-9739667D01*
X5857381Y-9701571D01*
X5866905Y-9682524D01*
X5876428Y-9673000D01*
X5895476Y-9663476D01*
X6047857Y-9844429D02*
X6057381Y-9853952D01*
X6047857Y-9863476D01*
X6038333Y-9853952D01*
X6047857Y-9844429D01*
X6047857Y-9863476D01*
X6181190Y-9663476D02*
X6200238Y-9663476D01*
X6219286Y-9673000D01*
X6228809Y-9682524D01*
X6238333Y-9701571D01*
X6247857Y-9739667D01*
X6247857Y-9787286D01*
X6238333Y-9825381D01*
X6228809Y-9844429D01*
X6219286Y-9853952D01*
X6200238Y-9863476D01*
X6181190Y-9863476D01*
X6162143Y-9853952D01*
X6152619Y-9844429D01*
X6143095Y-9825381D01*
X6133571Y-9787286D01*
X6133571Y-9739667D01*
X6143095Y-9701571D01*
X6152619Y-9682524D01*
X6162143Y-9673000D01*
X6181190Y-9663476D01*
X6428809Y-9663476D02*
X6333571Y-9663476D01*
X6324048Y-9758714D01*
X6333571Y-9749190D01*
X6352619Y-9739667D01*
X6400238Y-9739667D01*
X6419286Y-9749190D01*
X6428809Y-9758714D01*
X6438333Y-9777762D01*
X6438333Y-9825381D01*
X6428809Y-9844429D01*
X6419286Y-9853952D01*
X6400238Y-9863476D01*
X6352619Y-9863476D01*
X6333571Y-9853952D01*
X6324048Y-9844429D01*
X6514524Y-9682524D02*
X6524048Y-9673000D01*
X6543095Y-9663476D01*
X6590714Y-9663476D01*
X6609762Y-9673000D01*
X6619286Y-9682524D01*
X6628809Y-9701571D01*
X6628809Y-9720619D01*
X6619286Y-9749190D01*
X6505000Y-9863476D01*
X6628809Y-9863476D01*
X6752619Y-9663476D02*
X6771667Y-9663476D01*
X6790714Y-9673000D01*
X6800238Y-9682524D01*
X6809762Y-9701571D01*
X6819286Y-9739667D01*
X6819286Y-9787286D01*
X6809762Y-9825381D01*
X6800238Y-9844429D01*
X6790714Y-9853952D01*
X6771667Y-9863476D01*
X6752619Y-9863476D01*
X6733571Y-9853952D01*
X6724048Y-9844429D01*
X6714524Y-9825381D01*
X6705000Y-9787286D01*
X6705000Y-9739667D01*
X6714524Y-9701571D01*
X6724048Y-9682524D01*
X6733571Y-9673000D01*
X6752619Y-9663476D01*
X6895476Y-9663476D02*
X6895476Y-9701571D01*
X6971667Y-9663476D02*
X6971667Y-9701571D01*
X7266905Y-9939667D02*
X7257381Y-9930143D01*
X7238333Y-9901571D01*
X7228809Y-9882524D01*
X7219286Y-9853952D01*
X7209762Y-9806333D01*
X7209762Y-9768238D01*
X7219286Y-9720619D01*
X7228809Y-9692048D01*
X7238333Y-9673000D01*
X7257381Y-9644429D01*
X7266905Y-9634905D01*
X7324048Y-9663476D02*
X7447857Y-9663476D01*
X7381190Y-9739667D01*
X7409762Y-9739667D01*
X7428809Y-9749190D01*
X7438333Y-9758714D01*
X7447857Y-9777762D01*
X7447857Y-9825381D01*
X7438333Y-9844429D01*
X7428809Y-9853952D01*
X7409762Y-9863476D01*
X7352619Y-9863476D01*
X7333571Y-9853952D01*
X7324048Y-9844429D01*
X7685952Y-9863476D02*
X7685952Y-9663476D01*
X7771667Y-9863476D02*
X7771667Y-9758714D01*
X7762143Y-9739667D01*
X7743095Y-9730143D01*
X7714524Y-9730143D01*
X7695476Y-9739667D01*
X7685952Y-9749190D01*
X7895476Y-9863476D02*
X7876428Y-9853952D01*
X7866905Y-9844429D01*
X7857381Y-9825381D01*
X7857381Y-9768238D01*
X7866905Y-9749190D01*
X7876428Y-9739667D01*
X7895476Y-9730143D01*
X7924048Y-9730143D01*
X7943095Y-9739667D01*
X7952619Y-9749190D01*
X7962143Y-9768238D01*
X7962143Y-9825381D01*
X7952619Y-9844429D01*
X7943095Y-9853952D01*
X7924048Y-9863476D01*
X7895476Y-9863476D01*
X8076428Y-9863476D02*
X8057381Y-9853952D01*
X8047857Y-9834905D01*
X8047857Y-9663476D01*
X8228809Y-9853952D02*
X8209762Y-9863476D01*
X8171667Y-9863476D01*
X8152619Y-9853952D01*
X8143095Y-9834905D01*
X8143095Y-9758714D01*
X8152619Y-9739667D01*
X8171667Y-9730143D01*
X8209762Y-9730143D01*
X8228809Y-9739667D01*
X8238333Y-9758714D01*
X8238333Y-9777762D01*
X8143095Y-9796810D01*
X8314524Y-9853952D02*
X8333571Y-9863476D01*
X8371667Y-9863476D01*
X8390714Y-9853952D01*
X8400238Y-9834905D01*
X8400238Y-9825381D01*
X8390714Y-9806333D01*
X8371667Y-9796810D01*
X8343095Y-9796810D01*
X8324048Y-9787286D01*
X8314524Y-9768238D01*
X8314524Y-9758714D01*
X8324048Y-9739667D01*
X8343095Y-9730143D01*
X8371667Y-9730143D01*
X8390714Y-9739667D01*
X8466905Y-9939667D02*
X8476429Y-9930143D01*
X8495476Y-9901571D01*
X8505000Y-9882524D01*
X8514524Y-9853952D01*
X8524048Y-9806333D01*
X8524048Y-9768238D01*
X8514524Y-9720619D01*
X8505000Y-9692048D01*
X8495476Y-9673000D01*
X8476429Y-9644429D01*
X8466905Y-9634905D01*
X3665711Y-10107711D02*
X3665711Y-9966289D01*
X3524289Y-9966289D01*
X3524289Y-10107711D01*
X3665711Y-10107711D01*
X3933571Y-9927476D02*
X4057381Y-9927476D01*
X3990714Y-10003667D01*
X4019286Y-10003667D01*
X4038333Y-10013190D01*
X4047857Y-10022714D01*
X4057381Y-10041762D01*
X4057381Y-10089381D01*
X4047857Y-10108429D01*
X4038333Y-10117952D01*
X4019286Y-10127476D01*
X3962143Y-10127476D01*
X3943095Y-10117952D01*
X3933571Y-10108429D01*
X4143095Y-10108429D02*
X4152619Y-10117952D01*
X4143095Y-10127476D01*
X4133571Y-10117952D01*
X4143095Y-10108429D01*
X4143095Y-10127476D01*
X4228810Y-9946524D02*
X4238333Y-9937000D01*
X4257381Y-9927476D01*
X4305000Y-9927476D01*
X4324048Y-9937000D01*
X4333571Y-9946524D01*
X4343095Y-9965571D01*
X4343095Y-9984619D01*
X4333571Y-10013190D01*
X4219286Y-10127476D01*
X4343095Y-10127476D01*
X4466905Y-9927476D02*
X4485952Y-9927476D01*
X4505000Y-9937000D01*
X4514524Y-9946524D01*
X4524048Y-9965571D01*
X4533571Y-10003667D01*
X4533571Y-10051286D01*
X4524048Y-10089381D01*
X4514524Y-10108429D01*
X4505000Y-10117952D01*
X4485952Y-10127476D01*
X4466905Y-10127476D01*
X4447857Y-10117952D01*
X4438333Y-10108429D01*
X4428810Y-10089381D01*
X4419286Y-10051286D01*
X4419286Y-10003667D01*
X4428810Y-9965571D01*
X4438333Y-9946524D01*
X4447857Y-9937000D01*
X4466905Y-9927476D01*
X4657381Y-9927476D02*
X4676429Y-9927476D01*
X4695476Y-9937000D01*
X4705000Y-9946524D01*
X4714524Y-9965571D01*
X4724048Y-10003667D01*
X4724048Y-10051286D01*
X4714524Y-10089381D01*
X4705000Y-10108429D01*
X4695476Y-10117952D01*
X4676429Y-10127476D01*
X4657381Y-10127476D01*
X4638333Y-10117952D01*
X4628810Y-10108429D01*
X4619286Y-10089381D01*
X4609762Y-10051286D01*
X4609762Y-10003667D01*
X4619286Y-9965571D01*
X4628810Y-9946524D01*
X4638333Y-9937000D01*
X4657381Y-9927476D01*
X4809762Y-10127476D02*
X4809762Y-9994143D01*
X4809762Y-10013190D02*
X4819286Y-10003667D01*
X4838333Y-9994143D01*
X4866905Y-9994143D01*
X4885952Y-10003667D01*
X4895476Y-10022714D01*
X4895476Y-10127476D01*
X4895476Y-10022714D02*
X4905000Y-10003667D01*
X4924048Y-9994143D01*
X4952619Y-9994143D01*
X4971667Y-10003667D01*
X4981190Y-10022714D01*
X4981190Y-10127476D01*
X5076429Y-10127476D02*
X5076429Y-9994143D01*
X5076429Y-10013190D02*
X5085952Y-10003667D01*
X5105000Y-9994143D01*
X5133571Y-9994143D01*
X5152619Y-10003667D01*
X5162143Y-10022714D01*
X5162143Y-10127476D01*
X5162143Y-10022714D02*
X5171667Y-10003667D01*
X5190714Y-9994143D01*
X5219286Y-9994143D01*
X5238333Y-10003667D01*
X5247857Y-10022714D01*
X5247857Y-10127476D01*
X5638333Y-9917952D02*
X5466905Y-10175095D01*
X5895476Y-9927476D02*
X5914524Y-9927476D01*
X5933571Y-9937000D01*
X5943095Y-9946524D01*
X5952619Y-9965571D01*
X5962143Y-10003667D01*
X5962143Y-10051286D01*
X5952619Y-10089381D01*
X5943095Y-10108429D01*
X5933571Y-10117952D01*
X5914524Y-10127476D01*
X5895476Y-10127476D01*
X5876428Y-10117952D01*
X5866905Y-10108429D01*
X5857381Y-10089381D01*
X5847857Y-10051286D01*
X5847857Y-10003667D01*
X5857381Y-9965571D01*
X5866905Y-9946524D01*
X5876428Y-9937000D01*
X5895476Y-9927476D01*
X6047857Y-10108429D02*
X6057381Y-10117952D01*
X6047857Y-10127476D01*
X6038333Y-10117952D01*
X6047857Y-10108429D01*
X6047857Y-10127476D01*
X6247857Y-10127476D02*
X6133571Y-10127476D01*
X6190714Y-10127476D02*
X6190714Y-9927476D01*
X6171667Y-9956048D01*
X6152619Y-9975095D01*
X6133571Y-9984619D01*
X6324048Y-9946524D02*
X6333571Y-9937000D01*
X6352619Y-9927476D01*
X6400238Y-9927476D01*
X6419286Y-9937000D01*
X6428809Y-9946524D01*
X6438333Y-9965571D01*
X6438333Y-9984619D01*
X6428809Y-10013190D01*
X6314524Y-10127476D01*
X6438333Y-10127476D01*
X6609762Y-9927476D02*
X6571667Y-9927476D01*
X6552619Y-9937000D01*
X6543095Y-9946524D01*
X6524048Y-9975095D01*
X6514524Y-10013190D01*
X6514524Y-10089381D01*
X6524048Y-10108429D01*
X6533571Y-10117952D01*
X6552619Y-10127476D01*
X6590714Y-10127476D01*
X6609762Y-10117952D01*
X6619286Y-10108429D01*
X6628809Y-10089381D01*
X6628809Y-10041762D01*
X6619286Y-10022714D01*
X6609762Y-10013190D01*
X6590714Y-10003667D01*
X6552619Y-10003667D01*
X6533571Y-10013190D01*
X6524048Y-10022714D01*
X6514524Y-10041762D01*
X6752619Y-9927476D02*
X6771667Y-9927476D01*
X6790714Y-9937000D01*
X6800238Y-9946524D01*
X6809762Y-9965571D01*
X6819286Y-10003667D01*
X6819286Y-10051286D01*
X6809762Y-10089381D01*
X6800238Y-10108429D01*
X6790714Y-10117952D01*
X6771667Y-10127476D01*
X6752619Y-10127476D01*
X6733571Y-10117952D01*
X6724048Y-10108429D01*
X6714524Y-10089381D01*
X6705000Y-10051286D01*
X6705000Y-10003667D01*
X6714524Y-9965571D01*
X6724048Y-9946524D01*
X6733571Y-9937000D01*
X6752619Y-9927476D01*
X6895476Y-9927476D02*
X6895476Y-9965571D01*
X6971667Y-9927476D02*
X6971667Y-9965571D01*
X7266905Y-10203667D02*
X7257381Y-10194143D01*
X7238333Y-10165571D01*
X7228809Y-10146524D01*
X7219286Y-10117952D01*
X7209762Y-10070333D01*
X7209762Y-10032238D01*
X7219286Y-9984619D01*
X7228809Y-9956048D01*
X7238333Y-9937000D01*
X7257381Y-9908429D01*
X7266905Y-9898905D01*
X7428809Y-9927476D02*
X7390714Y-9927476D01*
X7371667Y-9937000D01*
X7362143Y-9946524D01*
X7343095Y-9975095D01*
X7333571Y-10013190D01*
X7333571Y-10089381D01*
X7343095Y-10108429D01*
X7352619Y-10117952D01*
X7371667Y-10127476D01*
X7409762Y-10127476D01*
X7428809Y-10117952D01*
X7438333Y-10108429D01*
X7447857Y-10089381D01*
X7447857Y-10041762D01*
X7438333Y-10022714D01*
X7428809Y-10013190D01*
X7409762Y-10003667D01*
X7371667Y-10003667D01*
X7352619Y-10013190D01*
X7343095Y-10022714D01*
X7333571Y-10041762D01*
X7685952Y-10127476D02*
X7685952Y-9927476D01*
X7771667Y-10127476D02*
X7771667Y-10022714D01*
X7762143Y-10003667D01*
X7743095Y-9994143D01*
X7714524Y-9994143D01*
X7695476Y-10003667D01*
X7685952Y-10013190D01*
X7895476Y-10127476D02*
X7876428Y-10117952D01*
X7866905Y-10108429D01*
X7857381Y-10089381D01*
X7857381Y-10032238D01*
X7866905Y-10013190D01*
X7876428Y-10003667D01*
X7895476Y-9994143D01*
X7924048Y-9994143D01*
X7943095Y-10003667D01*
X7952619Y-10013190D01*
X7962143Y-10032238D01*
X7962143Y-10089381D01*
X7952619Y-10108429D01*
X7943095Y-10117952D01*
X7924048Y-10127476D01*
X7895476Y-10127476D01*
X8076428Y-10127476D02*
X8057381Y-10117952D01*
X8047857Y-10098905D01*
X8047857Y-9927476D01*
X8228809Y-10117952D02*
X8209762Y-10127476D01*
X8171667Y-10127476D01*
X8152619Y-10117952D01*
X8143095Y-10098905D01*
X8143095Y-10022714D01*
X8152619Y-10003667D01*
X8171667Y-9994143D01*
X8209762Y-9994143D01*
X8228809Y-10003667D01*
X8238333Y-10022714D01*
X8238333Y-10041762D01*
X8143095Y-10060810D01*
X8314524Y-10117952D02*
X8333571Y-10127476D01*
X8371667Y-10127476D01*
X8390714Y-10117952D01*
X8400238Y-10098905D01*
X8400238Y-10089381D01*
X8390714Y-10070333D01*
X8371667Y-10060810D01*
X8343095Y-10060810D01*
X8324048Y-10051286D01*
X8314524Y-10032238D01*
X8314524Y-10022714D01*
X8324048Y-10003667D01*
X8343095Y-9994143D01*
X8371667Y-9994143D01*
X8390714Y-10003667D01*
X8466905Y-10203667D02*
X8476429Y-10194143D01*
X8495476Y-10165571D01*
X8505000Y-10146524D01*
X8514524Y-10117952D01*
X8524048Y-10070333D01*
X8524048Y-10032238D01*
X8514524Y-9984619D01*
X8505000Y-9956048D01*
X8495476Y-9937000D01*
X8476429Y-9908429D01*
X8466905Y-9898905D01*
M02*
