%TF.GenerationSoftware,KiCad,Pcbnew,7.0.11+1*%
%TF.CreationDate,2024-03-07T04:51:48+08:00*%
%TF.ProjectId,EuroPowerBoard v2.0,4575726f-506f-4776-9572-426f61726420,rev?*%
%TF.SameCoordinates,Original*%
%TF.FileFunction,Soldermask,Top*%
%TF.FilePolarity,Negative*%
%FSLAX46Y46*%
G04 Gerber Fmt 4.6, Leading zero omitted, Abs format (unit mm)*
G04 Created by KiCad (PCBNEW 7.0.11+1) date 2024-03-07 04:51:48*
%MOMM*%
%LPD*%
G01*
G04 APERTURE LIST*
G04 Aperture macros list*
%AMRoundRect*
0 Rectangle with rounded corners*
0 $1 Rounding radius*
0 $2 $3 $4 $5 $6 $7 $8 $9 X,Y pos of 4 corners*
0 Add a 4 corners polygon primitive as box body*
4,1,4,$2,$3,$4,$5,$6,$7,$8,$9,$2,$3,0*
0 Add four circle primitives for the rounded corners*
1,1,$1+$1,$2,$3*
1,1,$1+$1,$4,$5*
1,1,$1+$1,$6,$7*
1,1,$1+$1,$8,$9*
0 Add four rect primitives between the rounded corners*
20,1,$1+$1,$2,$3,$4,$5,0*
20,1,$1+$1,$4,$5,$6,$7,0*
20,1,$1+$1,$6,$7,$8,$9,0*
20,1,$1+$1,$8,$9,$2,$3,0*%
G04 Aperture macros list end*
%ADD10R,2.500000X2.500000*%
%ADD11C,2.500000*%
%ADD12RoundRect,0.250000X-0.600000X-0.725000X0.600000X-0.725000X0.600000X0.725000X-0.600000X0.725000X0*%
%ADD13O,1.700000X1.950000*%
%ADD14C,7.600000*%
%ADD15RoundRect,0.237500X-0.250000X-0.237500X0.250000X-0.237500X0.250000X0.237500X-0.250000X0.237500X0*%
%ADD16RoundRect,0.250000X0.600000X0.600000X-0.600000X0.600000X-0.600000X-0.600000X0.600000X-0.600000X0*%
%ADD17C,1.700000*%
%ADD18RoundRect,0.250000X0.325000X0.450000X-0.325000X0.450000X-0.325000X-0.450000X0.325000X-0.450000X0*%
%ADD19R,1.600000X1.600000*%
%ADD20C,1.600000*%
%ADD21RoundRect,0.250000X-0.325000X-0.450000X0.325000X-0.450000X0.325000X0.450000X-0.325000X0.450000X0*%
G04 APERTURE END LIST*
D10*
%TO.C,J15*%
X160255000Y-67310000D03*
D11*
X155255000Y-67310000D03*
X150255000Y-67310000D03*
X145255000Y-67310000D03*
X140255000Y-67310000D03*
X135255000Y-67310000D03*
%TD*%
D12*
%TO.C,J21*%
X104260000Y-66040000D03*
D13*
X106760000Y-66040000D03*
X109260000Y-66040000D03*
X111760000Y-66040000D03*
%TD*%
D12*
%TO.C,J27*%
X224155000Y-66040000D03*
D13*
X226655000Y-66040000D03*
X229155000Y-66040000D03*
X231655000Y-66040000D03*
%TD*%
D12*
%TO.C,J26*%
X210185000Y-66040000D03*
D13*
X212685000Y-66040000D03*
X215185000Y-66040000D03*
X217685000Y-66040000D03*
%TD*%
D12*
%TO.C,J25*%
X196215000Y-66040000D03*
D13*
X198715000Y-66040000D03*
X201215000Y-66040000D03*
X203715000Y-66040000D03*
%TD*%
D10*
%TO.C,J16*%
X160255000Y-95250000D03*
D11*
X155255000Y-95250000D03*
X150255000Y-95250000D03*
X145255000Y-95250000D03*
X140255000Y-95250000D03*
X135255000Y-95250000D03*
%TD*%
D14*
%TO.C,H4*%
X256540000Y-96520000D03*
%TD*%
%TO.C,H3*%
X256540000Y-66040000D03*
%TD*%
%TO.C,H2*%
X38100000Y-96520000D03*
%TD*%
%TO.C,H1*%
X38100000Y-66040000D03*
%TD*%
D15*
%TO.C,R1*%
X150471500Y-80518000D03*
X152296500Y-80518000D03*
%TD*%
%TO.C,R3*%
X144780000Y-80518000D03*
X142955000Y-80518000D03*
%TD*%
D16*
%TO.C,J7*%
X127120000Y-93980000D03*
D17*
X124580000Y-93980000D03*
X127120000Y-91440000D03*
X124580000Y-91440000D03*
X127120000Y-88900000D03*
X124580000Y-88900000D03*
X127120000Y-86360000D03*
X124580000Y-86360000D03*
X127120000Y-83820000D03*
X124580000Y-83820000D03*
X127120000Y-81280000D03*
X124580000Y-81280000D03*
X127120000Y-78740000D03*
X124580000Y-78740000D03*
X127120000Y-76200000D03*
X124580000Y-76200000D03*
%TD*%
D18*
%TO.C,D3*%
X142842500Y-77978000D03*
X144892500Y-77978000D03*
%TD*%
D12*
%TO.C,J22*%
X118230000Y-66040000D03*
D13*
X120730000Y-66040000D03*
X123230000Y-66040000D03*
X125730000Y-66040000D03*
%TD*%
D16*
%TO.C,J12*%
X221495000Y-93980000D03*
D17*
X218955000Y-93980000D03*
X221495000Y-91440000D03*
X218955000Y-91440000D03*
X221495000Y-88900000D03*
X218955000Y-88900000D03*
X221495000Y-86360000D03*
X218955000Y-86360000D03*
X221495000Y-83820000D03*
X218955000Y-83820000D03*
X221495000Y-81280000D03*
X218955000Y-81280000D03*
X221495000Y-78740000D03*
X218955000Y-78740000D03*
X221495000Y-76200000D03*
X218955000Y-76200000D03*
%TD*%
D19*
%TO.C,C1*%
X151170000Y-87630000D03*
D20*
X153670000Y-87630000D03*
%TD*%
D16*
%TO.C,J4*%
X89020000Y-93980000D03*
D17*
X86480000Y-93980000D03*
X89020000Y-91440000D03*
X86480000Y-91440000D03*
X89020000Y-88900000D03*
X86480000Y-88900000D03*
X89020000Y-86360000D03*
X86480000Y-86360000D03*
X89020000Y-83820000D03*
X86480000Y-83820000D03*
X89020000Y-81280000D03*
X86480000Y-81280000D03*
X89020000Y-78740000D03*
X86480000Y-78740000D03*
X89020000Y-76200000D03*
X86480000Y-76200000D03*
%TD*%
D16*
%TO.C,J9*%
X183395000Y-93980000D03*
D17*
X180855000Y-93980000D03*
X183395000Y-91440000D03*
X180855000Y-91440000D03*
X183395000Y-88900000D03*
X180855000Y-88900000D03*
X183395000Y-86360000D03*
X180855000Y-86360000D03*
X183395000Y-83820000D03*
X180855000Y-83820000D03*
X183395000Y-81280000D03*
X180855000Y-81280000D03*
X183395000Y-78740000D03*
X180855000Y-78740000D03*
X183395000Y-76200000D03*
X180855000Y-76200000D03*
%TD*%
D16*
%TO.C,J11*%
X208795000Y-93980000D03*
D17*
X206255000Y-93980000D03*
X208795000Y-91440000D03*
X206255000Y-91440000D03*
X208795000Y-88900000D03*
X206255000Y-88900000D03*
X208795000Y-86360000D03*
X206255000Y-86360000D03*
X208795000Y-83820000D03*
X206255000Y-83820000D03*
X208795000Y-81280000D03*
X206255000Y-81280000D03*
X208795000Y-78740000D03*
X206255000Y-78740000D03*
X208795000Y-76200000D03*
X206255000Y-76200000D03*
%TD*%
D12*
%TO.C,J20*%
X90290000Y-66040000D03*
D13*
X92790000Y-66040000D03*
X95290000Y-66040000D03*
X97790000Y-66040000D03*
%TD*%
D19*
%TO.C,C2*%
X157520000Y-87630000D03*
D20*
X160020000Y-87630000D03*
%TD*%
D12*
%TO.C,J24*%
X182245000Y-66040000D03*
D13*
X184745000Y-66040000D03*
X187245000Y-66040000D03*
X189745000Y-66040000D03*
%TD*%
D21*
%TO.C,D2*%
X160029000Y-77978000D03*
X157979000Y-77978000D03*
%TD*%
D12*
%TO.C,J18*%
X62350000Y-66040000D03*
D13*
X64850000Y-66040000D03*
X67350000Y-66040000D03*
X69850000Y-66040000D03*
%TD*%
D17*
%TO.C,J8*%
X168155000Y-76200000D03*
X170695000Y-76200000D03*
X168155000Y-78740000D03*
X170695000Y-78740000D03*
X168155000Y-81280000D03*
X170695000Y-81280000D03*
X168155000Y-83820000D03*
X170695000Y-83820000D03*
X168155000Y-86360000D03*
X170695000Y-86360000D03*
X168155000Y-88900000D03*
X170695000Y-88900000D03*
X168155000Y-91440000D03*
X170695000Y-91440000D03*
X168155000Y-93980000D03*
D16*
X170695000Y-93980000D03*
%TD*%
D12*
%TO.C,J17*%
X48380000Y-66040000D03*
D13*
X50880000Y-66040000D03*
X53380000Y-66040000D03*
X55880000Y-66040000D03*
%TD*%
D16*
%TO.C,J1*%
X50920000Y-93980000D03*
D17*
X48380000Y-93980000D03*
X50920000Y-91440000D03*
X48380000Y-91440000D03*
X50920000Y-88900000D03*
X48380000Y-88900000D03*
X50920000Y-86360000D03*
X48380000Y-86360000D03*
X50920000Y-83820000D03*
X48380000Y-83820000D03*
X50920000Y-81280000D03*
X48380000Y-81280000D03*
X50920000Y-78740000D03*
X48380000Y-78740000D03*
X50920000Y-76200000D03*
X48380000Y-76200000D03*
%TD*%
D15*
%TO.C,R2*%
X158091500Y-80518000D03*
X159916500Y-80518000D03*
%TD*%
D16*
%TO.C,J2*%
X63620000Y-93980000D03*
D17*
X61080000Y-93980000D03*
X63620000Y-91440000D03*
X61080000Y-91440000D03*
X63620000Y-88900000D03*
X61080000Y-88900000D03*
X63620000Y-86360000D03*
X61080000Y-86360000D03*
X63620000Y-83820000D03*
X61080000Y-83820000D03*
X63620000Y-81280000D03*
X61080000Y-81280000D03*
X63620000Y-78740000D03*
X61080000Y-78740000D03*
X63620000Y-76200000D03*
X61080000Y-76200000D03*
%TD*%
D16*
%TO.C,J13*%
X234195000Y-93980000D03*
D17*
X231655000Y-93980000D03*
X234195000Y-91440000D03*
X231655000Y-91440000D03*
X234195000Y-88900000D03*
X231655000Y-88900000D03*
X234195000Y-86360000D03*
X231655000Y-86360000D03*
X234195000Y-83820000D03*
X231655000Y-83820000D03*
X234195000Y-81280000D03*
X231655000Y-81280000D03*
X234195000Y-78740000D03*
X231655000Y-78740000D03*
X234195000Y-76200000D03*
X231655000Y-76200000D03*
%TD*%
D16*
%TO.C,J10*%
X196095000Y-93980000D03*
D17*
X193555000Y-93980000D03*
X196095000Y-91440000D03*
X193555000Y-91440000D03*
X196095000Y-88900000D03*
X193555000Y-88900000D03*
X196095000Y-86360000D03*
X193555000Y-86360000D03*
X196095000Y-83820000D03*
X193555000Y-83820000D03*
X196095000Y-81280000D03*
X193555000Y-81280000D03*
X196095000Y-78740000D03*
X193555000Y-78740000D03*
X196095000Y-76200000D03*
X193555000Y-76200000D03*
%TD*%
D16*
%TO.C,J3*%
X76320000Y-93980000D03*
D17*
X73780000Y-93980000D03*
X76320000Y-91440000D03*
X73780000Y-91440000D03*
X76320000Y-88900000D03*
X73780000Y-88900000D03*
X76320000Y-86360000D03*
X73780000Y-86360000D03*
X76320000Y-83820000D03*
X73780000Y-83820000D03*
X76320000Y-81280000D03*
X73780000Y-81280000D03*
X76320000Y-78740000D03*
X73780000Y-78740000D03*
X76320000Y-76200000D03*
X73780000Y-76200000D03*
%TD*%
D18*
%TO.C,D1*%
X150359000Y-77978000D03*
X152409000Y-77978000D03*
%TD*%
D12*
%TO.C,J31*%
X238125000Y-66040000D03*
D13*
X240625000Y-66040000D03*
X243125000Y-66040000D03*
X245625000Y-66040000D03*
%TD*%
D16*
%TO.C,J5*%
X101720000Y-93980000D03*
D17*
X99180000Y-93980000D03*
X101720000Y-91440000D03*
X99180000Y-91440000D03*
X101720000Y-88900000D03*
X99180000Y-88900000D03*
X101720000Y-86360000D03*
X99180000Y-86360000D03*
X101720000Y-83820000D03*
X99180000Y-83820000D03*
X101720000Y-81280000D03*
X99180000Y-81280000D03*
X101720000Y-78740000D03*
X99180000Y-78740000D03*
X101720000Y-76200000D03*
X99180000Y-76200000D03*
%TD*%
D12*
%TO.C,J23*%
X168275000Y-66040000D03*
D13*
X170775000Y-66040000D03*
X173275000Y-66040000D03*
X175775000Y-66040000D03*
%TD*%
D16*
%TO.C,J6*%
X114420000Y-93980000D03*
D17*
X111880000Y-93980000D03*
X114420000Y-91440000D03*
X111880000Y-91440000D03*
X114420000Y-88900000D03*
X111880000Y-88900000D03*
X114420000Y-86360000D03*
X111880000Y-86360000D03*
X114420000Y-83820000D03*
X111880000Y-83820000D03*
X114420000Y-81280000D03*
X111880000Y-81280000D03*
X114420000Y-78740000D03*
X111880000Y-78740000D03*
X114420000Y-76200000D03*
X111880000Y-76200000D03*
%TD*%
D16*
%TO.C,J14*%
X246895000Y-93980000D03*
D17*
X244355000Y-93980000D03*
X246895000Y-91440000D03*
X244355000Y-91440000D03*
X246895000Y-88900000D03*
X244355000Y-88900000D03*
X246895000Y-86360000D03*
X244355000Y-86360000D03*
X246895000Y-83820000D03*
X244355000Y-83820000D03*
X246895000Y-81280000D03*
X244355000Y-81280000D03*
X246895000Y-78740000D03*
X244355000Y-78740000D03*
X246895000Y-76200000D03*
X244355000Y-76200000D03*
%TD*%
D12*
%TO.C,J19*%
X76320000Y-66040000D03*
D13*
X78820000Y-66040000D03*
X81320000Y-66040000D03*
X83820000Y-66040000D03*
%TD*%
M02*
