M48
; DRILL file {KiCad 7.0.11+1} date Thursday, 07 March, 2024 04:51:50 AM
; FORMAT={-:-/ absolute / inch / decimal}
; #@! TF.CreationDate,2024-03-07T04:51:50+08:00
; #@! TF.GenerationSoftware,Kicad,Pcbnew,7.0.11+1
; #@! TF.FileFunction,Plated,1,2,PTH
FMAT,2
INCH
; #@! TA.AperFunction,Plated,PTH,ViaDrill
T1C0.0157
; #@! TA.AperFunction,Plated,PTH,ComponentDrill
T2C0.0315
; #@! TA.AperFunction,Plated,PTH,ComponentDrill
T3C0.0374
; #@! TA.AperFunction,Plated,PTH,ViaDrill
T4C0.0394
; #@! TA.AperFunction,Plated,PTH,ComponentDrill
T5C0.0394
; #@! TA.AperFunction,Plated,PTH,ComponentDrill
T6C0.0512
; #@! TA.AperFunction,Plated,PTH,ComponentDrill
T7C0.1693
%
G90
G05
T1
X5.1Y-2.55
X5.1Y-2.6
X5.1Y-2.65
X5.1Y-2.7
X5.1Y-2.75
X5.1Y-2.925
X5.15Y-2.55
X5.15Y-2.6
X5.15Y-2.65
X5.15Y-2.7
X5.15Y-2.75
X5.15Y-2.925
X5.2Y-2.925
X5.25Y-2.925
X5.425Y-3.4
X5.425Y-3.45
X5.425Y-3.5
X5.425Y-3.55
X5.75Y-3.4
X5.75Y-3.45
X5.75Y-3.5
X5.75Y-3.55
X6.025Y-3.55
X6.025Y-3.6
X6.025Y-3.65
X6.075Y-3.55
X6.075Y-3.6
X6.075Y-3.65
X6.125Y-3.4
X6.125Y-3.45
X6.125Y-3.5
X6.125Y-3.55
X6.125Y-3.6
X6.125Y-3.65
X6.175Y-3.55
X6.175Y-3.6
X6.175Y-3.65
X6.225Y-3.55
X6.225Y-3.6
X6.225Y-3.65
X6.475Y-2.55
X6.475Y-2.6
X6.475Y-2.65
X6.475Y-2.7
X6.475Y-2.75
X6.475Y-2.925
X6.525Y-2.925
X6.575Y-2.925
X6.625Y-2.925
X6.675Y-2.925
T2
X5.9516Y-3.45
X6.05Y-3.45
X6.2016Y-3.45
X6.3Y-3.45
T3
X1.9047Y-2.6
X2.0031Y-2.6
X2.1016Y-2.6
X2.2Y-2.6
X2.4547Y-2.6
X2.5531Y-2.6
X2.6516Y-2.6
X2.75Y-2.6
X3.0047Y-2.6
X3.1031Y-2.6
X3.2016Y-2.6
X3.3Y-2.6
X3.5547Y-2.6
X3.6531Y-2.6
X3.7516Y-2.6
X3.85Y-2.6
X4.1047Y-2.6
X4.2031Y-2.6
X4.3016Y-2.6
X4.4Y-2.6
X4.6547Y-2.6
X4.7531Y-2.6
X4.8516Y-2.6
X4.95Y-2.6
X6.625Y-2.6
X6.7234Y-2.6
X6.8219Y-2.6
X6.9203Y-2.6
X7.175Y-2.6
X7.2734Y-2.6
X7.3719Y-2.6
X7.4703Y-2.6
X7.725Y-2.6
X7.8234Y-2.6
X7.9219Y-2.6
X8.0203Y-2.6
X8.275Y-2.6
X8.3734Y-2.6
X8.4719Y-2.6
X8.5703Y-2.6
X8.825Y-2.6
X8.9234Y-2.6
X9.0219Y-2.6
X9.1203Y-2.6
X9.375Y-2.6
X9.4734Y-2.6
X9.5719Y-2.6
X9.6703Y-2.6
T4
X5.32Y-3.0
X5.52Y-3.1
T5
X1.9047Y-3.0
X1.9047Y-3.1
X1.9047Y-3.2
X1.9047Y-3.3
X1.9047Y-3.4
X1.9047Y-3.5
X1.9047Y-3.6
X1.9047Y-3.7
X2.0047Y-3.0
X2.0047Y-3.1
X2.0047Y-3.2
X2.0047Y-3.3
X2.0047Y-3.4
X2.0047Y-3.5
X2.0047Y-3.6
X2.0047Y-3.7
X2.4047Y-3.0
X2.4047Y-3.1
X2.4047Y-3.2
X2.4047Y-3.3
X2.4047Y-3.4
X2.4047Y-3.5
X2.4047Y-3.6
X2.4047Y-3.7
X2.5047Y-3.0
X2.5047Y-3.1
X2.5047Y-3.2
X2.5047Y-3.3
X2.5047Y-3.4
X2.5047Y-3.5
X2.5047Y-3.6
X2.5047Y-3.7
X2.9047Y-3.0
X2.9047Y-3.1
X2.9047Y-3.2
X2.9047Y-3.3
X2.9047Y-3.4
X2.9047Y-3.5
X2.9047Y-3.6
X2.9047Y-3.7
X3.0047Y-3.0
X3.0047Y-3.1
X3.0047Y-3.2
X3.0047Y-3.3
X3.0047Y-3.4
X3.0047Y-3.5
X3.0047Y-3.6
X3.0047Y-3.7
X3.4047Y-3.0
X3.4047Y-3.1
X3.4047Y-3.2
X3.4047Y-3.3
X3.4047Y-3.4
X3.4047Y-3.5
X3.4047Y-3.6
X3.4047Y-3.7
X3.5047Y-3.0
X3.5047Y-3.1
X3.5047Y-3.2
X3.5047Y-3.3
X3.5047Y-3.4
X3.5047Y-3.5
X3.5047Y-3.6
X3.5047Y-3.7
X3.9047Y-3.0
X3.9047Y-3.1
X3.9047Y-3.2
X3.9047Y-3.3
X3.9047Y-3.4
X3.9047Y-3.5
X3.9047Y-3.6
X3.9047Y-3.7
X4.0047Y-3.0
X4.0047Y-3.1
X4.0047Y-3.2
X4.0047Y-3.3
X4.0047Y-3.4
X4.0047Y-3.5
X4.0047Y-3.6
X4.0047Y-3.7
X4.4047Y-3.0
X4.4047Y-3.1
X4.4047Y-3.2
X4.4047Y-3.3
X4.4047Y-3.4
X4.4047Y-3.5
X4.4047Y-3.6
X4.4047Y-3.7
X4.5047Y-3.0
X4.5047Y-3.1
X4.5047Y-3.2
X4.5047Y-3.3
X4.5047Y-3.4
X4.5047Y-3.5
X4.5047Y-3.6
X4.5047Y-3.7
X4.9047Y-3.0
X4.9047Y-3.1
X4.9047Y-3.2
X4.9047Y-3.3
X4.9047Y-3.4
X4.9047Y-3.5
X4.9047Y-3.6
X4.9047Y-3.7
X5.0047Y-3.0
X5.0047Y-3.1
X5.0047Y-3.2
X5.0047Y-3.3
X5.0047Y-3.4
X5.0047Y-3.5
X5.0047Y-3.6
X5.0047Y-3.7
X6.6203Y-3.0
X6.6203Y-3.1
X6.6203Y-3.2
X6.6203Y-3.3
X6.6203Y-3.4
X6.6203Y-3.5
X6.6203Y-3.6
X6.6203Y-3.7
X6.7203Y-3.0
X6.7203Y-3.1
X6.7203Y-3.2
X6.7203Y-3.3
X6.7203Y-3.4
X6.7203Y-3.5
X6.7203Y-3.6
X6.7203Y-3.7
X7.1203Y-3.0
X7.1203Y-3.1
X7.1203Y-3.2
X7.1203Y-3.3
X7.1203Y-3.4
X7.1203Y-3.5
X7.1203Y-3.6
X7.1203Y-3.7
X7.2203Y-3.0
X7.2203Y-3.1
X7.2203Y-3.2
X7.2203Y-3.3
X7.2203Y-3.4
X7.2203Y-3.5
X7.2203Y-3.6
X7.2203Y-3.7
X7.6203Y-3.0
X7.6203Y-3.1
X7.6203Y-3.2
X7.6203Y-3.3
X7.6203Y-3.4
X7.6203Y-3.5
X7.6203Y-3.6
X7.6203Y-3.7
X7.7203Y-3.0
X7.7203Y-3.1
X7.7203Y-3.2
X7.7203Y-3.3
X7.7203Y-3.4
X7.7203Y-3.5
X7.7203Y-3.6
X7.7203Y-3.7
X8.1203Y-3.0
X8.1203Y-3.1
X8.1203Y-3.2
X8.1203Y-3.3
X8.1203Y-3.4
X8.1203Y-3.5
X8.1203Y-3.6
X8.1203Y-3.7
X8.2203Y-3.0
X8.2203Y-3.1
X8.2203Y-3.2
X8.2203Y-3.3
X8.2203Y-3.4
X8.2203Y-3.5
X8.2203Y-3.6
X8.2203Y-3.7
X8.6203Y-3.0
X8.6203Y-3.1
X8.6203Y-3.2
X8.6203Y-3.3
X8.6203Y-3.4
X8.6203Y-3.5
X8.6203Y-3.6
X8.6203Y-3.7
X8.7203Y-3.0
X8.7203Y-3.1
X8.7203Y-3.2
X8.7203Y-3.3
X8.7203Y-3.4
X8.7203Y-3.5
X8.7203Y-3.6
X8.7203Y-3.7
X9.1203Y-3.0
X9.1203Y-3.1
X9.1203Y-3.2
X9.1203Y-3.3
X9.1203Y-3.4
X9.1203Y-3.5
X9.1203Y-3.6
X9.1203Y-3.7
X9.2203Y-3.0
X9.2203Y-3.1
X9.2203Y-3.2
X9.2203Y-3.3
X9.2203Y-3.4
X9.2203Y-3.5
X9.2203Y-3.6
X9.2203Y-3.7
X9.6203Y-3.0
X9.6203Y-3.1
X9.6203Y-3.2
X9.6203Y-3.3
X9.6203Y-3.4
X9.6203Y-3.5
X9.6203Y-3.6
X9.6203Y-3.7
X9.7203Y-3.0
X9.7203Y-3.1
X9.7203Y-3.2
X9.7203Y-3.3
X9.7203Y-3.4
X9.7203Y-3.5
X9.7203Y-3.6
X9.7203Y-3.7
T6
X5.325Y-2.65
X5.325Y-3.75
X5.5219Y-2.65
X5.5219Y-3.75
X5.7187Y-2.65
X5.7187Y-3.75
X5.9156Y-2.65
X5.9156Y-3.75
X6.1124Y-2.65
X6.1124Y-3.75
X6.3093Y-2.65
X6.3093Y-3.75
T7
X1.5Y-2.6
X1.5Y-3.8
X10.1Y-2.6
X10.1Y-3.8
M30
